<svg width="24" height="24" viewBox="0 0 24 24" fill="none" xmlns="http://www.w3.org/2000/svg">
<path d="M12 2C6.47737 2 2 6.47737 2 12C2 17.5226 6.47737 22 12 22C17.5226 22 22 17.5226 22 12C22 6.47737 17.5226 2 12 2ZM14.8724 15.9424C14.4362 16.4733 13.8683 16.8313 13.2058 17.0123C12.9177 17.0905 12.786 17.2428 12.8025 17.5432C12.8148 17.8395 12.8025 18.1317 12.7984 18.428C12.7984 18.6914 12.6626 18.8313 12.4033 18.8395C12.2346 18.8436 12.0658 18.8477 11.8971 18.8477C11.749 18.8477 11.6008 18.8477 11.4527 18.8436C11.1728 18.8395 11.0412 18.679 11.0412 18.4074C11.037 18.1934 11.037 17.9753 11.037 17.7613C11.0329 17.284 11.0165 17.2675 10.5597 17.1934C9.97531 17.0988 9.39918 16.9671 8.8642 16.7078C8.44444 16.5021 8.39918 16.3992 8.51852 15.9547C8.60905 15.6255 8.69959 15.2963 8.80247 14.9712C8.87654 14.7325 8.9465 14.6255 9.07407 14.6255C9.14815 14.6255 9.2428 14.6626 9.37037 14.7284C9.96296 15.037 10.5926 15.2099 11.2551 15.2922C11.3663 15.3045 11.4774 15.3128 11.5885 15.3128C11.8971 15.3128 12.1975 15.2551 12.4897 15.1276C13.2263 14.8066 13.3416 13.9547 12.7202 13.4444C12.5103 13.2716 12.2675 13.144 12.0165 13.0329C11.3704 12.749 10.6996 12.535 10.0905 12.1687C9.10288 11.5761 8.47737 10.7654 8.55144 9.56379C8.63375 8.20576 9.40329 7.35802 10.6502 6.90535C11.1646 6.72016 11.1687 6.72428 11.1687 6.1893C11.1687 6.00823 11.1646 5.82716 11.1728 5.64198C11.1852 5.23868 11.251 5.16872 11.6543 5.15638C11.6996 5.15638 11.749 5.15638 11.7942 5.15638C11.8724 5.15638 11.9506 5.15638 12.0288 5.15638C12.0617 5.15638 12.0947 5.15638 12.1235 5.15638C12.8889 5.15638 12.8889 5.1893 12.893 6.01646C12.8971 6.62551 12.8971 6.62551 13.5021 6.72016C13.9671 6.79424 14.4074 6.93004 14.8354 7.11934C15.07 7.22222 15.1605 7.38683 15.0864 7.63786C14.9794 8.00823 14.8765 8.38272 14.7613 8.74897C14.6872 8.97119 14.6173 9.07407 14.4856 9.07407C14.4115 9.07407 14.321 9.04527 14.2058 8.98765C13.6132 8.69959 12.9918 8.55967 12.3416 8.55967C12.2593 8.55967 12.1728 8.56379 12.0905 8.5679C11.8971 8.58025 11.7078 8.60494 11.5267 8.68313C10.8848 8.96296 10.7819 9.67078 11.3292 10.107C11.6049 10.3292 11.9218 10.4856 12.2469 10.6214C12.8148 10.856 13.3827 11.0823 13.9218 11.3786C15.6173 12.3251 16.0782 14.4774 14.8724 15.9424Z" fill="#0E2028"/>
</svg>
