<svg width="25" height="24" viewBox="0 0 25 24" fill="none" xmlns="http://www.w3.org/2000/svg">
<g clip-path="url(#clip0_2314_5638)">
<path d="M12.5003 6.30566L3.9408 13.3621C3.9408 13.372 3.9383 13.3867 3.93329 13.4066C3.92839 13.4265 3.92578 13.4408 3.92578 13.4511V20.5964C3.92578 20.8544 4.0201 21.078 4.20869 21.2663C4.39723 21.4546 4.6205 21.5494 4.87854 21.5494H10.5947V15.833H14.406V21.5496H20.1221C20.38 21.5496 20.6036 21.4551 20.7919 21.2663C20.9805 21.0782 21.0751 20.8545 21.0751 20.5964V13.4511C21.0751 13.4114 21.0697 13.3815 21.0601 13.3621L12.5003 6.30566Z" fill="#0E2028"/>
<path d="M24.3345 11.7543L21.0746 9.045V2.97134C21.0746 2.83249 21.0299 2.7183 20.9404 2.62893C20.8515 2.53967 20.7373 2.49504 20.5982 2.49504H17.74C17.601 2.49504 17.4869 2.53967 17.3975 2.62893C17.3083 2.7183 17.2637 2.83254 17.2637 2.97134V5.87414L13.6315 2.83723C13.3143 2.57919 12.9371 2.4502 12.5004 2.4502C12.0637 2.4502 11.6866 2.57919 11.369 2.83723L0.665418 11.7543C0.566195 11.8336 0.511813 11.9402 0.501698 12.0742C0.491634 12.2081 0.526308 12.3251 0.605822 12.4243L1.52876 13.5259C1.60827 13.6151 1.71234 13.6697 1.84139 13.6897C1.96053 13.6997 2.07967 13.6649 2.19881 13.5855L12.5001 4.99584L22.8014 13.5855C22.881 13.6547 22.985 13.6893 23.114 13.6893H23.1588C23.2876 13.6697 23.3915 13.6147 23.4714 13.5257L24.3944 12.4242C24.4738 12.3248 24.5086 12.2081 24.4983 12.074C24.4881 11.9404 24.4335 11.8337 24.3345 11.7543Z" fill="#0E2028"/>
</g>
<defs>
<clipPath id="clip0_2314_5638">
<rect width="24.0001" height="24" fill="white" transform="translate(0.5)"/>
</clipPath>
</defs>
</svg>
