<svg width="24" height="24" viewBox="0 0 24 24" fill="none" xmlns="http://www.w3.org/2000/svg">
<path d="M12.6759 11.7803C13.1139 11.546 13.386 11.0923 13.386 10.5963C13.386 9.85662 12.7843 9.25488 12.0446 9.25488C11.3049 9.25488 10.7031 9.85662 10.7031 10.5963C10.7031 11.0957 10.978 11.551 11.4205 11.7841C11.613 11.8856 11.7172 12.0885 11.7024 12.2924L11.6881 14.2674C11.6889 14.4593 11.8453 14.6151 12.0373 14.6151C12.2299 14.6151 12.3866 14.4585 12.3866 14.2659V14.2622L12.4007 12.3188C12.3721 12.1056 12.4752 11.8877 12.6759 11.7803Z" fill="#0E2028"/>
<path d="M19.7336 7.81538L19.7331 7.80144C19.7252 7.62764 19.7199 7.44363 19.7168 7.23905C19.702 6.2414 18.9089 5.41617 17.9111 5.36054C15.8308 5.24431 14.2215 4.56596 12.8464 3.22582L12.8347 3.21464C12.3861 2.80341 11.7095 2.80355 11.2611 3.2145L11.2493 3.22582C9.87421 4.56596 8.26489 5.24431 6.18456 5.36054C5.18678 5.41617 4.39372 6.2414 4.37894 7.23918C4.37591 7.44252 4.37052 7.6264 4.36266 7.80144L4.36183 7.83415C4.32138 9.95548 4.27113 12.5954 5.15434 14.9919C5.63998 16.3097 6.37534 17.4551 7.34013 18.3966C8.4391 19.4689 9.87835 20.3203 11.6183 20.927C11.6749 20.9467 11.7335 20.9627 11.7933 20.9746C11.8778 20.9916 11.9628 21 12.0479 21C12.1329 21 12.2181 20.9916 12.3024 20.9746C12.3622 20.9627 12.4213 20.9466 12.4784 20.9267C14.216 20.319 15.6537 19.4673 16.7516 18.3951C17.716 17.4532 18.4515 16.3073 18.9375 14.9894C19.824 12.5858 19.7739 9.94071 19.7336 7.81538ZM13.4638 12.5381L13.4514 14.268C13.4501 15.0452 12.8176 15.677 12.0403 15.677C11.2622 15.677 10.6293 15.0441 10.6293 14.266V14.2622L10.6416 12.5459C10.0193 12.0978 9.64437 11.3773 9.64437 10.5963C9.64437 9.27119 10.7224 8.19307 12.0476 8.19307C13.3727 8.19307 14.4508 9.27119 14.4508 10.5963C14.4508 11.3718 14.0796 12.0894 13.4638 12.5381Z" fill="#0E2028"/>
</svg>
