<svg width="24" height="24" viewBox="0 0 24 24" fill="none" xmlns="http://www.w3.org/2000/svg">
<path d="M14.5006 15.4764L15.7923 14.0551C15.9663 13.866 16.1864 13.7366 16.4259 13.6825C16.6654 13.6284 16.914 13.652 17.1416 13.7505L18.7158 14.4421C18.9457 14.5448 19.1429 14.7202 19.2825 14.946C19.422 15.1719 19.4977 15.4381 19.5 15.7112V18.884C19.4987 19.0697 19.4632 19.2533 19.3957 19.4236C19.3282 19.5939 19.23 19.7474 19.1072 19.8748C18.9844 20.0023 18.8394 20.1011 18.6809 20.1653C18.5225 20.2294 18.3539 20.2577 18.1853 20.2482C7.1544 19.4931 4.92862 9.21347 4.50768 5.27928C4.48814 5.08609 4.50599 4.89053 4.56006 4.70547C4.61414 4.52041 4.7032 4.35005 4.8214 4.20559C4.9396 4.06113 5.08426 3.94585 5.24585 3.86733C5.40745 3.78881 5.58232 3.74883 5.75896 3.75003H8.54407C8.79261 3.75084 9.03523 3.83345 9.24075 3.98724C9.44627 4.14103 9.60528 4.35896 9.69733 4.61301L10.3259 6.34532C10.4183 6.59474 10.4418 6.86859 10.3936 7.13267C10.3454 7.39675 10.2276 7.63935 10.0548 7.83016L8.76319 9.25154C8.76319 9.25154 9.50704 14.7911 14.5006 15.4764Z" fill="#0E2028"/>
</svg>
