<svg width="20" height="20" viewBox="0 0 20 20" fill="none" xmlns="http://www.w3.org/2000/svg">
<path d="M9.9987 3.33325C6.31404 3.33325 3.33203 6.31492 3.33203 9.99992C3.33203 13.6845 6.3137 16.6666 9.9987 16.6666C13.6834 16.6666 16.6654 13.6849 16.6654 9.99992C16.6654 6.31526 13.6837 3.33325 9.9987 3.33325ZM9.80143 13.1202C9.42409 13.1202 9.13451 12.8043 9.13451 12.4445C9.13451 12.0759 9.43286 11.7688 9.80143 11.7688C10.17 11.7688 10.4771 12.0759 10.4771 12.4445C10.4771 12.8043 10.1788 13.1202 9.80143 13.1202ZM10.8018 9.70658C10.3192 10.0839 10.3104 10.3472 10.3104 10.8035C10.3104 10.9703 10.2226 11.1633 9.79263 11.1633C9.43281 11.1633 9.31 11.0317 9.31 10.5754C9.31 9.82067 9.64346 9.46088 9.89794 9.24151C10.1875 8.99578 10.679 8.72377 10.679 8.24992C10.679 7.84622 10.3279 7.65317 9.88917 7.65317C8.99409 7.65317 9.18716 8.3289 8.71326 8.3289C8.47633 8.3289 8.18674 8.17091 8.18674 7.82869C8.18674 7.35484 8.73081 6.65278 9.91549 6.65278C11.0387 6.65278 11.7846 7.27586 11.7846 8.10073C11.7846 8.9256 11.0387 9.52231 10.8018 9.70658Z" fill="#0E2028"/>
</svg>
