<svg width="36" height="36" viewBox="0 0 36 36" fill="none" xmlns="http://www.w3.org/2000/svg">
<g id="parquet(1) 1" clip-path="url(#clip0_2161_1102)">
<g id="Group">
<path id="Vector" d="M35.4727 20.5938C35.7639 20.5938 36 20.3578 36 20.0665V1.32961C36 0.596461 35.4035 0 34.6704 0H7.75055C7.0174 0 6.42094 0.596461 6.42094 1.32961V3.21047H4.54008C3.80693 3.21047 3.21047 3.80693 3.21047 4.54008V6.42094H1.32961C0.596461 6.42094 0 7.01747 0 7.75055V34.6704C0 35.4035 0.596461 36 1.32961 36H28.2495C28.9826 36 29.5791 35.4035 29.5791 34.6704V32.7895H31.4599C32.1931 32.7895 32.7895 32.1931 32.7895 31.4599V29.5791H34.6704C35.4035 29.5791 36 28.9826 36 28.2495V22.5274C36 22.2361 35.7639 22.0001 35.4727 22.0001C35.1814 22.0001 34.9453 22.2361 34.9453 22.5274V28.2495C34.9453 28.401 34.822 28.5244 34.6704 28.5244H32.7895V4.54008C32.7895 3.80693 32.1931 3.21047 31.4599 3.21047H16.02C15.7288 3.21047 15.4927 3.44651 15.4927 3.73781C15.4927 4.02912 15.7288 4.26516 16.02 4.26516H31.4599C31.6115 4.26516 31.7348 4.38848 31.7348 4.54008V31.4599C31.7348 31.6115 31.6115 31.7348 31.4599 31.7348H29.5791V7.75055C29.5791 7.0174 28.9826 6.42094 28.2495 6.42094H4.26516V4.54008C4.26516 4.38848 4.38848 4.26516 4.54008 4.26516H13.5591C13.8503 4.26516 14.0864 4.02912 14.0864 3.73781C14.0864 3.44651 13.8503 3.21047 13.5591 3.21047H7.47563V1.32961C7.47563 1.17802 7.59895 1.05469 7.75055 1.05469H34.6704C34.822 1.05469 34.9453 1.17802 34.9453 1.32961V20.0665C34.9453 20.3577 35.1814 20.5938 35.4727 20.5938ZM14.9628 7.47563L9.05527 13.3838C8.84932 13.5897 8.84939 13.9236 9.05527 14.1295C9.15827 14.2324 9.2932 14.2839 9.42813 14.2839C9.56306 14.2839 9.69806 14.2324 9.80107 14.1294L12.742 11.1881L16.0915 14.5375L4.6452 26.0288L1.30535 22.6889L4.99486 18.9349C4.99521 18.9346 4.99556 18.9343 4.99591 18.934L8.06084 15.869C8.26678 15.663 8.26678 15.3291 8.06084 15.1232C7.85489 14.9173 7.52098 14.9173 7.3151 15.1232L4.62628 17.8121L1.33854 14.4675L8.26446 7.47563H14.9628ZM17.2197 7.47563L28.2401 18.5633L24.9531 21.9077L13.4878 10.4424L16.4543 7.47563H17.2197ZM25.4085 7.47563L28.2428 10.3696L24.9318 13.7386L18.7068 7.47563H25.4085ZM28.5244 33.6701L25.7004 30.8461L28.5244 27.9704V33.6701ZM28.5244 25.5347L25.6958 22.6567L28.5244 19.7787V25.5347ZM28.5244 17.3533L25.6752 14.4868L28.5244 11.5879V17.3533ZM20.1173 34.9453H13.5573L16.8373 31.6653L20.1173 34.9453ZM12.0677 34.9433C12.0671 34.944 12.0665 34.9447 12.0659 34.9453H5.36639L12.7418 27.5699L16.0915 30.9195L12.0677 34.9433ZM4.626 34.1941L1.3391 30.8498L12.7429 19.38L16.0915 22.7286L4.626 34.1941ZM1.05469 7.75055C1.05469 7.69317 1.07241 7.63995 1.10257 7.59586L3.89482 10.3881L1.05469 13.2554V7.75055ZM1.05469 15.6833L3.88357 18.5612L1.05469 21.4395V15.6833ZM1.05469 23.9299L3.9015 26.7768L1.05469 29.6401V23.9299ZM4.63711 9.63886L2.47395 7.47563H6.77995L4.63711 9.63886ZM1.05469 34.6704V32.065L3.88561 34.9453H1.32961C1.17802 34.9453 1.05469 34.822 1.05469 34.6704ZM21.6089 34.9453L13.4876 26.8241L16.8372 23.4745L19.3975 26.0349C19.5005 26.1378 19.6355 26.1893 19.7704 26.1893C19.9053 26.1893 20.0403 26.1378 20.1433 26.0349C20.3492 25.8289 20.3492 25.495 20.1433 25.2891L13.4876 18.6332L16.8372 15.2835L28.2423 26.7524L24.9545 30.1004L21.8835 27.0293C21.6776 26.8234 21.3437 26.8234 21.1378 27.0293C20.9318 27.2353 20.9318 27.5692 21.1378 27.7751L28.3026 34.94C28.2854 34.9433 28.2677 34.9453 28.2494 34.9453H21.6089ZM28.5244 7.75055V9.14977L26.8848 7.47563H28.2495C28.401 7.47563 28.5244 7.59895 28.5244 7.75055Z" fill="#18332F"/>
</g>
</g>
<defs>
<clipPath id="clip0_2161_1102">
<rect width="36" height="36" fill="white"/>
</clipPath>
</defs>
</svg>
