<svg width="12" height="12" viewBox="0 0 12 12" fill="none" xmlns="http://www.w3.org/2000/svg">
<g id="Group">
<path id="Vector" d="M7.24938 3.74957H4.74969V2.25049H2.25V4.75018H3.74908V7.24987H2.25V9.74957H4.74969V8.25049H7.24938V9.74957H9.74908V7.24987H8.25V4.75018H9.74908V2.25049H7.24938V3.74957Z" fill="#BFCEC2"/>
<path id="Vector_2" d="M6.99938 0L5 0V1.99938H6.99938V0Z" fill="#BFCEC2"/>
<path id="Vector_3" d="M6.99938 10.0005H5V11.9999H6.99938V10.0005Z" fill="#BFCEC2"/>
<path id="Vector_4" d="M11.9994 4.99951H10V6.9989H11.9994V4.99951Z" fill="#BFCEC2"/>
<path id="Vector_5" d="M11.4987 0.749512H10.498V1.75013H11.4987V0.749512Z" fill="#BFCEC2"/>
<path id="Vector_6" d="M11.4987 10.25H10.498V11.2506H11.4987V10.25Z" fill="#BFCEC2"/>
<path id="Vector_7" d="M1.50062 10.25H0.5V11.2506H1.50062V10.25Z" fill="#BFCEC2"/>
<path id="Vector_8" d="M1.50062 0.749512H0.5V1.75013H1.50062V0.749512Z" fill="#BFCEC2"/>
<path id="Vector_9" d="M1.99938 4.99951H0L0 6.9989H1.99938V4.99951Z" fill="#BFCEC2"/>
</g>
</svg>
