<svg width="96" height="96" viewBox="0 0 96 96" fill="none" xmlns="http://www.w3.org/2000/svg">
<rect width="96" height="96" rx="48" fill="white"/>
<path d="M54.495 56.2201L57.855 52.8601C58.3075 52.4131 58.8801 52.1072 59.5031 51.9794C60.1262 51.8516 60.773 51.9074 61.365 52.1401L65.46 53.7751C66.0582 54.0179 66.5711 54.4323 66.9341 54.9662C67.2972 55.5001 67.494 56.1295 67.5 56.7751V64.2751C67.4965 64.7142 67.4042 65.1482 67.2286 65.5507C67.053 65.9533 66.7977 66.3161 66.4782 66.6174C66.1587 66.9187 65.7815 67.1522 65.3693 67.3039C64.9572 67.4556 64.5186 67.5223 64.08 67.5001C35.385 65.7151 29.595 41.4151 28.5 32.1151C28.4491 31.6584 28.4956 31.1961 28.6362 30.7586C28.7769 30.3212 29.0086 29.9185 29.3161 29.577C29.6235 29.2355 29.9998 28.963 30.4202 28.7774C30.8406 28.5917 31.2954 28.4972 31.755 28.5001H39C39.6465 28.502 40.2776 28.6973 40.8122 29.0608C41.3469 29.4243 41.7605 29.9395 42 30.5401L43.635 34.6351C43.8753 35.2247 43.9367 35.872 43.8113 36.4963C43.6859 37.1205 43.3794 37.694 42.93 38.1451L39.57 41.5051C39.57 41.5051 41.505 54.6001 54.495 56.2201Z" fill="#B49C86"/>
</svg>
