<svg width="44" height="44" viewBox="0 0 44 44" fill="none" xmlns="http://www.w3.org/2000/svg">
<path d="M37.2332 32.4646C34.661 35.2531 30.7688 36.6666 25.6667 36.6666H23.8333V31.4985L25.3073 31.2033C27.819 30.701 29.5662 29.7128 30.5012 28.2626C30.989 27.4814 31.2657 26.5869 31.3042 25.6666H25.6667C25.1804 25.6666 24.7141 25.4735 24.3703 25.1297C24.0265 24.7858 23.8333 24.3195 23.8333 23.8333V11C23.8333 8.97779 25.4778 7.33329 27.5 7.33329H38.5C38.9862 7.33329 39.4525 7.52645 39.7964 7.87026C40.1402 8.21408 40.3333 8.6804 40.3333 9.16663V18.3333L40.3278 23.6848C40.3443 23.8883 40.6927 28.71 37.2332 32.4646ZM7.33332 7.33329H18.3333C18.8196 7.33329 19.2859 7.52645 19.6297 7.87026C19.9735 8.21408 20.1667 8.6804 20.1667 9.16663V18.3333L20.1612 23.6848C20.1777 23.8883 20.526 28.71 17.0665 32.4646C14.4943 35.2531 10.6022 36.6666 5.49998 36.6666H3.66665V31.4985L5.14066 31.2033C7.65232 30.701 9.39948 29.7128 10.3345 28.2626C10.8223 27.4814 11.099 26.5869 11.1375 25.6666H5.49998C5.01376 25.6666 4.54744 25.4735 4.20362 25.1297C3.85981 24.7858 3.66665 24.3195 3.66665 23.8333V11C3.66665 8.97779 5.31115 7.33329 7.33332 7.33329Z" fill="white"/>
<path d="M33.2547 26.2003L33.2548 26.2003L33.2586 26.1942C33.7923 25.3396 34.095 24.361 34.1371 23.3542L34.1588 22.8334H33.6375H28C27.6464 22.8334 27.3072 22.6929 27.0572 22.4428C26.8071 22.1928 26.6667 21.8537 26.6667 21.5V8.66671C26.6667 6.92068 28.0873 5.50004 29.8333 5.50004H40.8333C41.187 5.50004 41.5261 5.64052 41.7761 5.89057C42.0262 6.14061 42.1667 6.47975 42.1667 6.83338V15.9998V16L42.1612 21.351L42.1611 21.3715L42.1628 21.3919C42.177 21.5668 42.5084 26.2004 39.199 29.7924C36.7509 32.4463 33.0129 33.8334 28 33.8334H26.6667V29.575L27.7387 29.3603C27.7388 29.3603 27.7388 29.3603 27.7388 29.3603C30.3187 28.8443 32.2172 27.8095 33.2547 26.2003ZM21.9945 21.351L21.9945 21.3715L21.9961 21.3919C22.0103 21.5668 22.3418 26.2006 19.0321 29.7926C16.584 32.4464 12.8461 33.8334 7.83333 33.8334H6.5V29.575L7.57206 29.3603C7.57209 29.3603 7.57214 29.3603 7.57217 29.3603C10.1521 28.8443 12.0505 27.8095 13.0881 26.2003L13.0881 26.2003L13.0919 26.1942C13.6256 25.3396 13.9283 24.361 13.9704 23.3542L13.9922 22.8334H13.4708H7.83333C7.47971 22.8334 7.14057 22.6929 6.89052 22.4428C6.64047 22.1928 6.5 21.8537 6.5 21.5V8.66671C6.5 6.92068 7.92064 5.50004 9.66666 5.50004H20.6667C21.0203 5.50004 21.3594 5.64052 21.6095 5.89057C21.8595 6.14061 22 6.47975 22 6.83338V15.9995V16L21.9945 21.351Z" stroke="#18332F"/>
</svg>
