<svg width="17" height="16" viewBox="0 0 17 16" fill="none" xmlns="http://www.w3.org/2000/svg">
<path d="M13.3333 6.66675C13.8638 6.66675 14.3725 6.87746 14.7475 7.25253C15.1226 7.62761 15.3333 8.13631 15.3333 8.66675V10.6667C15.3333 11.1972 15.1226 11.7059 14.7475 12.081C14.3725 12.456 13.8638 12.6667 13.3333 12.6667V13.3107C13.3333 14.0174 12.5093 14.4034 11.9667 13.9507L10.4253 12.6667H8.66665C8.13622 12.6667 7.62751 12.456 7.25244 12.081C6.87737 11.7059 6.66666 11.1972 6.66666 10.6667V8.66675C6.66666 8.13631 6.87737 7.62761 7.25244 7.25253C7.62751 6.87746 8.13622 6.66675 8.66665 6.66675H13.3333ZM11.3333 2.66675C11.8638 2.66675 12.3725 2.87746 12.7475 3.25253C13.1226 3.62761 13.3333 4.13631 13.3333 4.66675V5.33341H7.99999C7.29274 5.33341 6.61447 5.61437 6.11437 6.11446C5.61427 6.61456 5.33332 7.29284 5.33332 8.00008V10.6667C5.33332 11.3627 5.59999 11.9974 6.03732 12.4721L5.33332 13.0001C4.78399 13.4121 3.99999 13.0201 3.99999 12.3334V11.3334C3.46956 11.3334 2.96085 11.1227 2.58578 10.7476C2.2107 10.3726 1.99999 9.86385 1.99999 9.33341V4.66675C1.99999 4.13631 2.2107 3.62761 2.58578 3.25253C2.96085 2.87746 3.46956 2.66675 3.99999 2.66675H11.3333Z" fill="#18332F"/>
</svg>
