<svg width="16" height="17" viewBox="0 0 16 17" fill="none" xmlns="http://www.w3.org/2000/svg">
<g id="solar:calendar-bold">
<path id="Vector" d="M5.16665 2.16663C5.16665 2.03402 5.11397 1.90684 5.02021 1.81307C4.92644 1.7193 4.79926 1.66663 4.66665 1.66663C4.53404 1.66663 4.40687 1.7193 4.3131 1.81307C4.21933 1.90684 4.16665 2.03402 4.16665 2.16663V3.21996C3.20665 3.29663 2.57732 3.48463 2.11465 3.94796C1.65132 4.41063 1.46332 5.04063 1.38599 5.99996H14.614C14.5367 5.03996 14.3486 4.41063 13.8853 3.94796C13.4227 3.48463 12.7927 3.29663 11.8333 3.21929V2.16663C11.8333 2.03402 11.7806 1.90684 11.6869 1.81307C11.5931 1.7193 11.4659 1.66663 11.3333 1.66663C11.2007 1.66663 11.0735 1.7193 10.9798 1.81307C10.886 1.90684 10.8333 2.03402 10.8333 2.16663V3.17529C10.39 3.16663 9.89265 3.16663 9.33332 3.16663H6.66665C6.10732 3.16663 5.60999 3.16663 5.16665 3.17529V2.16663Z" fill="#BAB7B7"/>
<path id="Vector_2" fill-rule="evenodd" clip-rule="evenodd" d="M1.33337 8.5C1.33337 7.94067 1.33337 7.44333 1.34204 7H14.658C14.6667 7.44333 14.6667 7.94067 14.6667 8.5V9.83333C14.6667 12.3473 14.6667 13.6047 13.8854 14.3853C13.1047 15.1667 11.8474 15.1667 9.33337 15.1667H6.66671C4.15271 15.1667 2.89537 15.1667 2.11471 14.3853C1.33337 13.6047 1.33337 12.3473 1.33337 9.83333V8.5ZM11.3334 9.83333C11.5102 9.83333 11.6798 9.7631 11.8048 9.63807C11.9298 9.51305 12 9.34348 12 9.16667C12 8.98986 11.9298 8.82029 11.8048 8.69526C11.6798 8.57024 11.5102 8.5 11.3334 8.5C11.1566 8.5 10.987 8.57024 10.862 8.69526C10.7369 8.82029 10.6667 8.98986 10.6667 9.16667C10.6667 9.34348 10.7369 9.51305 10.862 9.63807C10.987 9.7631 11.1566 9.83333 11.3334 9.83333ZM11.3334 12.5C11.5102 12.5 11.6798 12.4298 11.8048 12.3047C11.9298 12.1797 12 12.0101 12 11.8333C12 11.6565 11.9298 11.487 11.8048 11.3619C11.6798 11.2369 11.5102 11.1667 11.3334 11.1667C11.1566 11.1667 10.987 11.2369 10.862 11.3619C10.7369 11.487 10.6667 11.6565 10.6667 11.8333C10.6667 12.0101 10.7369 12.1797 10.862 12.3047C10.987 12.4298 11.1566 12.5 11.3334 12.5ZM8.66671 9.16667C8.66671 9.34348 8.59647 9.51305 8.47144 9.63807C8.34642 9.7631 8.17685 9.83333 8.00004 9.83333C7.82323 9.83333 7.65366 9.7631 7.52864 9.63807C7.40361 9.51305 7.33337 9.34348 7.33337 9.16667C7.33337 8.98986 7.40361 8.82029 7.52864 8.69526C7.65366 8.57024 7.82323 8.5 8.00004 8.5C8.17685 8.5 8.34642 8.57024 8.47144 8.69526C8.59647 8.82029 8.66671 8.98986 8.66671 9.16667ZM8.66671 11.8333C8.66671 12.0101 8.59647 12.1797 8.47144 12.3047C8.34642 12.4298 8.17685 12.5 8.00004 12.5C7.82323 12.5 7.65366 12.4298 7.52864 12.3047C7.40361 12.1797 7.33337 12.0101 7.33337 11.8333C7.33337 11.6565 7.40361 11.487 7.52864 11.3619C7.65366 11.2369 7.82323 11.1667 8.00004 11.1667C8.17685 11.1667 8.34642 11.2369 8.47144 11.3619C8.59647 11.487 8.66671 11.6565 8.66671 11.8333ZM4.66671 9.83333C4.84352 9.83333 5.01309 9.7631 5.13811 9.63807C5.26314 9.51305 5.33337 9.34348 5.33337 9.16667C5.33337 8.98986 5.26314 8.82029 5.13811 8.69526C5.01309 8.57024 4.84352 8.5 4.66671 8.5C4.4899 8.5 4.32033 8.57024 4.1953 8.69526C4.07028 8.82029 4.00004 8.98986 4.00004 9.16667C4.00004 9.34348 4.07028 9.51305 4.1953 9.63807C4.32033 9.7631 4.4899 9.83333 4.66671 9.83333ZM4.66671 12.5C4.84352 12.5 5.01309 12.4298 5.13811 12.3047C5.26314 12.1797 5.33337 12.0101 5.33337 11.8333C5.33337 11.6565 5.26314 11.487 5.13811 11.3619C5.01309 11.2369 4.84352 11.1667 4.66671 11.1667C4.4899 11.1667 4.32033 11.2369 4.1953 11.3619C4.07028 11.487 4.00004 11.6565 4.00004 11.8333C4.00004 12.0101 4.07028 12.1797 4.1953 12.3047C4.32033 12.4298 4.4899 12.5 4.66671 12.5Z" fill="#BAB7B7"/>
</g>
</svg>
