<svg width="1276" height="145" viewBox="0 0 1276 145" fill="none" xmlns="http://www.w3.org/2000/svg">
<g opacity="0.12">
<path d="M119.208 101.772C119.208 114.412 114.153 124.313 104.003 131.444C93.8537 138.609 79.9813 142.157 62.3862 142.157H0V4.71313H59.9566C76.6896 4.71313 89.8958 7.88986 99.575 14.1757C109.254 20.4954 114.114 29.5186 114.114 41.2793C114.114 47.5313 112.154 53.1413 108.235 58.1092C104.317 63.077 98.7913 67.1662 91.6984 70.3767C100.594 73.0465 107.373 77.0343 112.115 82.3401C116.857 87.646 119.208 94.1008 119.208 101.772ZM57.2527 27.6937H30.6053V59.6637H57.2527C65.5212 59.6637 71.752 58.2105 75.9059 55.3718C80.0597 52.4992 82.1367 48.579 82.1367 43.6111C82.1367 38.6433 80.0597 34.892 75.9059 32.0195C71.752 29.1469 65.5604 27.7275 57.2527 27.7275M59.6823 82.8133H30.6053V119.177H59.6823C68.8522 119.177 75.7883 117.521 80.4516 114.209C85.1149 110.897 87.4269 106.368 87.4269 100.623C87.4269 94.8781 85.1149 90.7889 80.4516 87.6122C75.7883 84.4354 68.8522 82.8133 59.6823 82.8133Z" fill="#D9C3A9"/>
<path d="M171.797 92.5815V142.159H140.956V39.929H169.367V59.6652C173.795 53.1428 180.261 48.0397 188.687 44.3561C197.112 40.6724 206.086 38.8137 215.53 38.8137V66.3904C206.948 65.8835 199.346 66.2214 192.762 67.4381C186.179 68.6547 181.045 71.2569 177.322 75.2785C173.639 79.3001 171.758 85.079 171.758 92.6153" fill="#D9C3A9"/>
<path d="M302.095 142.159V129.519C298.255 134.25 293.356 137.833 287.439 140.334C281.522 142.834 274.507 144.051 266.356 144.051C254.051 144.051 244.176 141.178 236.613 135.433C229.05 129.688 225.288 122.017 225.288 112.453C225.288 102.889 229.873 94.9132 239.043 89.6749C248.212 84.4367 261.379 81.8345 278.543 81.8345C281.953 81.8345 285.205 81.9359 288.301 82.1049C291.397 82.3076 294.728 82.578 298.294 82.9835V76.8666C298.294 71.1215 296.53 66.6606 292.964 63.45C289.398 60.2733 284.382 58.6512 277.877 58.6512C271.372 58.6512 265.964 60.2395 262.124 63.45C258.283 66.6268 256.05 71.1215 255.462 76.8666H227.717C228.305 68.9586 230.774 62.0982 235.163 56.2855C239.513 50.4728 245.391 45.9781 252.719 42.8013C260.047 39.6246 268.433 38.0024 277.916 38.0024C293.474 38.0024 305.543 41.5171 314.204 48.5465C322.864 55.5758 327.175 65.3426 327.175 77.8467V142.159H302.095ZM254.365 111.743C254.365 115.967 256.011 119.347 259.342 121.882C262.672 124.45 267.218 125.7 272.979 125.7C280.816 125.7 287.008 123.943 291.514 120.428C296.021 116.914 298.294 112.216 298.294 106.37V99.1037C294.728 98.5968 291.554 98.2589 288.732 98.0561C285.911 97.8533 283.167 97.7519 280.503 97.7519C271.921 97.7519 265.416 98.901 260.987 101.199C256.559 103.497 254.326 107.012 254.326 111.743" fill="#D9C3A9"/>
<path d="M449.714 142.158H348.728V120.732L409.782 62.9086H348.493V39.928H447.95V61.7595L386.7 119.008H449.714V142.158Z" fill="#D9C3A9"/>
<path d="M507.005 16.2046C507.005 20.6655 505.124 24.4167 501.362 27.3907C497.6 30.3984 492.585 31.8854 486.393 31.8854C480.201 31.8854 475.42 30.3984 471.619 27.3907C467.857 24.3829 465.976 20.6655 465.976 16.2046C465.976 11.4733 467.857 7.62064 471.619 4.61289C475.381 1.60514 480.319 0.118164 486.393 0.118164C492.467 0.118164 497.6 1.60514 501.362 4.61289C505.124 7.62064 507.005 11.4733 507.005 16.2046ZM502.107 142.158H471.267V39.9286H502.107V142.158Z" fill="#D9C3A9"/>
<path d="M560.731 4.71313H529.656V142.157H560.731V4.71313Z" fill="#D9C3A9"/>
<path d="M671.279 142.157H637.539V4.71313H740.523V29.9918H671.279V64.6316H729.668V89.7075H671.279V142.157Z" fill="#D9C3A9"/>
<path d="M792.014 4.71313H760.939V142.157H792.014V4.71313Z" fill="#D9C3A9"/>
<path d="M872.192 144.084C863.61 144.084 855.655 142.732 848.327 140.063C840.999 137.393 834.65 133.608 829.242 128.775C823.835 123.909 819.602 118.265 816.585 111.844C813.567 105.389 812.039 98.461 812.039 91.0599C812.039 83.6588 813.567 76.5619 816.585 70.2085C819.602 63.8212 823.835 58.2112 829.242 53.3448C834.65 48.5121 840.999 44.727 848.327 42.0572C855.655 39.3874 863.61 38.0356 872.192 38.0356C880.774 38.0356 888.729 39.3874 896.057 42.0572C903.385 44.727 909.733 48.5121 915.141 53.3448C920.549 58.2112 924.742 63.8212 927.798 70.2085C930.816 76.5957 932.344 83.5575 932.344 91.0599C932.344 98.5624 930.816 105.389 927.798 111.844C924.781 118.299 920.549 123.942 915.141 128.775C909.733 133.642 903.385 137.393 896.057 140.063C888.729 142.732 880.774 144.084 872.192 144.084ZM872.192 120.529C877.364 120.529 882.106 119.38 886.417 117.082C890.727 114.784 894.137 111.438 896.723 107.045C899.309 102.652 900.602 97.312 900.602 91.0599C900.602 84.8079 899.309 79.3331 896.723 74.9735C894.137 70.6478 890.688 67.3359 886.417 65.1054C882.106 62.8749 877.404 61.7597 872.192 61.7597C866.98 61.7597 862.473 62.8749 858.084 65.1054C853.734 67.3359 850.247 70.614 847.66 74.9735C845.074 79.2993 843.781 84.6727 843.781 91.0599C843.781 97.4472 845.074 102.652 847.66 107.045C850.247 111.438 853.734 114.784 858.084 117.082C862.434 119.38 867.136 120.529 872.192 120.529Z" fill="#D9C3A9"/>
<path d="M1004.49 144.084C995.906 144.084 987.951 142.732 980.623 140.063C973.295 137.393 966.947 133.608 961.539 128.775C956.131 123.909 951.899 118.265 948.882 111.844C945.864 105.389 944.336 98.461 944.336 91.0599C944.336 83.6588 945.864 76.5619 948.882 70.2085C951.899 63.8212 956.131 58.2112 961.539 53.3448C966.947 48.5121 973.295 44.727 980.623 42.0572C987.951 39.3874 995.906 38.0356 1004.49 38.0356C1013.07 38.0356 1021.03 39.3874 1028.35 42.0572C1035.68 44.727 1042.03 48.5121 1047.44 53.3448C1052.85 58.2112 1057.04 63.8212 1060.1 70.2085C1063.11 76.5957 1064.64 83.5575 1064.64 91.0599C1064.64 98.5624 1063.11 105.389 1060.1 111.844C1057.08 118.299 1052.85 123.942 1047.44 128.775C1042.03 133.642 1035.68 137.393 1028.35 140.063C1021.03 142.732 1013.07 144.084 1004.49 144.084ZM1004.49 120.529C1009.66 120.529 1014.4 119.38 1018.71 117.082C1023.02 114.784 1026.43 111.438 1029.02 107.045C1031.61 102.652 1032.9 97.312 1032.9 91.0599C1032.9 84.8079 1031.61 79.3331 1029.02 74.9735C1026.43 70.6478 1022.98 67.3359 1018.71 65.1054C1014.4 62.8749 1009.7 61.7597 1004.49 61.7597C999.277 61.7597 994.77 62.8749 990.381 65.1054C986.031 67.3359 982.544 70.614 979.957 74.9735C977.371 79.2993 976.078 84.6727 976.078 91.0599C976.078 97.4472 977.371 102.652 979.957 107.045C982.544 111.438 986.031 114.784 990.381 117.082C994.731 119.38 999.433 120.529 1004.49 120.529Z" fill="#D9C3A9"/>
<path d="M1115.27 92.5795V142.157H1084.43V39.927H1112.84V59.6633C1117.27 53.1408 1123.74 48.0378 1132.16 44.3541C1140.59 40.6705 1149.56 38.8118 1159 38.8118V66.3885C1150.42 65.8815 1142.82 66.2195 1136.24 67.4361C1129.65 68.6527 1124.52 71.2549 1120.8 75.2765C1117.11 79.2981 1115.23 85.0771 1115.23 92.6133" fill="#D9C3A9"/>
<path d="M1275.08 109.444C1275.08 120.022 1270.53 128.471 1261.44 134.723C1252.35 140.975 1239.34 144.118 1222.49 144.118C1205.64 144.118 1192.71 140.84 1183.3 134.25C1173.9 127.694 1168.6 118.704 1167.43 107.349H1196.94C1197.09 112.587 1199.56 116.778 1204.38 119.887C1209.2 123.03 1215.36 124.584 1222.92 124.584C1228.99 124.584 1234.01 123.74 1238.01 122.016C1242 120.292 1244 117.656 1244 114.074C1244 110.897 1242.75 108.464 1240.24 106.808C1237.73 105.152 1233.58 103.868 1227.82 102.989L1206.5 99.5424C1195.84 97.8864 1187.49 94.5745 1181.42 89.5728C1175.35 84.605 1172.33 78.1502 1172.33 70.2421C1172.33 63.8549 1174.33 58.2449 1178.32 53.3784C1182.32 48.5458 1187.92 44.7607 1195.21 42.0909C1202.46 39.4211 1210.97 38.0693 1220.72 38.0693C1230.48 38.0693 1239.42 39.4887 1247.02 42.3613C1254.62 45.2339 1260.7 49.3569 1265.24 54.6965C1269.75 60.0699 1272.37 66.3895 1273.12 73.6554H1243.61C1243.18 68.6876 1240.87 64.7674 1236.71 61.8948C1232.56 59.0222 1227.23 57.6028 1220.72 57.6028C1215.08 57.6028 1210.54 58.4477 1207.09 60.1712C1203.6 61.8948 1201.87 64.4294 1201.87 67.7413C1201.87 70.8166 1203.13 73.0809 1205.64 74.5341C1208.14 75.9873 1212.06 77.1701 1217.39 78.0826L1240.24 81.7324C1251.8 83.6587 1260.46 86.9031 1266.34 91.4992C1272.18 96.0953 1275.12 102.077 1275.12 109.478" fill="#D9C3A9"/>
</g>
</svg>
