<svg width="24" height="24" viewBox="0 0 24 24" fill="none" xmlns="http://www.w3.org/2000/svg">
<g id="fluent:checkmark-circle-16-filled">
<circle id="Ellipse 10" cx="12" cy="12" r="9" fill="white"/>
<path id="Vector" d="M12 3C13.1819 3 14.3522 3.23279 15.4442 3.68508C16.5361 4.13738 17.5282 4.80031 18.364 5.63604C19.1997 6.47177 19.8626 7.46392 20.3149 8.55585C20.7672 9.64778 21 10.8181 21 12C21 13.1819 20.7672 14.3522 20.3149 15.4442C19.8626 16.5361 19.1997 17.5282 18.364 18.364C17.5282 19.1997 16.5361 19.8626 15.4442 20.3149C14.3522 20.7672 13.1819 21 12 21C9.61305 21 7.32387 20.0518 5.63604 18.364C3.94821 16.6761 3 14.3869 3 12C3 9.61305 3.94821 7.32387 5.63604 5.63604C7.32387 3.94821 9.61305 3 12 3ZM15.18 9.246L10.875 13.563L8.781 11.469C8.71127 11.3993 8.62848 11.344 8.53738 11.3062C8.44627 11.2685 8.34862 11.2491 8.25 11.2491C8.15138 11.2491 8.05373 11.2685 7.96262 11.3062C7.87152 11.344 7.78873 11.3993 7.719 11.469C7.64927 11.5387 7.59395 11.6215 7.55621 11.7126C7.51848 11.8037 7.49905 11.9014 7.49905 12C7.49905 12.0986 7.51848 12.1963 7.55621 12.2874C7.59395 12.3785 7.64927 12.4613 7.719 12.531L10.344 15.156C10.4137 15.2258 10.4964 15.2813 10.5875 15.3191C10.6787 15.3569 10.7763 15.3763 10.875 15.3763C10.9737 15.3763 11.0713 15.3569 11.1625 15.3191C11.2536 15.2813 11.3363 15.2258 11.406 15.156L16.242 10.305C16.3784 10.1634 16.4538 9.97379 16.4518 9.77714C16.4498 9.58049 16.3707 9.39248 16.2314 9.25362C16.0921 9.11475 15.9039 9.03614 15.7073 9.03472C15.5106 9.03329 15.3213 9.10917 15.18 9.246Z" fill="#B49C86"/>
</g>
</svg>
