<svg width="20" height="20" viewBox="0 0 20 20" fill="none" xmlns="http://www.w3.org/2000/svg">
<circle cx="10" cy="10" r="7.5" fill="#18332F"/>
<path d="M10 2.5C10.9849 2.5 11.9602 2.69399 12.8701 3.0709C13.7801 3.44781 14.6069 4.00026 15.3033 4.6967C15.9997 5.39314 16.5522 6.21993 16.9291 7.12987C17.306 8.03982 17.5 9.01509 17.5 10C17.5 10.9849 17.306 11.9602 16.9291 12.8701C16.5522 13.7801 15.9997 14.6069 15.3033 15.3033C14.6069 15.9997 13.7801 16.5522 12.8701 16.9291C11.9602 17.306 10.9849 17.5 10 17.5C8.01088 17.5 6.10322 16.7098 4.6967 15.3033C3.29018 13.8968 2.5 11.9891 2.5 10C2.5 8.01088 3.29018 6.10322 4.6967 4.6967C6.10322 3.29018 8.01088 2.5 10 2.5ZM12.65 7.705L9.0625 11.3025L7.3175 9.5575C7.25939 9.49939 7.1904 9.45329 7.11448 9.42185C7.03856 9.3904 6.95718 9.37421 6.875 9.37421C6.79282 9.37421 6.71144 9.3904 6.63552 9.42185C6.5596 9.45329 6.49061 9.49939 6.4325 9.5575C6.37439 9.61561 6.32829 9.6846 6.29685 9.76052C6.2654 9.83644 6.24921 9.91782 6.24921 10C6.24921 10.0822 6.2654 10.1636 6.29685 10.2395C6.32829 10.3154 6.37439 10.3844 6.4325 10.4425L8.62 12.63C8.67806 12.6882 8.74703 12.7344 8.82296 12.7659C8.89889 12.7974 8.98029 12.8136 9.0625 12.8136C9.14471 12.8136 9.22611 12.7974 9.30204 12.7659C9.37797 12.7344 9.44694 12.6882 9.505 12.63L13.535 8.5875C13.6487 8.46946 13.7115 8.3115 13.7098 8.14762C13.7082 7.98374 13.6422 7.82707 13.5262 7.71135C13.4101 7.59563 13.2533 7.53012 13.0894 7.52893C12.9255 7.52774 12.7677 7.59097 12.65 7.705Z" fill="white"/>
</svg>
