<svg width="18" height="18" viewBox="0 0 18 18" fill="none" xmlns="http://www.w3.org/2000/svg">
<path d="M9 0C10.1819 -1.76116e-08 11.3522 0.232792 12.4442 0.685084C13.5361 1.13738 14.5282 1.80031 15.364 2.63604C16.1997 3.47177 16.8626 4.46392 17.3149 5.55585C17.7672 6.64778 18 7.8181 18 9C18 10.1819 17.7672 11.3522 17.3149 12.4442C16.8626 13.5361 16.1997 14.5282 15.364 15.364C14.5282 16.1997 13.5361 16.8626 12.4442 17.3149C11.3522 17.7672 10.1819 18 9 18C6.61305 18 4.32387 17.0518 2.63604 15.364C0.948211 13.6761 0 11.3869 0 9C0 6.61305 0.948211 4.32387 2.63604 2.63604C4.32387 0.948211 6.61305 3.55683e-08 9 0ZM12.18 6.246L7.875 10.563L5.781 8.469C5.71127 8.39927 5.62848 8.34395 5.53738 8.30622C5.44627 8.26848 5.34862 8.24905 5.25 8.24905C5.15138 8.24905 5.05373 8.26848 4.96262 8.30622C4.87152 8.34395 4.78873 8.39927 4.719 8.469C4.64927 8.53873 4.59395 8.62152 4.55621 8.71262C4.51848 8.80373 4.49905 8.90138 4.49905 9C4.49905 9.09862 4.51848 9.19627 4.55621 9.28738C4.59395 9.37848 4.64927 9.46127 4.719 9.531L7.344 12.156C7.41367 12.2258 7.49643 12.2813 7.58755 12.3191C7.67867 12.3569 7.77635 12.3763 7.875 12.3763C7.97365 12.3763 8.07133 12.3569 8.16245 12.3191C8.25357 12.2813 8.33633 12.2258 8.406 12.156L13.242 7.305C13.3784 7.16336 13.4538 6.97379 13.4518 6.77714C13.4498 6.58049 13.3707 6.39248 13.2314 6.25362C13.0921 6.11475 12.9039 6.03614 12.7073 6.03472C12.5106 6.03329 12.3213 6.10917 12.18 6.246Z" fill="#18332F"/>
</svg>
