<svg width="21" height="20" viewBox="0 0 21 20" fill="none" xmlns="http://www.w3.org/2000/svg">
<g id="mingcute:comment-fill" clip-path="url(#clip0_2228_2117)">
<g id="Group">
<path id="Vector" d="M16.3327 8.33325C16.9957 8.33325 17.6316 8.59664 18.1004 9.06549C18.5693 9.53433 18.8327 10.1702 18.8327 10.8333V13.3333C18.8327 13.9963 18.5693 14.6322 18.1004 15.101C17.6316 15.5699 16.9957 15.8333 16.3327 15.8333V16.6383C16.3327 17.5216 15.3027 18.0041 14.6243 17.4383L12.6977 15.8333H10.4993C9.83631 15.8333 9.20042 15.5699 8.73158 15.101C8.26274 14.6322 7.99935 13.9963 7.99935 13.3333V10.8333C7.99935 10.1702 8.26274 9.53433 8.73158 9.06549C9.20042 8.59664 9.83631 8.33325 10.4993 8.33325H16.3327ZM13.8327 3.33325C14.4957 3.33325 15.1316 3.59664 15.6004 4.06549C16.0693 4.53433 16.3327 5.17021 16.3327 5.83325V6.66659H9.66602C8.78196 6.66659 7.93411 7.01777 7.30899 7.6429C6.68387 8.26802 6.33268 9.11586 6.33268 9.99992V13.3333C6.33268 14.2033 6.66602 14.9966 7.21268 15.5899L6.33268 16.2499C5.64602 16.7649 4.66602 16.2749 4.66602 15.4166V14.1666C4.00297 14.1666 3.36709 13.9032 2.89825 13.4344C2.42941 12.9655 2.16602 12.3296 2.16602 11.6666V5.83325C2.16602 5.17021 2.42941 4.53433 2.89825 4.06549C3.36709 3.59664 4.00297 3.33325 4.66602 3.33325H13.8327Z" fill="#18332F"/>
</g>
</g>
<defs>
<clipPath id="clip0_2228_2117">
<rect width="20" height="20" fill="white" transform="translate(0.5)"/>
</clipPath>
</defs>
</svg>
