<svg width="16" height="17" viewBox="0 0 16 17" fill="none" xmlns="http://www.w3.org/2000/svg">
<g id="carbon:phone-filled">
<path id="Vector" d="M10.1648 11.24L11.2848 10.12C11.4357 9.97104 11.6265 9.86906 11.8342 9.82646C12.0419 9.78385 12.2575 9.80246 12.4548 9.88002L13.8198 10.425C14.0192 10.506 14.1902 10.6441 14.3112 10.8221C14.4322 11 14.4979 11.2098 14.4998 11.425V13.925C14.4987 14.0714 14.4679 14.2161 14.4094 14.3502C14.3508 14.4844 14.2657 14.6054 14.1592 14.7058C14.0527 14.8062 13.927 14.8841 13.7896 14.9346C13.6522 14.9852 13.506 15.0074 13.3598 15C3.79482 14.405 1.86482 6.30502 1.49982 3.20502C1.48288 3.05279 1.49836 2.89869 1.54525 2.75288C1.59213 2.60706 1.66936 2.47282 1.77186 2.35899C1.87435 2.24516 1.99978 2.15432 2.1399 2.09245C2.28002 2.03058 2.43165 1.99908 2.58482 2.00002H4.99982C5.21533 2.00066 5.42571 2.06575 5.60392 2.18694C5.78213 2.30812 5.92001 2.47984 5.99982 2.68002L6.54482 4.04502C6.62495 4.24155 6.64539 4.45734 6.6036 4.66543C6.5618 4.87351 6.45962 5.06467 6.30982 5.21502L5.18982 6.33502C5.18982 6.33502 5.83482 10.7 10.1648 11.24Z" fill="#BAB7B7"/>
</g>
</svg>
