<svg width="16" height="17" viewBox="0 0 16 17" fill="none" xmlns="http://www.w3.org/2000/svg">
<path d="M12.1933 7.13116C12.1352 7.07258 12.066 7.02609 11.9899 6.99436C11.9137 6.96263 11.832 6.94629 11.7495 6.94629C11.667 6.94629 11.5853 6.96263 11.5092 6.99436C11.433 7.02609 11.3639 7.07258 11.3058 7.13116L8.44327 9.99366C8.38517 10.0522 8.31604 10.0987 8.23988 10.1305C8.16372 10.1622 8.08203 10.1785 7.99952 10.1785C7.91701 10.1785 7.83532 10.1622 7.75916 10.1305C7.683 10.0987 7.61387 10.0522 7.55577 9.99366L4.69327 7.13116C4.63517 7.07258 4.56604 7.02609 4.48988 6.99436C4.41372 6.96263 4.33203 6.94629 4.24952 6.94629C4.16701 6.94629 4.08532 6.96263 4.00916 6.99436C3.933 7.02609 3.86387 7.07258 3.80577 7.13116C3.68936 7.24826 3.62402 7.40667 3.62402 7.57179C3.62402 7.7369 3.68936 7.89531 3.80577 8.01241L6.67452 10.8812C7.02608 11.2323 7.50264 11.4295 7.99952 11.4295C8.4964 11.4295 8.97296 11.2323 9.32452 10.8812L12.1933 8.01241C12.3097 7.89531 12.375 7.7369 12.375 7.57179C12.375 7.40667 12.3097 7.24826 12.1933 7.13116Z" fill="#fff"/>
</svg>
