<svg width="32" height="32" viewBox="0 0 32 32" fill="none" xmlns="http://www.w3.org/2000/svg">
<g id="download-to-storage-drive 1">
<g id="Group">
<g id="Group_2">
<path id="Vector" d="M31.4615 21.462C31.1029 21.1032 30.6667 20.9236 30.1541 20.9236H21.2307L18.6154 23.5389C17.8718 24.2567 17 24.6158 16 24.6158C15.0002 24.6158 14.1282 24.2572 13.3847 23.5389L10.7885 20.9236H1.84613C1.33341 20.9236 0.897539 21.1034 0.538456 21.462C0.17944 21.8209 0 22.2569 0 22.7699V28.9236C0 29.4364 0.17944 29.8723 0.538456 30.2312C0.897471 30.5901 1.33334 30.7694 1.84613 30.7694H30.1542C30.6668 30.7694 31.103 30.5901 31.4616 30.2312C31.8208 29.8723 32.0001 29.4364 32.0001 28.9236V22.7699C32.0001 22.2569 31.8208 21.8209 31.4615 21.462ZM24.2504 27.9428C24.0065 28.1864 23.7179 28.3081 23.3846 28.3081C23.0512 28.3081 22.7631 28.1864 22.5192 27.9428C22.2758 27.6991 22.1541 27.4108 22.1541 27.0776C22.1541 26.7444 22.2758 26.4555 22.5192 26.2123C22.7631 25.9685 23.0512 25.8465 23.3846 25.8465C23.7179 25.8465 24.0064 25.9685 24.2504 26.2123C24.4937 26.4555 24.6155 26.7443 24.6155 27.0776C24.6155 27.4107 24.4937 27.6991 24.2504 27.9428ZM29.1731 27.9428C28.9297 28.1864 28.6411 28.3081 28.3077 28.3081C27.9744 28.3081 27.6861 28.1864 27.4424 27.9428C27.199 27.6991 27.0773 27.4108 27.0773 27.0776C27.0773 26.7444 27.199 26.4555 27.4424 26.2123C27.686 25.9685 27.9744 25.8465 28.3077 25.8465C28.6411 25.8465 28.9296 25.9685 29.1731 26.2123C29.4168 26.4555 29.5387 26.7443 29.5387 27.0776C29.5387 27.4107 29.417 27.6991 29.1731 27.9428Z" fill="white"/>
<path id="Vector_2" d="M15.1349 21.7888C15.3658 22.0322 15.6543 22.154 16.0003 22.154C16.3466 22.154 16.6346 22.0322 16.8656 21.7888L25.4811 13.1733C25.8784 12.8015 25.9684 12.3527 25.7503 11.8271C25.5328 11.3272 25.1544 11.0772 24.6158 11.077H19.6925V2.46154C19.6925 2.12825 19.5706 1.83976 19.3274 1.59619C19.0836 1.35256 18.7952 1.23071 18.4621 1.23071H13.5385C13.2053 1.23071 12.9168 1.35256 12.6731 1.59619C12.4296 1.83976 12.3078 2.12818 12.3078 2.46154V11.077H7.3847C6.84598 11.077 6.46797 11.3273 6.25 11.8271C6.03217 12.3526 6.12182 12.8016 6.51936 13.1733L15.1349 21.7888Z" fill="white"/>
</g>
</g>
</g>
</svg>
