<svg width="24" height="24" viewBox="0 0 24 24" fill="none" xmlns="http://www.w3.org/2000/svg">
<g clip-path="url(#clip0_2451_13536)">
<rect x="2" y="3" width="19" height="19" fill="white"/>
<path d="M22.0805 0H2.05071C0.956248 0 0 0.7875 0 1.86911V21.9429C0 23.0309 0.956248 24 2.05071 24H22.0746C23.175 24 24 23.025 24 21.9434V1.86911C24.0064 0.7875 23.175 0 22.0805 0ZM13.1786 19.0179H7.62427L5.39731 5.70214L10.2589 5.24036L11.4375 14.7155C12.5373 12.9236 13.8953 10.1084 13.8953 8.18679C13.8953 7.13571 13.7153 6.41893 13.4341 5.82964L17.8607 4.93393C18.3728 5.77929 18.6032 6.64821 18.6032 7.75018C18.6026 11.2591 15.6075 15.8175 13.1786 19.0179Z" fill="#0A8CFF"/>
</g>
<defs>
<clipPath id="clip0_2451_13536">
<rect width="24" height="24" rx="2" fill="white"/>
</clipPath>
</defs>
</svg>
