<svg width="24" height="24" viewBox="0 0 24 24" fill="none" xmlns="http://www.w3.org/2000/svg">
<rect width="24" height="24" rx="2" fill="white"/>
<g clip-path="url(#clip0_2451_13542)">
<path d="M4 11.9749V19.6447C4 19.827 4.14783 19.9749 4.3302 19.9749H19.6698C19.8522 19.9749 20 19.8269 20 19.6447V11.9749H4Z" fill="#DBAD5C"/>
<path d="M4 10.625H20V18.625H4V10.625Z" fill="#EDC472"/>
<path d="M4 9.27539H20V17.2754H4V9.27539Z" fill="#FFDE91"/>
<path d="M20 8.25574V15.9255H4V8.25574C4 8.07336 4.14783 7.92554 4.3302 7.92554H19.6698C19.8522 7.92554 20 8.07336 20 8.25574Z" fill="#FFE89C"/>
<path d="M20 8.25574V14.8038H6.15173C5.72327 14.8038 5.37585 14.4564 5.37585 14.028V7.92554H19.6698C19.8522 7.92554 20 8.07336 20 8.25574Z" fill="#FCF2B6"/>
<path d="M6.12304 11.0043C6.12304 10.6726 6.39404 10.5607 6.72839 10.5607C6.90344 10.5607 7.07641 10.5884 7.29187 10.7117C7.54565 10.8566 7.69555 10.5916 7.69555 10.4379C7.69555 10.1478 7.19336 10.0531 6.90234 10.0295V9.49109C6.90234 9.35461 6.79174 9.24414 6.65539 9.24414C6.51904 9.24414 6.40844 9.35461 6.40844 9.49109V10.051C5.37329 10.2328 5.44189 11.2461 5.67212 11.5793C6.13928 12.2566 7.19726 12.0625 7.19726 12.8296C7.19726 13.2157 6.94641 13.3744 6.57678 13.3744C6.31469 13.3744 6.11657 13.3052 5.88635 13.0544C5.76074 12.9181 5.61328 12.9465 5.51696 13.0764C5.23559 13.4557 5.83032 13.8668 6.40844 13.9242V14.3811C6.40844 14.5175 6.51904 14.6281 6.65539 14.6281C6.79174 14.6281 6.90234 14.5175 6.90234 14.3811V13.9066C7.48315 13.7999 7.78662 13.3798 7.78662 12.7892C7.78662 11.3624 6.12304 11.7688 6.12304 11.0043Z" fill="#51BE26"/>
<path d="M14.3374 9.75244H8.80664C8.67017 9.75244 8.55969 9.86304 8.55969 9.99939C8.55969 10.1357 8.67017 10.2463 8.80664 10.2463H14.3374C14.4739 10.2463 14.5844 10.1357 14.5844 9.99939C14.5844 9.86304 14.4739 9.75244 14.3374 9.75244Z" fill="#51BE26"/>
<path d="M13.679 11.1023H8.80664C8.67017 11.1023 8.55969 11.2128 8.55969 11.3491C8.55969 11.4856 8.67017 11.5961 8.80664 11.5961H13.679C13.8154 11.5961 13.9259 11.4856 13.9259 11.3491C13.9259 11.2128 13.8154 11.1023 13.679 11.1023Z" fill="#51BE26"/>
<path d="M13.1194 13.802H8.80664C8.67017 13.802 8.55969 13.9125 8.55969 14.0488C8.55969 14.1853 8.67017 14.2958 8.80664 14.2958H13.1194C13.2557 14.2958 13.3662 14.1853 13.3662 14.0488C13.3662 13.9125 13.2557 13.802 13.1194 13.802Z" fill="#51BE26"/>
<path d="M18.4885 5.82151L17.0116 5.27353L17.2968 4.5051C17.4449 4.10557 17.8932 3.89988 18.2927 4.04819L18.3168 4.0571C18.7163 4.2053 18.9219 4.65354 18.7737 5.05308L18.4885 5.82151Z" fill="#51BE26"/>
<path d="M16.6006 6.37622L18.076 6.92371L15.4285 14.0585L13.953 13.5109L16.6006 6.37622Z" fill="#51BE26"/>
<path d="M13.9539 13.5107L13.9928 15.1949C13.9963 15.3481 14.1848 15.4188 14.2882 15.3058L15.4294 14.0582L13.9539 13.5107Z" fill="#ACDF91"/>
<path d="M17.0216 9.76807L15.5447 9.22009L17.0116 5.27344L18.4885 5.82141L17.0216 9.76807Z" fill="#ACDF91"/>
</g>
<defs>
<clipPath id="clip0_2451_13542">
<rect width="16" height="16" fill="white" transform="translate(4 4)"/>
</clipPath>
</defs>
</svg>
