<svg width="24" height="24" viewBox="0 0 24 24" fill="none" xmlns="http://www.w3.org/2000/svg">
<rect width="24" height="24" rx="2" fill="white"/>
<path d="M20.6484 17.128H3.35156C3.15739 17.128 3 16.9706 3 16.7764V7.2356C3 7.04143 3.15739 6.88403 3.35156 6.88403H20.6484C20.8426 6.88403 21 7.04143 21 7.2356V16.7764C21 16.9705 20.8426 17.128 20.6484 17.128Z" fill="#7FD061"/>
<path d="M19.9024 12.0061V13.8354C19.9024 14.2395 19.5748 14.5671 19.1707 14.5671C18.7666 14.5671 18.439 14.8947 18.439 15.2988C18.439 15.7029 18.1114 16.0305 17.7073 16.0305H12H6.29269C5.88856 16.0305 5.56098 15.7029 5.56098 15.2988C5.56098 14.8947 5.23339 14.5671 4.82927 14.5671C4.42515 14.5671 4.09756 14.2395 4.09756 13.8354V12.0061V10.1768C4.09756 9.77269 4.42515 9.4451 4.82927 9.4451C5.23339 9.4451 5.56098 9.11752 5.56098 8.7134C5.56098 8.30928 5.88856 7.98169 6.29269 7.98169H12H17.7073C18.1114 7.98169 18.439 8.30928 18.439 8.7134C18.439 9.11752 18.7666 9.4451 19.1707 9.4451C19.5748 9.4451 19.9024 9.77269 19.9024 10.1768V12.0061Z" fill="#ACDF91"/>
<path d="M20.2683 6.88403V17.1279H20.6378C20.8378 17.1279 21 16.9658 21 16.7658V7.24621C21 7.04617 20.8378 6.88403 20.6378 6.88403H20.2683Z" fill="#51BE26"/>
<path d="M12 14.5671C13.4144 14.5671 14.561 13.4205 14.561 12.0061C14.561 10.5917 13.4144 9.44507 12 9.44507C10.5856 9.44507 9.439 10.5917 9.439 12.0061C9.439 13.4205 10.5856 14.5671 12 14.5671Z" fill="#51BE26"/>
<path d="M16.2805 12.5549C16.5836 12.5549 16.8293 12.3092 16.8293 12.0061C16.8293 11.703 16.5836 11.4573 16.2805 11.4573C15.9774 11.4573 15.7317 11.703 15.7317 12.0061C15.7317 12.3092 15.9774 12.5549 16.2805 12.5549Z" fill="#51BE26"/>
<path d="M7.7195 12.5549C8.02259 12.5549 8.26829 12.3092 8.26829 12.0061C8.26829 11.703 8.02259 11.4573 7.7195 11.4573C7.41642 11.4573 7.17072 11.703 7.17072 12.0061C7.17072 12.3092 7.41642 12.5549 7.7195 12.5549Z" fill="#51BE26"/>
<path d="M16.7561 21.1159C19.1 21.1159 21 19.2159 21 16.8721C21 14.5282 19.1 12.6282 16.7561 12.6282C14.4123 12.6282 12.5122 14.5282 12.5122 16.8721C12.5122 19.2159 14.4123 21.1159 16.7561 21.1159Z" fill="#FCE25C"/>
<path d="M19.4537 13.5957C20.0582 14.329 20.4213 15.2688 20.4213 16.2933C20.4213 18.6371 18.5212 20.5372 16.1774 20.5372C15.1528 20.5372 14.2131 20.1741 13.4798 19.5696C14.2582 20.5139 15.4368 21.1159 16.7561 21.1159C19.0999 21.1159 21 19.2159 21 16.872C21 15.5527 20.398 14.3741 19.4537 13.5957Z" fill="#E6B700"/>
<path d="M16.7561 19.7013C18.3187 19.7013 19.5854 18.4346 19.5854 16.872C19.5854 15.3094 18.3187 14.0427 16.7561 14.0427C15.1936 14.0427 13.9268 15.3094 13.9268 16.872C13.9268 18.4346 15.1936 19.7013 16.7561 19.7013Z" fill="#E6B700"/>
<path d="M18.7317 12.2776H18C17.85 12.2776 17.7284 12.156 17.7284 12.006C17.7284 11.8559 17.85 11.7344 18 11.7344H18.7317C18.8818 11.7344 19.0033 11.856 19.0033 12.006C19.0033 12.156 18.8817 12.2776 18.7317 12.2776Z" fill="#51BE26"/>
<path d="M6.00003 12.2776H5.26829C5.11828 12.2776 4.99667 12.156 4.99667 12.006C4.99667 11.8559 5.11828 11.7344 5.26829 11.7344H6C6.15001 11.7344 6.27162 11.856 6.27162 12.006C6.27165 12.156 6.15004 12.2776 6.00003 12.2776Z" fill="#51BE26"/>
<path d="M12.1829 11.7344H11.8171C11.6643 11.7344 11.5399 11.6101 11.5399 11.4573C11.5399 11.3044 11.6643 11.1801 11.8171 11.1801H12.7317C12.8818 11.1801 13.0033 11.0585 13.0033 10.9085C13.0033 10.7585 12.8817 10.6369 12.7317 10.6369H12.2716V10.3598C12.2716 10.2097 12.15 10.0881 12 10.0881C11.85 10.0881 11.7284 10.2097 11.7284 10.3598V10.6418C11.3176 10.6861 10.9967 11.0349 10.9967 11.4573C10.9967 11.9097 11.3647 12.2777 11.8171 12.2777H12.1829C12.3357 12.2777 12.4601 12.402 12.4601 12.5548C12.4601 12.7077 12.3357 12.832 12.1829 12.832H11.2683C11.1183 12.832 10.9967 12.9536 10.9967 13.1036C10.9967 13.2536 11.1183 13.3752 11.2683 13.3752H11.7284V13.6523C11.7284 13.8024 11.85 13.924 12 13.924C12.15 13.924 12.2716 13.8024 12.2716 13.6523V13.3703C12.6824 13.3259 13.0033 12.9772 13.0033 12.5548C13.0033 12.1024 12.6353 11.7344 12.1829 11.7344Z" fill="#ACDF91"/>
<path d="M16.949 16.6003H16.5632C16.3939 16.6003 16.2561 16.4625 16.2561 16.2932C16.2561 16.1239 16.3939 15.9862 16.5632 15.9862H17.5277C17.6778 15.9862 17.7993 15.8646 17.7993 15.7145C17.7993 15.5645 17.6777 15.4429 17.5277 15.4429H17.0278V15.1359C17.0278 14.9858 16.9062 14.8643 16.7562 14.8643C16.6061 14.8643 16.4845 14.9859 16.4845 15.1359V15.4467C16.0524 15.4866 15.7129 15.851 15.7129 16.2933C15.7129 16.7621 16.0944 17.1436 16.5633 17.1436H16.9491C17.1184 17.1436 17.2561 17.2814 17.2561 17.4507C17.2561 17.62 17.1183 17.7578 16.9491 17.7578H15.9845C15.8345 17.7578 15.7129 17.8794 15.7129 18.0294C15.7129 18.1794 15.8345 18.301 15.9845 18.301H16.4845V18.608C16.4845 18.7581 16.6061 18.8797 16.7561 18.8797C16.9061 18.8797 17.0277 18.7581 17.0277 18.608V18.2972C17.4598 18.2573 17.7993 17.8929 17.7993 17.4506C17.7993 16.9818 17.4179 16.6003 16.949 16.6003Z" fill="#FCE25C"/>
</svg>
