<svg width="20" height="20" viewBox="0 0 20 20" fill="none" xmlns="http://www.w3.org/2000/svg">
<g id="mingcute:send-plane-fill" clip-path="url(#clip0_2165_2708)">
<g id="Group">
<path id="Vector" d="M17.8609 4.05086L12.8609 16.9675C12.8115 17.0955 12.7312 17.2092 12.6272 17.2987C12.5233 17.3881 12.3988 17.4506 12.2649 17.4804C12.1311 17.5102 11.9919 17.5066 11.8598 17.4697C11.7277 17.4329 11.6067 17.364 11.5076 17.2692L8.68925 14.5734L6.96091 16.3009C6.90259 16.359 6.82836 16.3986 6.74758 16.4145C6.66679 16.4305 6.58309 16.4222 6.50703 16.3906C6.43098 16.3591 6.36598 16.3057 6.32025 16.2372C6.27451 16.1687 6.2501 16.0882 6.25008 16.0059V12.24L1.92425 8.10253C1.81692 7.99985 1.73898 7.87034 1.69851 7.72742C1.65805 7.5845 1.65652 7.43336 1.69408 7.28965C1.73164 7.14594 1.80694 7.01488 1.91216 6.91004C2.01739 6.8052 2.14873 6.73039 2.29258 6.69336L16.8759 2.94336C17.0242 2.90538 17.18 2.90897 17.3264 2.95372C17.4728 2.99848 17.604 3.08268 17.7056 3.19708C17.8073 3.31149 17.8755 3.45168 17.9027 3.60229C17.93 3.75289 17.9152 3.90809 17.8601 4.05086H17.8609ZM15.8334 5.00086L6.69341 10.96L8.13925 12.3434L15.8334 5.00086Z" fill="white"/>
</g>
</g>
<defs>
<clipPath id="clip0_2165_2708">
<rect width="20" height="20" fill="white"/>
</clipPath>
</defs>
</svg>
