<svg width="20" height="20" viewBox="0 0 20 20" fill="none" xmlns="http://www.w3.org/2000/svg">
<g id="fluent:location-28-filled">
<path id="Vector" d="M9.99993 1.60712C11.847 1.60712 13.6184 2.34085 14.9244 3.64691C16.2305 4.95297 16.9642 6.72436 16.9642 8.5714C16.9642 11.5143 14.8964 14.7214 10.8142 18.2271C10.5872 18.4221 10.2978 18.5292 9.99859 18.5289C9.69936 18.5287 9.41014 18.4211 9.1835 18.2257L8.9135 17.9914C5.01207 14.5771 3.03564 11.4485 3.03564 8.5714C3.03564 6.72436 3.76938 4.95297 5.07544 3.64691C6.38149 2.34085 8.15289 1.60712 9.99993 1.60712ZM9.99993 5.89283C9.28953 5.89283 8.60822 6.17504 8.10589 6.67737C7.60356 7.1797 7.32136 7.861 7.32136 8.5714C7.32136 9.2818 7.60356 9.96311 8.10589 10.4654C8.60822 10.9678 9.28953 11.25 9.99993 11.25C10.7103 11.25 11.3916 10.9678 11.894 10.4654C12.3963 9.96311 12.6785 9.2818 12.6785 8.5714C12.6785 7.861 12.3963 7.1797 11.894 6.67737C11.3916 6.17504 10.7103 5.89283 9.99993 5.89283Z" fill="white"/>
</g>
</svg>
