<svg width="16" height="17" viewBox="0 0 16 17" fill="none" xmlns="http://www.w3.org/2000/svg">
<g id="ic:round-home-repair-service">
<path id="Vector" d="M11.3335 11.1666C10.9668 11.1666 10.6668 10.8666 10.6668 10.5H5.3335C5.3335 10.8666 5.0335 11.1666 4.66683 11.1666C4.30016 11.1666 4.00016 10.8666 4.00016 10.5H1.3335V12.5C1.3335 13.2333 1.9335 13.8333 2.66683 13.8333H13.3335C14.0668 13.8333 14.6668 13.2333 14.6668 12.5V10.5H12.0002C12.0002 10.8666 11.7002 11.1666 11.3335 11.1666ZM13.3335 5.83329H11.3335V4.49996C11.3335 3.76663 10.7335 3.16663 10.0002 3.16663H6.00016C5.26683 3.16663 4.66683 3.76663 4.66683 4.49996V5.83329H2.66683C1.9335 5.83329 1.3335 6.43329 1.3335 7.16663V9.83329H4.00016V9.16663C4.00016 8.79996 4.30016 8.49996 4.66683 8.49996C5.0335 8.49996 5.3335 8.79996 5.3335 9.16663V9.83329H10.6668V9.16663C10.6668 8.79996 10.9668 8.49996 11.3335 8.49996C11.7002 8.49996 12.0002 8.79996 12.0002 9.16663V9.83329H14.6668V7.16663C14.6668 6.43329 14.0668 5.83329 13.3335 5.83329ZM10.0002 5.83329H6.00016V4.49996H10.0002V5.83329Z" fill="#BAB7B7"/>
</g>
</svg>
