<svg width="20" height="20" viewBox="0 0 20 20" fill="none" xmlns="http://www.w3.org/2000/svg">
<path d="M10.8567 1.6665C11.7942 1.669 12.27 1.674 12.6808 1.68567L12.8425 1.6915C13.0292 1.69817 13.2133 1.7065 13.4358 1.7165C14.3225 1.75817 14.9275 1.89817 15.4583 2.104C16.0083 2.31567 16.4717 2.60234 16.935 3.06484C17.3588 3.48142 17.6866 3.98533 17.8958 4.5415C18.1017 5.07234 18.2417 5.67734 18.2833 6.56484C18.2933 6.7865 18.3017 6.97067 18.3083 7.15817L18.3133 7.31984C18.3258 7.72984 18.3308 8.20567 18.3325 9.14317L18.3333 9.76484V10.8565C18.3354 11.4643 18.329 12.0722 18.3142 12.6798L18.3092 12.8415C18.3025 13.029 18.2942 13.2132 18.2842 13.4348C18.2425 14.3223 18.1008 14.9265 17.8958 15.4582C17.6872 16.0147 17.3593 16.5187 16.935 16.9348C16.5183 17.3584 16.0144 17.6863 15.4583 17.8957C14.9275 18.1015 14.3225 18.2415 13.4358 18.2832C13.2381 18.2925 13.0403 18.3008 12.8425 18.3082L12.6808 18.3132C12.27 18.3248 11.7942 18.3307 10.8567 18.3323L10.235 18.3332H9.14418C8.53606 18.3353 7.92795 18.3289 7.32001 18.314L7.15835 18.309C6.96052 18.3015 6.76274 18.2929 6.56501 18.2832C5.67835 18.2415 5.07335 18.1015 4.54168 17.8957C3.98557 17.6868 3.48186 17.3589 3.06585 16.9348C2.64172 16.5184 2.31353 16.0145 2.10418 15.4582C1.89835 14.9273 1.75835 14.3223 1.71668 13.4348C1.7074 13.2371 1.69906 13.0393 1.69168 12.8415L1.68751 12.6798C1.67216 12.0722 1.66521 11.4643 1.66668 10.8565V9.14317C1.66435 8.53534 1.67047 7.9275 1.68501 7.31984L1.69085 7.15817C1.69751 6.97067 1.70585 6.7865 1.71585 6.56484C1.75751 5.67734 1.89751 5.07317 2.10335 4.5415C2.31261 3.98476 2.64145 3.48069 3.06668 3.06484C3.48259 2.64107 3.98597 2.31316 4.54168 2.104C5.07335 1.89817 5.67751 1.75817 6.56501 1.7165C6.78668 1.7065 6.97168 1.69817 7.15835 1.6915L7.32001 1.6865C7.92767 1.6717 8.53551 1.66531 9.14335 1.66734L10.8567 1.6665ZM10 5.83317C8.89494 5.83317 7.83514 6.27216 7.05373 7.05356C6.27233 7.83496 5.83335 8.89477 5.83335 9.99984C5.83335 11.1049 6.27233 12.1647 7.05373 12.9461C7.83514 13.7275 8.89494 14.1665 10 14.1665C11.1051 14.1665 12.1649 13.7275 12.9463 12.9461C13.7277 12.1647 14.1667 11.1049 14.1667 9.99984C14.1667 8.89477 13.7277 7.83496 12.9463 7.05356C12.1649 6.27216 11.1051 5.83317 10 5.83317ZM10 7.49984C10.3283 7.49978 10.6534 7.56439 10.9568 7.68998C11.2601 7.81557 11.5357 7.99967 11.7679 8.23178C12.0001 8.46388 12.1843 8.73945 12.31 9.04274C12.4357 9.34604 12.5004 9.67112 12.5004 9.99942C12.5005 10.3277 12.4359 10.6528 12.3103 10.9562C12.1847 11.2595 12.0006 11.5351 11.7685 11.7673C11.5364 11.9995 11.2608 12.1837 10.9575 12.3094C10.6542 12.4351 10.3292 12.4998 10.0008 12.4998C9.33781 12.4998 8.70192 12.2364 8.23308 11.7676C7.76424 11.2988 7.50085 10.6629 7.50085 9.99984C7.50085 9.3368 7.76424 8.70091 8.23308 8.23207C8.70192 7.76323 9.33781 7.49984 10.0008 7.49984M14.3758 4.58317C14.0996 4.58317 13.8346 4.69292 13.6393 4.88827C13.4439 5.08362 13.3342 5.34857 13.3342 5.62484C13.3342 5.9011 13.4439 6.16606 13.6393 6.36141C13.8346 6.55676 14.0996 6.6665 14.3758 6.6665C14.6521 6.6665 14.9171 6.55676 15.1124 6.36141C15.3078 6.16606 15.4175 5.9011 15.4175 5.62484C15.4175 5.34857 15.3078 5.08362 15.1124 4.88827C14.9171 4.69292 14.6521 4.58317 14.3758 4.58317Z" fill="#BFCEC2"/>
</svg>
