<svg width="32" height="32" viewBox="0 0 32 32" fill="none" xmlns="http://www.w3.org/2000/svg">
<g id="fast-forward 1">
<g id="Group">
<g id="Group_2">
<path id="Vector" d="M31.7262 15.2873L22.1267 4.6212C21.922 4.39508 21.6361 4.26709 21.3332 4.26709H14.9335C14.5133 4.26709 14.1314 4.51454 13.9587 4.89852C13.788 5.28463 13.8584 5.73474 14.14 6.04619L23.0974 15.9998L14.14 25.9512C13.8584 26.2648 13.7859 26.7149 13.9587 27.0989C14.1314 27.485 14.5133 27.7325 14.9335 27.7325H21.3332C21.6361 27.7325 21.922 27.6024 22.1267 27.3805L31.7262 16.7144C32.091 16.3091 32.091 15.6905 31.7262 15.2873Z" fill="#D9C3A9"/>
</g>
</g>
<g id="Group_3">
<g id="Group_4">
<path id="Vector_2" d="M17.8605 15.2873L8.26102 4.6212C8.05623 4.39508 7.77038 4.26709 7.46746 4.26709H1.06781C0.647564 4.26709 0.265718 4.51454 0.0929278 4.89852C-0.0777296 5.28463 -0.00733342 5.73474 0.274251 6.04619L9.23163 15.9998L0.274251 25.9512C-0.00733342 26.2648 -0.0798628 26.7149 0.0929278 27.0989C0.265718 27.485 0.647564 27.7325 1.06781 27.7325H7.46746C7.77038 27.7325 8.05623 27.6024 8.26102 27.3805L17.8605 16.7144C18.2253 16.3091 18.2253 15.6905 17.8605 15.2873Z" fill="#D9C3A9"/>
</g>
</g>
</g>
</svg>
