<svg width="20" height="20" viewBox="0 0 20 20" fill="none" xmlns="http://www.w3.org/2000/svg">
<path fill-rule="evenodd" clip-rule="evenodd" d="M3.75 2.70215C3.05964 2.70215 2.5 3.26179 2.5 3.95215V16.4521C2.5 17.1425 3.05964 17.7021 3.75 17.7021H16.25C16.9403 17.7021 17.5 17.1425 17.5 16.4521V3.95215C17.5 3.26179 16.9403 2.70215 16.25 2.70215H3.75ZM7.10063 6.03775C7.10532 6.83462 6.50884 7.32564 5.80102 7.32212C5.13422 7.31861 4.55297 6.78775 4.55649 6.03892C4.56001 5.33462 5.11665 4.76861 5.8397 4.78502C6.57329 4.80142 7.10532 5.33932 7.10063 6.03775ZM10.2331 8.33695H8.13309H8.13192V15.4701H10.3514V15.3037C10.3514 14.9871 10.3512 14.6705 10.3509 14.3537C10.3502 13.5089 10.3495 12.6631 10.3538 11.8186C10.355 11.6135 10.3643 11.4002 10.4171 11.2045C10.6151 10.4732 11.2726 10.001 12.0062 10.1171C12.4773 10.1908 12.7889 10.4639 12.9202 10.9081C13.0011 11.1857 13.0374 11.4846 13.0409 11.7741C13.0504 12.6471 13.0491 13.5201 13.0477 14.3931C13.0472 14.7013 13.0468 15.0096 13.0468 15.3178V15.469H15.2733V15.2979C15.2733 14.9212 15.2732 14.5446 15.2729 14.1681C15.2725 13.2268 15.272 12.2856 15.2745 11.344C15.2757 10.9186 15.23 10.4991 15.1257 10.0877C14.9698 9.47598 14.6476 8.96973 14.1237 8.60415C13.7522 8.34397 13.3444 8.1764 12.8886 8.15765C12.8367 8.15549 12.7843 8.15267 12.7317 8.14982C12.4987 8.13722 12.2618 8.12442 12.0389 8.16937C11.4014 8.2971 10.8413 8.5889 10.4182 9.10332C10.3691 9.16232 10.321 9.22223 10.2492 9.31165L10.2331 9.3319V8.33695ZM4.7347 15.4725H6.94368V8.34159H4.7347V15.4725Z" fill="#BFCEC2"/>
</svg>
