<svg width="32" height="32" viewBox="0 0 32 32" fill="none" xmlns="http://www.w3.org/2000/svg">
<g id="fluent:location-28-filled">
<path id="Vector" d="M16.0003 2.57153C18.9556 2.57153 21.7898 3.74551 23.8795 5.8352C25.9692 7.92489 27.1431 10.7591 27.1431 13.7144C27.1431 18.423 23.8346 23.5544 17.3031 29.1635C16.94 29.4755 16.4769 29.6469 15.9981 29.6464C15.5194 29.646 15.0566 29.4739 14.694 29.1612L14.262 28.7864C8.01971 23.3235 4.85742 18.3178 4.85742 13.7144C4.85742 10.7591 6.0314 7.92489 8.12109 5.8352C10.2108 3.74551 13.045 2.57153 16.0003 2.57153ZM16.0003 9.42868C14.8636 9.42868 13.7736 9.88021 12.9698 10.6839C12.1661 11.4877 11.7146 12.5777 11.7146 13.7144C11.7146 14.851 12.1661 15.9411 12.9698 16.7448C13.7736 17.5486 14.8636 18.0001 16.0003 18.0001C17.1369 18.0001 18.227 17.5486 19.0307 16.7448C19.8345 15.9411 20.286 14.851 20.286 13.7144C20.286 12.5777 19.8345 11.4877 19.0307 10.6839C18.227 9.88021 17.1369 9.42868 16.0003 9.42868Z" fill="white"/>
</g>
</svg>
