<svg width="16" height="16" viewBox="0 0 16 16" fill="none" xmlns="http://www.w3.org/2000/svg">
<path d="M8.00002 1.28564C9.47765 1.28564 10.8948 1.87263 11.9396 2.91748C12.9845 3.96232 13.5714 5.37944 13.5714 6.85707C13.5714 9.21136 11.9172 11.7771 8.65145 14.5816C8.46986 14.7376 8.23834 14.8233 7.99895 14.8231C7.75956 14.8229 7.52819 14.7368 7.34688 14.5805L7.13087 14.3931C4.00973 11.6616 2.42859 9.15879 2.42859 6.85707C2.42859 5.37944 3.01558 3.96232 4.06042 2.91748C5.10527 1.87263 6.52238 1.28564 8.00002 1.28564ZM8.00002 4.71422C7.4317 4.71422 6.88665 4.93998 6.48479 5.34184C6.08293 5.74371 5.85716 6.28875 5.85716 6.85707C5.85716 7.42539 6.08293 7.97044 6.48479 8.3723C6.88665 8.77417 7.4317 8.99993 8.00002 8.99993C8.56834 8.99993 9.11338 8.77417 9.51525 8.3723C9.91711 7.97044 10.1429 7.42539 10.1429 6.85707C10.1429 6.28875 9.91711 5.74371 9.51525 5.34184C9.11338 4.93998 8.56834 4.71422 8.00002 4.71422Z" fill="#BFCEC2"/>
</svg>
