<svg width="17" height="16" viewBox="0 0 17 16" fill="none" xmlns="http://www.w3.org/2000/svg">
<g id="Group">
<path id="Vector" d="M5.49938 6.33342V9.66634H3.50061V12.9993H6.83353V11.0005H10.1665V12.9993H13.4994V9.66634H11.5006V6.33342H13.4994V3.0005H10.1665V4.99927H6.83353V3.0005H3.50061V6.33342H5.49938Z" fill="#B49C86"/>
<path id="Vector_2" d="M0.5 6.66838L0.5 9.33423H3.16585V6.66838H0.5Z" fill="#B49C86"/>
<path id="Vector_3" d="M13.8341 6.66838V9.33423H16.5V6.66838H13.8341Z" fill="#B49C86"/>
<path id="Vector_4" d="M7.16589 -7.51019e-05V2.66577H9.83174V-7.51019e-05H7.16589Z" fill="#B49C86"/>
<path id="Vector_5" d="M1.49939 0.667066V2.00122H2.83354V0.667066H1.49939Z" fill="#B49C86"/>
<path id="Vector_6" d="M14.1665 0.667066V2.00122H15.5007V0.667066H14.1665Z" fill="#B49C86"/>
<path id="Vector_7" d="M14.1665 13.9986V15.3328H15.5007V13.9986H14.1665Z" fill="#B49C86"/>
<path id="Vector_8" d="M1.49939 13.9986V15.3328H2.83354V13.9986H1.49939Z" fill="#B49C86"/>
<path id="Vector_9" d="M7.16589 13.3342V16H9.83174V13.3342H7.16589Z" fill="#B49C86"/>
</g>
</svg>
