<svg width="16" height="16" viewBox="0 0 16 16" fill="none" xmlns="http://www.w3.org/2000/svg">
<path d="M9.66587 4.9989H6.33266V2.99927H2.99945V6.33248H4.99908V9.66569H2.99945V12.9989H6.33266V10.9993H9.66587V12.9989H12.9991V9.66569H10.9995V6.33248H12.9991V2.99927H9.66587V4.9989Z" fill="white"/>
<path d="M9.33357 0H6.66641V2.66716H9.33357V0Z" fill="white"/>
<path d="M9.33357 13.333H6.66641V16.0002H9.33357V13.333Z" fill="white"/>
<path d="M16 6.66675H13.3328V9.33391H16V6.66675Z" fill="white"/>
<path d="M15.3325 0.999756H13.9989V2.33334H15.3325V0.999756Z" fill="white"/>
<path d="M15.3325 13.665H13.9989V14.9986H15.3325V13.665Z" fill="white"/>
<path d="M1.99963 13.665H0.666046V14.9986H1.99963V13.665Z" fill="white"/>
<path d="M1.99963 0.999756H0.666046V2.33334H1.99963V0.999756Z" fill="white"/>
<path d="M2.66716 6.66675H0V9.33391H2.66716V6.66675Z" fill="white"/>
</svg>
