<svg width="234" height="36" viewBox="0 0 234 36" fill="none" xmlns="http://www.w3.org/2000/svg">
<g id="horizontal_" clip-path="url(#clip0_2339_10451)">
<g id="Layer 1">
<g id="Group">
<g id="Group_2">
<path id="Vector" d="M22.14 11.2487H14.6409V6.75146H7.14185V14.2505H11.6391V21.7496H7.14185V29.2487H14.6409V24.7515H22.14V29.2487H29.6391V21.7496H25.1418V14.2505H29.6391V6.75146H22.14V11.2487Z" fill="white"/>
<path id="Vector_2" d="M21.3868 0H15.3886V5.99815H21.3868V0Z" fill="white"/>
<path id="Vector_3" d="M21.3868 30.002H15.3886V36.0001H21.3868V30.002Z" fill="white"/>
<path id="Vector_4" d="M36.3904 14.998H30.3923V20.9962H36.3904V14.998Z" fill="white"/>
<path id="Vector_5" d="M34.8895 2.24854H31.8877V5.25038H34.8895V2.24854Z" fill="white"/>
<path id="Vector_6" d="M34.8895 30.7495H31.8877V33.7514H34.8895V30.7495Z" fill="white"/>
<path id="Vector_7" d="M4.8932 30.7495H1.89136V33.7514H4.8932V30.7495Z" fill="white"/>
<path id="Vector_8" d="M4.8932 2.24854H1.89136V5.25038H4.8932V2.24854Z" fill="white"/>
<path id="Vector_9" d="M6.3886 14.998H0.390442V20.9962H6.3886V14.998Z" fill="white"/>
</g>
<g id="Group_3">
<g id="Group_4">
<path id="Vector_10" d="M69.2384 22.863C69.2384 24.9344 68.524 26.5572 67.0895 27.7258C65.6551 28.8999 63.6944 29.4815 61.2077 29.4815H52.3904V6.95654H60.8643C63.2292 6.95654 65.0957 7.47716 66.4637 8.50731C67.8317 9.543 68.5184 11.0218 68.5184 12.9492C68.5184 13.9738 68.2415 14.8932 67.6877 15.7073C67.1338 16.5215 66.3529 17.1916 65.3504 17.7178C66.6077 18.1553 67.5658 18.8088 68.236 19.6784C68.9061 20.5479 69.2384 21.6058 69.2384 22.863ZM60.4821 10.7227H56.716V15.9621H60.4821C61.6508 15.9621 62.5314 15.7239 63.1184 15.2587C63.7055 14.7879 63.9991 14.1455 63.9991 13.3313C63.9991 12.5172 63.7055 11.9024 63.1184 11.4316C62.5314 10.9609 61.6563 10.7282 60.4821 10.7282M60.8255 19.7559H56.716V25.7153H60.8255C62.1215 25.7153 63.1018 25.4439 63.7609 24.9012C64.42 24.3584 64.7467 23.6162 64.7467 22.6747C64.7467 21.7332 64.42 21.063 63.7609 20.5424C63.1018 20.0218 62.1215 19.7559 60.8255 19.7559Z" fill="white"/>
<path id="Vector_11" d="M76.6711 21.3561V29.481H72.3123V12.7272H76.3277V15.9617C76.9535 14.8927 77.8674 14.0564 79.0582 13.4527C80.2489 12.849 81.5172 12.5444 82.852 12.5444V17.0638C81.6391 16.9807 80.5646 17.0361 79.6342 17.2355C78.7037 17.4349 77.9782 17.8614 77.452 18.5204C76.9314 19.1795 76.6655 20.1266 76.6655 21.3617" fill="white"/>
<path id="Vector_12" d="M95.0865 29.4812V27.4098C94.5437 28.1852 93.8514 28.7722 93.0151 29.1821C92.1788 29.5919 91.1874 29.7913 90.0354 29.7913C88.2963 29.7913 86.9006 29.3205 85.8317 28.379C84.7628 27.4375 84.2311 26.1802 84.2311 24.6129C84.2311 23.0455 84.8791 21.7384 86.1751 20.8799C87.4711 20.0215 89.332 19.595 91.7578 19.595C92.2397 19.595 92.6994 19.6116 93.1369 19.6393C93.5745 19.6725 94.0452 19.7169 94.5492 19.7833V18.7809C94.5492 17.8393 94.3 17.1082 93.796 16.5821C93.292 16.0615 92.5831 15.7956 91.6637 15.7956C90.7443 15.7956 89.98 16.0559 89.4372 16.5821C88.8945 17.1027 88.5788 17.8393 88.4957 18.7809H84.5745C84.6575 17.4849 85.0065 16.3605 85.6268 15.4079C86.2415 14.4553 87.0723 13.7187 88.108 13.1981C89.1437 12.6775 90.3289 12.4116 91.6692 12.4116C93.868 12.4116 95.5739 12.9876 96.7979 14.1396C98.0219 15.2916 98.6311 16.8922 98.6311 18.9415V29.4812H95.0865ZM88.3406 24.4965C88.3406 25.1889 88.5732 25.7427 89.044 26.1581C89.5148 26.579 90.1572 26.7839 90.9714 26.7839C92.0791 26.7839 92.9542 26.4959 93.5911 25.9199C94.228 25.3439 94.5492 24.5741 94.5492 23.6159V22.4252C94.0452 22.3421 93.5966 22.2867 93.1979 22.2535C92.7991 22.2202 92.4114 22.2036 92.0348 22.2036C90.8218 22.2036 89.9025 22.3919 89.2766 22.7685C88.6508 23.1452 88.3351 23.7212 88.3351 24.4965" fill="white"/>
<path id="Vector_13" d="M115.95 29.4814H101.677V25.97L110.306 16.4937H101.644V12.7275H115.701V16.3054L107.044 25.6875H115.95V29.4814Z" fill="white"/>
<path id="Vector_14" d="M124.047 8.83943C124.047 9.57051 123.781 10.1853 123.25 10.6727C122.718 11.1656 122.009 11.4093 121.134 11.4093C120.259 11.4093 119.583 11.1656 119.046 10.6727C118.514 10.1797 118.248 9.57051 118.248 8.83943C118.248 8.06405 118.514 7.43266 119.046 6.93974C119.578 6.44682 120.275 6.20312 121.134 6.20312C121.992 6.20312 122.718 6.44682 123.25 6.93974C123.781 7.43266 124.047 8.06405 124.047 8.83943ZM123.355 29.4813H118.996V12.7274H123.355V29.4813Z" fill="white"/>
<path id="Vector_15" d="M131.64 6.95654H127.248V29.4815H131.64V6.95654Z" fill="white"/>
</g>
<g id="Group_5">
<path id="Vector_16" d="M147.264 29.4815H142.496V6.95654H157.051V11.0993H147.264V16.7762H155.517V20.8858H147.264V29.4815Z" fill="white"/>
<path id="Vector_17" d="M164.328 6.95654H159.936V29.4815H164.328V6.95654Z" fill="white"/>
<path id="Vector_18" d="M175.66 29.7972C174.447 29.7972 173.323 29.5756 172.287 29.1381C171.251 28.7006 170.354 28.0803 169.59 27.2883C168.826 26.4907 168.227 25.5658 167.801 24.5135C167.375 23.4556 167.159 22.3203 167.159 21.1073C167.159 19.8944 167.375 18.7313 167.801 17.6901C168.227 16.6433 168.826 15.7239 169.59 14.9264C170.354 14.1344 171.251 13.5141 172.287 13.0766C173.323 12.639 174.447 12.4175 175.66 12.4175C176.873 12.4175 177.997 12.639 179.033 13.0766C180.069 13.5141 180.966 14.1344 181.73 14.9264C182.495 15.7239 183.087 16.6433 183.519 17.6901C183.946 18.7369 184.162 19.8778 184.162 21.1073C184.162 22.3369 183.946 23.4556 183.519 24.5135C183.093 25.5713 182.495 26.4963 181.73 27.2883C180.966 28.0858 180.069 28.7006 179.033 29.1381C177.997 29.5756 176.873 29.7972 175.66 29.7972ZM175.66 25.9369C176.391 25.9369 177.061 25.7486 177.671 25.3719C178.28 24.9953 178.762 24.447 179.127 23.727C179.493 23.007 179.675 22.1319 179.675 21.1073C179.675 20.0827 179.493 19.1855 179.127 18.471C178.762 17.7621 178.274 17.2193 177.671 16.8538C177.061 16.4882 176.397 16.3055 175.66 16.3055C174.923 16.3055 174.287 16.4882 173.666 16.8538C173.051 17.2193 172.559 17.7566 172.193 18.471C171.827 19.1799 171.645 20.0606 171.645 21.1073C171.645 22.1541 171.827 23.007 172.193 23.727C172.559 24.447 173.051 24.9953 173.666 25.3719C174.281 25.7486 174.946 25.9369 175.66 25.9369Z" fill="white"/>
<path id="Vector_19" d="M194.358 29.7972C193.145 29.7972 192.021 29.5756 190.985 29.1381C189.949 28.7006 189.052 28.0803 188.288 27.2883C187.523 26.4907 186.925 25.5658 186.499 24.5135C186.072 23.4556 185.856 22.3203 185.856 21.1073C185.856 19.8944 186.072 18.7313 186.499 17.6901C186.925 16.6433 187.523 15.7239 188.288 14.9264C189.052 14.1344 189.949 13.5141 190.985 13.0766C192.021 12.639 193.145 12.4175 194.358 12.4175C195.571 12.4175 196.695 12.639 197.731 13.0766C198.766 13.5141 199.664 14.1344 200.428 14.9264C201.192 15.7239 201.785 16.6433 202.217 17.6901C202.643 18.7369 202.859 19.8778 202.859 21.1073C202.859 22.3369 202.643 23.4556 202.217 24.5135C201.79 25.5713 201.192 26.4963 200.428 27.2883C199.664 28.0858 198.766 28.7006 197.731 29.1381C196.695 29.5756 195.571 29.7972 194.358 29.7972ZM194.358 25.9369C195.089 25.9369 195.759 25.7486 196.368 25.3719C196.978 24.9953 197.459 24.447 197.825 23.727C198.19 23.007 198.373 22.1319 198.373 21.1073C198.373 20.0827 198.19 19.1855 197.825 18.471C197.459 17.7621 196.972 17.2193 196.368 16.8538C195.759 16.4882 195.094 16.3055 194.358 16.3055C193.621 16.3055 192.984 16.4882 192.364 16.8538C191.749 17.2193 191.256 17.7566 190.891 18.471C190.525 19.1799 190.342 20.0606 190.342 21.1073C190.342 22.1541 190.525 23.007 190.891 23.727C191.256 24.447 191.749 24.9953 192.364 25.3719C192.979 25.7486 193.643 25.9369 194.358 25.9369Z" fill="white"/>
<path id="Vector_20" d="M210.015 21.3566V29.4815H205.656V12.7277H209.672V15.9622C210.298 14.8932 211.211 14.0569 212.402 13.4532C213.593 12.8495 214.861 12.5449 216.196 12.5449V17.0643C214.983 16.9812 213.909 17.0366 212.978 17.236C212.048 17.4354 211.322 17.8618 210.796 18.5209C210.275 19.18 210.01 20.1271 210.01 21.3622" fill="white"/>
<path id="Vector_21" d="M232.601 24.1201C232.601 25.8536 231.959 27.2382 230.674 28.2628C229.389 29.2875 227.55 29.8025 225.168 29.8025C222.787 29.8025 220.959 29.2653 219.63 28.1853C218.301 27.1109 217.553 25.6376 217.387 23.7767H221.557C221.579 24.6352 221.928 25.3219 222.61 25.8315C223.291 26.3465 224.16 26.6013 225.229 26.6013C226.088 26.6013 226.797 26.4629 227.362 26.1804C227.927 25.8979 228.209 25.4659 228.209 24.8788C228.209 24.3582 228.032 23.9595 227.677 23.6881C227.323 23.4167 226.736 23.2062 225.922 23.0622L222.909 22.4973C221.402 22.2259 220.223 21.6832 219.364 20.8635C218.506 20.0493 218.079 18.9915 218.079 17.6955C218.079 16.6487 218.362 15.7293 218.927 14.9318C219.491 14.1398 220.283 13.5195 221.314 13.0819C222.338 12.6444 223.54 12.4229 224.919 12.4229C226.298 12.4229 227.561 12.6555 228.635 13.1262C229.71 13.597 230.568 14.2727 231.211 15.1478C231.848 16.0284 232.219 17.0641 232.324 18.2549H228.154C228.093 17.4407 227.766 16.7982 227.179 16.3275C226.592 15.8567 225.839 15.6241 224.919 15.6241C224.122 15.6241 223.479 15.7625 222.992 16.045C222.499 16.3275 222.255 16.7429 222.255 17.2856C222.255 17.7896 222.432 18.1607 222.787 18.3989C223.141 18.637 223.695 18.8309 224.448 18.9804L227.677 19.5785C229.311 19.8942 230.535 20.4259 231.366 21.1792C232.191 21.9324 232.607 22.9127 232.607 24.1256" fill="white"/>
</g>
</g>
</g>
</g>
</g>
<defs>
<clipPath id="clip0_2339_10451">
<rect width="233.219" height="36" fill="white" transform="translate(0.390442)"/>
</clipPath>
</defs>
</svg>
