<svg width="179" height="64" viewBox="0 0 179 64" fill="none" xmlns="http://www.w3.org/2000/svg">
<g clip-path="url(#clip0_2451_13423)">
<path d="M38.6671 19.998H25.333V11.9988H11.9989V25.3329H19.9982V38.6669H11.9989V52.001H25.333V44.0017H38.6671V52.001H52.0011V38.6669H44.0019V25.3329H52.0011V11.9988H38.6671V19.998Z" fill="white"/>
<path d="M37.3378 0H26.6682V10.6696H37.3378V0Z" fill="white"/>
<path d="M37.3378 53.3362H26.6682V64.0058H37.3378V53.3362Z" fill="white"/>
<path d="M64.0059 26.6682H53.3363V37.3378H64.0059V26.6682Z" fill="white"/>
<path d="M61.3355 3.99951H56.0007V9.33433H61.3355V3.99951Z" fill="white"/>
<path d="M61.3355 54.6655H56.0007V60.0003H61.3355V54.6655Z" fill="white"/>
<path d="M7.99925 54.6655H2.66443V60.0003H7.99925V54.6655Z" fill="white"/>
<path d="M7.99925 3.99951H2.66443V9.33433H7.99925V3.99951Z" fill="white"/>
<path d="M10.6696 26.6682H0V37.3378H10.6696V26.6682Z" fill="white"/>
<path d="M100.276 21.7785C100.276 23.9979 99.5101 25.7366 97.9731 26.9887C96.4362 28.2468 94.3355 28.8699 91.671 28.8699H82.2238V4.7356H91.3031C93.837 4.7356 95.8368 5.29341 97.3025 6.39716C98.7683 7.50685 99.5041 9.09127 99.5041 11.1564C99.5041 12.2542 99.2074 13.2393 98.614 14.1116C98.0206 14.9839 97.1839 15.7019 96.1098 16.2657C97.4568 16.7345 98.4834 17.4347 99.2015 18.3664C99.9195 19.298 100.276 20.4315 100.276 21.7785ZM90.8936 8.77083H86.8584V14.3846H90.8936C92.1457 14.3846 93.0893 14.1294 93.7183 13.6309C94.3473 13.1265 94.6618 12.4381 94.6618 11.5658C94.6618 10.6935 94.3473 10.0348 93.7183 9.5304C93.0893 9.026 92.1517 8.77676 90.8936 8.77676M91.2616 18.4495H86.8584V24.8346H91.2616C92.6501 24.8346 93.7005 24.5438 94.4067 23.9623C95.1128 23.3808 95.4629 22.5856 95.4629 21.5768C95.4629 20.568 95.1128 19.8499 94.4067 19.2921C93.7005 18.7343 92.6501 18.4495 91.2616 18.4495Z" fill="white"/>
<path d="M108.239 20.1644V28.8698H103.569V10.919H107.871V14.3845C108.542 13.2392 109.521 12.3432 110.797 11.6963C112.073 11.0495 113.432 10.7231 114.862 10.7231V15.5654C113.562 15.4764 112.411 15.5358 111.414 15.7494C110.417 15.963 109.64 16.4199 109.076 17.1261C108.518 17.8323 108.233 18.847 108.233 20.1703" fill="white"/>
<path d="M127.97 28.8697V26.6503C127.389 27.4811 126.647 28.1101 125.751 28.5492C124.855 28.9884 123.793 29.202 122.558 29.202C120.695 29.202 119.2 28.6976 118.054 27.6888C116.909 26.68 116.339 25.3329 116.339 23.6535C116.339 21.9742 117.034 20.5737 118.422 19.6539C119.811 18.7341 121.805 18.2772 124.404 18.2772C124.92 18.2772 125.413 18.295 125.881 18.3247C126.35 18.3603 126.855 18.4077 127.395 18.4789V17.4049C127.395 16.3961 127.128 15.6127 126.588 15.049C126.048 14.4912 125.288 14.2063 124.303 14.2063C123.318 14.2063 122.499 14.4852 121.917 15.049C121.336 15.6068 120.998 16.3961 120.909 17.4049H116.707C116.796 16.0163 117.17 14.8116 117.835 13.791C118.493 12.7703 119.384 11.981 120.493 11.4232C121.603 10.8654 122.873 10.5806 124.309 10.5806C126.665 10.5806 128.493 11.1977 129.804 12.432C131.115 13.6663 131.768 15.3813 131.768 17.577V28.8697H127.97ZM120.748 23.5289C120.748 24.2707 120.998 24.8641 121.502 25.3092C122.006 25.7602 122.695 25.9797 123.567 25.9797C124.754 25.9797 125.692 25.6712 126.374 25.054C127.056 24.4368 127.401 23.612 127.401 22.5854V21.3095C126.861 21.2205 126.38 21.1612 125.953 21.1256C125.525 21.09 125.11 21.0722 124.707 21.0722C123.407 21.0722 122.422 21.2739 121.751 21.6775C121.081 22.081 120.743 22.6981 120.743 23.5289" fill="white"/>
<path d="M150.33 28.8698H135.032V25.1075L144.277 14.9542H134.996V10.9189H150.057V14.7524L140.782 24.8049H150.33V28.8698Z" fill="white"/>
<path d="M159 6.75313C159 7.53644 158.715 8.19513 158.146 8.71734C157.576 9.24548 156.816 9.50659 155.879 9.50659C154.941 9.50659 154.217 9.24548 153.642 8.71734C153.072 8.1892 152.787 7.53644 152.787 6.75313C152.787 5.92235 153.072 5.24585 153.642 4.71771C154.211 4.18957 154.959 3.92847 155.879 3.92847C156.799 3.92847 157.576 4.18957 158.146 4.71771C158.715 5.24585 159 5.92235 159 6.75313ZM158.264 28.8698H153.594V10.9189H158.264V28.8698Z" fill="white"/>
<path d="M167.136 4.7356H162.43V28.8699H167.136V4.7356Z" fill="white"/>
<path d="M87.3331 59.7393H82.2238V35.5991H97.8188V40.0379H87.3331V46.1204H96.1751V50.5236H87.3331V59.7393Z" fill="white"/>
<path d="M105.616 35.5991H100.911V59.7334H105.616V35.5991Z" fill="white"/>
<path d="M117.752 60.0716C116.452 60.0716 115.247 59.8342 114.138 59.3654C113.028 58.8967 112.067 58.232 111.248 57.3834C110.429 56.5289 109.788 55.5379 109.331 54.4104C108.874 53.277 108.643 52.0605 108.643 50.7609C108.643 49.4613 108.874 48.2151 109.331 47.0995C109.788 45.978 110.429 44.9929 111.248 44.1384C112.067 43.2898 113.028 42.6252 114.138 42.1564C115.247 41.6876 116.452 41.4502 117.752 41.4502C119.051 41.4502 120.256 41.6876 121.366 42.1564C122.475 42.6252 123.437 43.2898 124.256 44.1384C125.074 44.9929 125.709 45.978 126.172 47.0995C126.629 48.2211 126.861 49.4435 126.861 50.7609C126.861 52.0783 126.629 53.277 126.172 54.4104C125.715 55.5438 125.074 56.5349 124.256 57.3834C123.437 58.238 122.475 58.8967 121.366 59.3654C120.256 59.8342 119.051 60.0716 117.752 60.0716ZM117.752 55.9355C118.535 55.9355 119.253 55.7337 119.906 55.3302C120.559 54.9267 121.075 54.3392 121.466 53.5678C121.858 52.7963 122.054 51.8587 122.054 50.7609C122.054 49.6631 121.858 48.7017 121.466 47.9362C121.075 47.1767 120.553 46.5951 119.906 46.2035C119.253 45.8118 118.541 45.616 117.752 45.616C116.962 45.616 116.28 45.8118 115.615 46.2035C114.957 46.5951 114.429 47.1707 114.037 47.9362C113.645 48.6958 113.449 49.6393 113.449 50.7609C113.449 51.8825 113.645 52.7963 114.037 53.5678C114.429 54.3392 114.957 54.9267 115.615 55.3302C116.274 55.7337 116.986 55.9355 117.752 55.9355Z" fill="white"/>
<path d="M137.791 60.0716C136.492 60.0716 135.287 59.8342 134.177 59.3654C133.068 58.8967 132.106 58.232 131.288 57.3834C130.469 56.5289 129.828 55.5379 129.371 54.4104C128.914 53.277 128.682 52.0605 128.682 50.7609C128.682 49.4613 128.914 48.2151 129.371 47.0995C129.828 45.978 130.469 44.9929 131.288 44.1384C132.106 43.2898 133.068 42.6252 134.177 42.1564C135.287 41.6876 136.492 41.4502 137.791 41.4502C139.091 41.4502 140.296 41.6876 141.405 42.1564C142.515 42.6252 143.476 43.2898 144.295 44.1384C145.114 44.9929 145.749 45.978 146.212 47.0995C146.669 48.2211 146.9 49.4435 146.9 50.7609C146.9 52.0783 146.669 53.277 146.212 54.4104C145.755 55.5438 145.114 56.5349 144.295 57.3834C143.476 58.238 142.515 58.8967 141.405 59.3654C140.296 59.8342 139.091 60.0716 137.791 60.0716ZM137.791 55.9355C138.575 55.9355 139.293 55.7337 139.945 55.3302C140.598 54.9267 141.115 54.3392 141.506 53.5678C141.898 52.7963 142.094 51.8587 142.094 50.7609C142.094 49.6631 141.898 48.7017 141.506 47.9362C141.115 47.1767 140.592 46.5951 139.945 46.2035C139.293 45.8118 138.581 45.616 137.791 45.616C137.002 45.616 136.32 45.8118 135.655 46.2035C134.996 46.5951 134.468 47.1707 134.077 47.9362C133.685 48.6958 133.489 49.6393 133.489 50.7609C133.489 51.8825 133.685 52.7963 134.077 53.5678C134.468 54.3392 134.996 54.9267 135.655 55.3302C136.314 55.7337 137.026 55.9355 137.791 55.9355Z" fill="white"/>
<path d="M154.561 51.0279V59.7334H149.891V41.7825H154.193V45.2481C154.864 44.1028 155.843 43.2067 157.119 42.5599C158.395 41.913 159.754 41.5867 161.184 41.5867V46.4289C159.884 46.3399 158.733 46.3993 157.736 46.6129C156.739 46.8265 155.962 47.2835 155.398 47.9896C154.84 48.6958 154.555 49.7105 154.555 51.0339" fill="white"/>
<path d="M178.767 53.989C178.767 55.8464 178.078 57.33 176.702 58.4278C175.325 59.5256 173.355 60.0775 170.803 60.0775C168.251 60.0775 166.293 59.5019 164.869 58.3447C163.445 57.1935 162.644 55.615 162.466 53.6211H166.934C166.958 54.5409 167.332 55.2767 168.062 55.8227C168.791 56.3746 169.723 56.6475 170.868 56.6475C171.788 56.6475 172.548 56.4992 173.153 56.1965C173.758 55.8939 174.061 55.431 174.061 54.802C174.061 54.2442 173.871 53.8169 173.491 53.5262C173.112 53.2354 172.483 53.0099 171.61 52.8556L168.382 52.2503C166.768 51.9595 165.504 51.378 164.584 50.4997C163.664 49.6274 163.207 48.494 163.207 47.1054C163.207 45.9838 163.51 44.9988 164.115 44.1442C164.721 43.2956 165.569 42.631 166.673 42.1622C167.771 41.6934 169.059 41.4561 170.536 41.4561C172.014 41.4561 173.367 41.7053 174.518 42.2097C175.669 42.7141 176.589 43.4381 177.277 44.3757C177.96 45.3192 178.357 46.4289 178.47 47.7047H174.002C173.936 46.8324 173.586 46.144 172.957 45.6396C172.328 45.1352 171.521 44.886 170.536 44.886C169.682 44.886 168.993 45.0344 168.471 45.337C167.943 45.6396 167.682 46.0847 167.682 46.6663C167.682 47.2063 167.872 47.6039 168.251 47.859C168.631 48.1142 169.225 48.3219 170.032 48.4821L173.491 49.123C175.242 49.4612 176.553 50.0309 177.443 50.838C178.328 51.645 178.773 52.6954 178.773 53.995" fill="white"/>
</g>
<defs>
<clipPath id="clip0_2451_13423">
<rect width="178.767" height="64" fill="white"/>
</clipPath>
</defs>
</svg>
