<svg width="70" height="70" viewBox="0 0 70 70" fill="none" xmlns="http://www.w3.org/2000/svg">
<g id="Group">
<path id="Vector" d="M42.2908 21.8723H27.7092V13.1277H13.1277V27.7092H21.8723V42.2908H13.1277V56.8723H27.7092V48.1277H42.2908V56.8723H56.8723V42.2908H48.1277V27.7092H56.8723V13.1277H42.2908V21.8723Z" fill="#B49C86"/>
<path id="Vector_2" d="M40.8262 0H29.1631V11.6631H40.8262V0Z" fill="#B49C86"/>
<path id="Vector_3" d="M40.8262 58.3367H29.1631V69.9997H40.8262V58.3367Z" fill="#B49C86"/>
<path id="Vector_4" d="M70 29.1633H58.3369V40.8264H70V29.1633Z" fill="#B49C86"/>
<path id="Vector_5" d="M67.0816 4.37231H61.2446V10.2092H67.0816V4.37231Z" fill="#B49C86"/>
<path id="Vector_6" d="M67.0816 59.791H61.2446V65.6279H67.0816V59.791Z" fill="#B49C86"/>
<path id="Vector_7" d="M8.75526 59.791H2.91833V65.6279H8.75526V59.791Z" fill="#B49C86"/>
<path id="Vector_8" d="M8.75526 4.37231H2.91833V10.2092H8.75526V4.37231Z" fill="#B49C86"/>
<path id="Vector_9" d="M11.6631 29.1633H0V40.8264H11.6631V29.1633Z" fill="#B49C86"/>
</g>
</svg>
