<svg width="208" height="32" viewBox="0 0 208 32" fill="none" xmlns="http://www.w3.org/2000/svg">
<path d="M19.3329 9.999H12.6671V6.00146H6.00122V12.6673H9.99876V19.3332H6.00122V25.999H12.6671V22.0015H19.3329V25.999H25.9988V19.3332H22.0012V12.6673H25.9988V6.00146H19.3329V9.999Z" fill="#18332F"/>
<path d="M18.6634 0H13.3317V5.33169H18.6634V0Z" fill="#18332F"/>
<path d="M18.6634 26.6685H13.3317V32.0002H18.6634V26.6685Z" fill="#18332F"/>
<path d="M32 13.3315H26.6683V18.6632H32V13.3315Z" fill="#18332F"/>
<path d="M30.6658 1.99854H27.9975V4.66684H30.6658V1.99854Z" fill="#18332F"/>
<path d="M30.6658 27.333H27.9975V30.0013H30.6658V27.333Z" fill="#18332F"/>
<path d="M4.00248 27.333H1.33417V30.0013H4.00248V27.333Z" fill="#18332F"/>
<path d="M4.00248 1.99854H1.33417V4.66684H4.00248V1.99854Z" fill="#18332F"/>
<path d="M5.33169 13.3315H0V18.6632H5.33169V13.3315Z" fill="#18332F"/>
<path d="M62.0948 20.3222C62.0948 22.1634 61.4597 23.6059 60.1846 24.6446C58.9095 25.6883 57.1668 26.2053 54.9563 26.2053H47.1188V6.18311H54.6511C56.7532 6.18311 58.4123 6.64587 59.6283 7.56157C60.8443 8.48218 61.4548 9.79664 61.4548 11.5099C61.4548 12.4206 61.2086 13.2379 60.7163 13.9616C60.224 14.6853 59.5299 15.281 58.6388 15.7486C59.7563 16.1376 60.608 16.7185 61.2037 17.4914C61.7994 18.2643 62.0948 19.2046 62.0948 20.3222ZM54.3114 9.5308H50.9637V14.188H54.3114C55.3502 14.188 56.1329 13.9763 56.6548 13.5628C57.1766 13.1443 57.4375 12.5733 57.4375 11.8496C57.4375 11.1259 57.1766 10.5794 56.6548 10.161C56.1329 9.74249 55.3551 9.53572 54.3114 9.53572M54.6166 17.5603H50.9637V22.8576H54.6166C55.7686 22.8576 56.64 22.6163 57.2259 22.1339C57.8117 21.6514 58.1022 20.9917 58.1022 20.1548C58.1022 19.3179 57.8117 18.7222 57.2259 18.2594C56.64 17.7966 55.7686 17.5603 54.6166 17.5603Z" fill="#18332F"/>
<path d="M68.7016 18.983V26.2052H64.8271V11.3129H68.3963V14.1879C68.9526 13.2378 69.7649 12.4944 70.8234 11.9578C71.8819 11.4212 73.0092 11.1504 74.1957 11.1504V15.1676C73.1176 15.0938 72.1625 15.143 71.3354 15.3202C70.5083 15.4975 69.8634 15.8765 69.3957 16.4624C68.9329 17.0482 68.6966 17.8901 68.6966 18.9879" fill="#18332F"/>
<path d="M85.0708 26.2051V24.3639C84.5883 25.0531 83.9729 25.575 83.2295 25.9393C82.4862 26.3036 81.6049 26.4808 80.5809 26.4808C79.0351 26.4808 77.7945 26.0624 76.8443 25.2255C75.8942 24.3885 75.4215 23.271 75.4215 21.8778C75.4215 20.4845 75.9975 19.3227 77.1495 18.5596C78.3015 17.7965 79.9557 17.4175 82.112 17.4175C82.5403 17.4175 82.9489 17.4322 83.3378 17.4568C83.7268 17.4864 84.1452 17.5258 84.5932 17.5848V16.6938C84.5932 15.8568 84.3717 15.207 83.9237 14.7393C83.4757 14.2765 82.8455 14.0402 82.0283 14.0402C81.2111 14.0402 80.5317 14.2716 80.0492 14.7393C79.5668 15.2021 79.2862 15.8568 79.2123 16.6938H75.7268C75.8006 15.5418 76.1108 14.5424 76.6622 13.6956C77.2086 12.8488 77.9471 12.1941 78.8677 11.7313C79.7883 11.2685 80.8419 11.0322 82.0332 11.0322C83.9877 11.0322 85.504 11.5442 86.592 12.5682C87.68 13.5922 88.2215 15.015 88.2215 16.8365V26.2051H85.0708ZM79.0745 21.7744C79.0745 22.3898 79.2812 22.8821 79.6997 23.2513C80.1182 23.6255 80.6892 23.8076 81.4129 23.8076C82.3975 23.8076 83.1754 23.5516 83.7415 23.0396C84.3077 22.5276 84.5932 21.8433 84.5932 20.9916V19.9332C84.1452 19.8593 83.7465 19.8101 83.392 19.7805C83.0375 19.751 82.6929 19.7362 82.3582 19.7362C81.28 19.7362 80.4628 19.9036 79.9065 20.2384C79.3502 20.5731 79.0695 21.0851 79.0695 21.7744" fill="#18332F"/>
<path d="M103.616 26.2053H90.9292V23.0841L98.5994 14.6607H90.8997V11.313H103.394V14.4933L95.6997 22.833H103.616V26.2053Z" fill="#18332F"/>
<path d="M110.814 7.85706C110.814 8.5069 110.577 9.05336 110.105 9.4866C109.632 9.92475 109.002 10.1414 108.224 10.1414C107.446 10.1414 106.846 9.92475 106.368 9.4866C105.895 9.04844 105.659 8.5069 105.659 7.85706C105.659 7.16783 105.895 6.60659 106.368 6.16844C106.841 5.73029 107.461 5.51367 108.224 5.51367C108.987 5.51367 109.632 5.73029 110.105 6.16844C110.577 6.60659 110.814 7.16783 110.814 7.85706ZM110.198 26.2054H106.324V11.3131H110.198V26.2054Z" fill="#18332F"/>
<path d="M117.563 6.18311H113.659V26.2053H117.563V6.18311Z" fill="#18332F"/>
<path d="M131.451 26.2053H127.212V6.18311H140.15V9.86557H131.451V14.9117H138.786V18.5646H131.451V26.2053Z" fill="#18332F"/>
<path d="M146.619 6.18311H142.715V26.2053H146.619V6.18311Z" fill="#18332F"/>
<path d="M156.692 26.4857C155.614 26.4857 154.614 26.2888 153.694 25.8999C152.773 25.511 151.975 24.9596 151.296 24.2556C150.617 23.5466 150.085 22.7245 149.706 21.7891C149.327 20.8488 149.135 19.8396 149.135 18.7614C149.135 17.6833 149.327 16.6494 149.706 15.7239C150.085 14.7934 150.617 13.9762 151.296 13.2673C151.975 12.5633 152.773 12.0119 153.694 11.623C154.614 11.234 155.614 11.0371 156.692 11.0371C157.77 11.0371 158.769 11.234 159.69 11.623C160.61 12.0119 161.408 12.5633 162.087 13.2673C162.767 13.9762 163.294 14.7934 163.678 15.7239C164.057 16.6543 164.249 17.6685 164.249 18.7614C164.249 19.8543 164.057 20.8488 163.678 21.7891C163.298 22.7294 162.767 23.5516 162.087 24.2556C161.408 24.9645 160.61 25.511 159.69 25.8999C158.769 26.2888 157.77 26.4857 156.692 26.4857ZM156.692 23.0543C157.342 23.0543 157.937 22.887 158.479 22.5522C159.02 22.2174 159.449 21.73 159.774 21.09C160.098 20.45 160.261 19.6722 160.261 18.7614C160.261 17.8506 160.098 17.0531 159.774 16.418C159.449 15.7879 159.015 15.3054 158.479 14.9805C157.937 14.6556 157.346 14.4931 156.692 14.4931C156.037 14.4931 155.471 14.6556 154.919 14.9805C154.373 15.3054 153.935 15.783 153.61 16.418C153.285 17.0482 153.122 17.831 153.122 18.7614C153.122 19.6919 153.285 20.45 153.61 21.09C153.935 21.73 154.373 22.2174 154.919 22.5522C155.466 22.887 156.057 23.0543 156.692 23.0543Z" fill="#18332F"/>
<path d="M173.312 26.4857C172.234 26.4857 171.234 26.2888 170.314 25.8999C169.393 25.511 168.596 24.9596 167.916 24.2556C167.237 23.5466 166.705 22.7245 166.326 21.7891C165.947 20.8488 165.755 19.8396 165.755 18.7614C165.755 17.6833 165.947 16.6494 166.326 15.7239C166.705 14.7934 167.237 13.9762 167.916 13.2673C168.596 12.5633 169.393 12.0119 170.314 11.623C171.234 11.234 172.234 11.0371 173.312 11.0371C174.39 11.0371 175.39 11.234 176.31 11.623C177.231 12.0119 178.028 12.5633 178.708 13.2673C179.387 13.9762 179.914 14.7934 180.298 15.7239C180.677 16.6543 180.869 17.6685 180.869 18.7614C180.869 19.8543 180.677 20.8488 180.298 21.7891C179.919 22.7294 179.387 23.5516 178.708 24.2556C178.028 24.9645 177.231 25.511 176.31 25.8999C175.39 26.2888 174.39 26.4857 173.312 26.4857ZM173.312 23.0543C173.962 23.0543 174.558 22.887 175.099 22.5522C175.641 22.2174 176.069 21.73 176.394 21.09C176.719 20.45 176.881 19.6722 176.881 18.7614C176.881 17.8506 176.719 17.0531 176.394 16.418C176.069 15.7879 175.636 15.3054 175.099 14.9805C174.558 14.6556 173.967 14.4931 173.312 14.4931C172.657 14.4931 172.091 14.6556 171.54 14.9805C170.993 15.3054 170.555 15.783 170.23 16.418C169.905 17.0482 169.743 17.831 169.743 18.7614C169.743 19.6919 169.905 20.45 170.23 21.09C170.555 21.73 170.993 22.2174 171.54 22.5522C172.086 22.887 172.677 23.0543 173.312 23.0543Z" fill="#18332F"/>
<path d="M187.23 18.983V26.2052H183.355V11.3129H186.924V14.1879C187.481 13.2378 188.293 12.4944 189.351 11.9578C190.41 11.4212 191.537 11.1504 192.724 11.1504V15.1676C191.646 15.0938 190.69 15.143 189.863 15.3202C189.036 15.4975 188.391 15.8765 187.924 16.4624C187.461 17.0482 187.225 17.8901 187.225 18.9879" fill="#18332F"/>
<path d="M207.306 21.4395C207.306 22.9805 206.735 24.2112 205.593 25.122C204.45 26.0328 202.816 26.4906 200.699 26.4906C198.582 26.4906 196.958 26.0131 195.776 25.0531C194.594 24.098 193.93 22.7885 193.782 21.1343H197.489C197.509 21.8974 197.819 22.5078 198.425 22.9608C199.03 23.4186 199.803 23.6451 200.753 23.6451C201.516 23.6451 202.146 23.522 202.649 23.2709C203.151 23.0198 203.402 22.6358 203.402 22.114C203.402 21.6512 203.244 21.2968 202.929 21.0555C202.614 20.8143 202.092 20.6272 201.369 20.4992L198.69 19.9971C197.351 19.7558 196.303 19.2734 195.54 18.5448C194.777 17.8211 194.398 16.8808 194.398 15.7288C194.398 14.7983 194.649 13.9811 195.151 13.2721C195.653 12.5681 196.357 12.0168 197.273 11.6278C198.183 11.2389 199.252 11.042 200.478 11.042C201.703 11.042 202.826 11.2488 203.781 11.6672C204.736 12.0857 205.499 12.6863 206.07 13.4641C206.636 14.2469 206.966 15.1675 207.06 16.226H203.353C203.298 15.5023 203.008 14.9312 202.486 14.5128C201.964 14.0943 201.295 13.8875 200.478 13.8875C199.769 13.8875 199.198 14.0106 198.764 14.2617C198.326 14.5128 198.11 14.882 198.11 15.3645C198.11 15.8125 198.267 16.1423 198.582 16.354C198.897 16.5657 199.39 16.738 200.059 16.8709L202.929 17.4026C204.382 17.6832 205.47 18.1558 206.208 18.8254C206.942 19.4949 207.311 20.3663 207.311 21.4445" fill="#18332F"/>
</svg>
