<svg width="50" height="50" viewBox="0 0 50 50" fill="none" xmlns="http://www.w3.org/2000/svg">
<path d="M24.9987 0C15.0139 0 6.89062 8.12324 6.89062 18.108C6.89062 30.4994 23.0956 48.6907 23.7855 49.4591C24.4336 50.1809 25.565 50.1796 26.2119 49.4591C26.9019 48.6907 43.1068 30.4994 43.1068 18.108C43.1066 8.12324 34.9835 0 24.9987 0ZM24.9987 27.2187C19.9751 27.2187 15.8882 23.1316 15.8882 18.108C15.8882 13.0844 19.9752 8.99746 24.9987 8.99746C30.0223 8.99746 34.1092 13.0845 34.1092 18.1081C34.1092 23.1317 30.0223 27.2187 24.9987 27.2187Z" fill="#212121"/>
</svg>
