<svg width="227" height="200" viewBox="0 0 227 200" fill="none" xmlns="http://www.w3.org/2000/svg">
<g id="Group">
<g id="Group_2">
<g id="Group_3">
<path id="Vector" d="M137.896 71.6728H149.884V85.2803C149.884 87.4123 152.461 88.4796 153.967 86.9727L169.164 71.7794C169.196 71.7458 169.209 71.707 169.241 71.6728H201.708C208.22 71.6728 213.501 66.3956 213.501 59.8833V11.7895C213.501 5.27722 208.22 0 201.708 0H137.896C131.383 0 126.107 5.27722 126.107 11.7895V59.8833C126.107 66.3956 131.383 71.6728 137.896 71.6728Z" fill="#18332F"/>
</g>
</g>
<g id="Group_4">
<g id="Group_5">
<path id="Vector_2" d="M154.108 30.5039C157.001 30.5039 159.35 32.8526 159.35 35.7453C159.35 38.638 157.001 40.9866 154.108 40.9866C151.216 40.9866 148.867 38.638 148.867 35.7453C148.867 32.8526 151.216 30.5039 154.108 30.5039Z" fill="white"/>
</g>
<g id="Group_6">
<path id="Vector_3" d="M169.925 30.5039C172.818 30.5039 175.166 32.8526 175.166 35.7453C175.166 38.638 172.818 40.9866 169.925 40.9866C167.032 40.9866 164.684 38.638 164.684 35.7453C164.684 32.8526 167.032 30.5039 169.925 30.5039Z" fill="white"/>
</g>
<g id="Group_7">
<path id="Vector_4" d="M185.776 30.5039C188.669 30.5039 191.018 32.8526 191.018 35.7453C191.018 38.638 188.669 40.9866 185.776 40.9866C182.884 40.9866 180.535 38.638 180.535 35.7453C180.535 32.8526 182.884 30.5039 185.776 30.5039Z" fill="white"/>
</g>
</g>
<g id="Group_8" opacity="0.87">
<g id="Group_9">
<path id="Vector_5" d="M92.2327 199.767C94.8878 199.754 95.0453 197.862 95.0453 197.862L95.0144 184.619C95.0144 184.619 95.3406 182.687 93.7753 181.505C83.9368 174.079 65.1305 160.459 65.1305 160.459V152.465C66.6248 149.83 67.6133 147.085 68.0008 144.581C69.1544 144.49 70.6827 142.861 72.3252 137.064C74.5682 129.129 72.1847 127.958 70.165 128.147C70.554 127.054 70.8422 125.965 71.0398 124.883C74.4591 104.341 64.3438 103.622 64.3438 103.622C64.3438 103.622 62.6673 100.396 58.2498 97.9589C55.291 96.2063 51.173 94.8442 45.734 95.3145C43.9737 95.3974 42.3116 95.737 40.7515 96.2649H40.7489C38.7503 96.9406 36.9211 97.9254 35.2657 99.0755C33.2332 100.364 31.3159 101.939 29.623 103.74C26.9442 106.477 24.5581 110.017 23.5233 114.435C22.6558 117.737 22.8503 121.18 23.5702 124.883H23.5666C23.7626 125.965 24.0497 127.054 24.4418 128.147C22.4211 127.958 20.0372 129.129 22.2822 137.064C23.9226 142.861 25.4499 144.49 26.6051 144.581C26.9977 147.115 27.9784 149.898 29.4758 152.562V160.459C29.4758 160.459 10.7755 173.577 1.40014 181.143C0.85573 181.583 0.353516 183.961 0.353516 183.961L0.356087 196.443C0.356087 196.443 0.443048 198.849 2.17662 199.449C3.59476 199.94 9.34708 200 9.34708 200L84.3186 199.875C84.3186 199.875 89.1911 199.783 92.2327 199.767Z" fill="#B49C86"/>
</g>
</g>
<g id="Group_10" opacity="0.87">
<g id="Group_11">
<path id="Vector_6" d="M223.834 199.767C226.489 199.754 226.647 197.862 226.647 197.862L226.616 184.619C226.616 184.619 226.942 182.687 225.377 181.505C215.538 174.079 196.732 160.459 196.732 160.459V152.465C198.226 149.83 199.215 147.085 199.602 144.581C200.756 144.49 202.284 142.861 203.927 137.064C206.17 129.129 203.786 127.958 201.767 128.147C202.156 127.054 202.444 125.965 202.641 124.883C206.061 104.341 195.945 103.622 195.945 103.622C195.945 103.622 194.269 100.396 189.851 97.9589C186.893 96.2063 182.775 94.8442 177.336 95.3145C175.575 95.3974 173.913 95.737 172.353 96.2649H172.35C170.352 96.9406 168.523 97.9254 166.867 99.0755C164.835 100.364 162.917 101.939 161.225 103.74C158.546 106.477 156.16 110.017 155.125 114.435C154.257 117.737 154.452 121.18 155.172 124.883H155.168C155.364 125.965 155.651 127.054 156.043 128.147C154.023 127.958 151.639 129.129 153.884 137.064C155.524 142.861 157.051 144.49 158.207 144.581C158.599 147.115 159.58 149.898 161.077 152.562V160.459C161.077 160.459 142.377 173.577 133.002 181.143C132.457 181.583 131.955 183.961 131.955 183.961L131.958 196.443C131.958 196.443 132.045 198.849 133.778 199.449C135.196 199.94 140.949 200 140.949 200L215.92 199.875C215.92 199.875 220.793 199.783 223.834 199.767Z" fill="#B49C86"/>
</g>
</g>
<g id="Group_12">
<g id="Group_13">
<path id="Vector_7" d="M162.556 199.698C165.524 199.683 165.7 197.568 165.7 197.568L165.666 182.763C165.666 182.763 166.031 180.602 164.281 179.281C153.281 170.979 132.256 155.752 132.256 155.752V146.814C133.926 143.868 135.032 140.8 135.465 138C136.755 137.899 138.463 136.077 140.299 129.596C142.807 120.725 140.142 119.415 137.884 119.627C138.319 118.405 138.641 117.187 138.862 115.978C142.685 93.0113 131.376 92.2077 131.376 92.2077C131.376 92.2077 129.502 88.6012 124.563 85.8767C121.255 83.9173 116.651 82.3945 110.571 82.9203C108.603 83.013 106.744 83.3926 105 83.9829H104.997C102.763 84.7382 100.718 85.8393 98.8672 87.1251C96.5948 88.5661 94.4513 90.3265 92.5587 92.3394C89.5637 95.3999 86.8962 99.3578 85.7393 104.297C84.7694 107.989 84.9868 111.837 85.7916 115.978H85.7876C86.0068 117.187 86.3278 118.405 86.7662 119.627C84.507 119.415 81.8418 120.725 84.3517 129.596C86.1857 136.077 87.8926 137.899 89.1841 138C89.623 140.833 90.7201 143.944 92.3941 146.923V155.752C92.3941 155.752 71.9228 170.987 61.0057 178.877C59.6095 179.886 59.8356 182.027 59.8356 182.027L59.8384 195.981C59.8384 195.981 59.9356 198.671 61.8738 199.342C63.4592 199.891 69.8903 199.958 69.8903 199.958L153.708 199.818C153.708 199.818 159.155 199.715 162.556 199.698Z" fill="#B49C86"/>
</g>
</g>
</g>
</svg>
