<svg width="68" height="68" viewBox="0 0 68 68" fill="none" xmlns="http://www.w3.org/2000/svg">
<rect width="68" height="68" fill="#0E2028" fill-opacity="0.7"/>
<g clip-path="url(#clip0_2598_18020)">
<path d="M17.0588 50.9412H16V52H17.0588V50.9412ZM28.3967 41.1026C28.5955 40.9038 28.7072 40.6341 28.7072 40.3529C28.7072 40.0718 28.5955 39.8021 28.3967 39.6033C28.1979 39.4045 27.9282 39.2928 27.6471 39.2928C27.3659 39.2928 27.0962 39.4045 26.8974 39.6033L28.3967 41.1026ZM16 38.2353V50.9412H18.1176V38.2353H16ZM17.0588 52H29.7647V49.8824H17.0588V52ZM17.8085 51.6908L28.3967 41.1026L26.8974 39.6033L16.3092 50.1915L17.8085 51.6908ZM50.9412 17.0588H52V16H50.9412V17.0588ZM39.6033 26.8974C39.5049 26.9959 39.4268 27.1127 39.3735 27.2414C39.3202 27.37 39.2928 27.5078 39.2928 27.6471C39.2928 27.7863 39.3202 27.9241 39.3735 28.0528C39.4268 28.1814 39.5049 28.2983 39.6033 28.3967C39.7017 28.4952 39.8186 28.5732 39.9472 28.6265C40.0759 28.6798 40.2137 28.7072 40.3529 28.7072C40.4922 28.7072 40.63 28.6798 40.7586 28.6265C40.8873 28.5732 41.0041 28.4952 41.1026 28.3967L39.6033 26.8974ZM52 29.7647V17.0588H49.8824V29.7647H52ZM50.9412 16H38.2353V18.1176H50.9412V16ZM50.1915 16.3092L39.6033 26.8974L41.1026 28.3967L51.6908 17.8085L50.1915 16.3092Z" fill="white"/>
</g>
<defs>
<clipPath id="clip0_2598_18020">
<rect width="36" height="36" fill="white" transform="translate(16 16)"/>
</clipPath>
</defs>
</svg>
