<svg width="16" height="17" viewBox="0 0 16 17" fill="none" xmlns="http://www.w3.org/2000/svg">
<path d="M9.66709 10.8176L10.5282 9.87004C10.6442 9.74399 10.7909 9.65771 10.9506 9.62167C11.1103 9.58562 11.276 9.60136 11.4277 9.66698L12.4772 10.1281C12.6305 10.1966 12.762 10.3135 12.855 10.464C12.948 10.6146 12.9985 10.7921 13 10.9741V13.0893C12.9991 13.2132 12.9754 13.3355 12.9304 13.4491C12.8854 13.5626 12.82 13.6649 12.7381 13.7499C12.6563 13.8349 12.5596 13.9007 12.454 13.9435C12.3483 13.9863 12.2359 14.0051 12.1235 13.9988C4.7696 13.4954 3.28574 6.64231 3.00512 4.01952C2.99209 3.89072 3.00399 3.76035 3.04004 3.63698C3.07609 3.51361 3.13547 3.40003 3.21427 3.30373C3.29307 3.20742 3.38951 3.13057 3.49724 3.07822C3.60497 3.02587 3.72155 2.99922 3.83931 3.00002H5.69605C5.86174 3.00056 6.02349 3.05563 6.1605 3.15816C6.29751 3.26069 6.40352 3.40597 6.46489 3.57534L6.8839 4.73021C6.94551 4.89649 6.96122 5.07906 6.92909 5.25511C6.89696 5.43117 6.8184 5.5929 6.70323 5.72011L5.84213 6.66769C5.84213 6.66769 6.33803 10.3608 9.66709 10.8176Z" fill="#BAB7B7"/>
</svg>
