<svg width="64" height="64" viewBox="0 0 64 64" fill="none" xmlns="http://www.w3.org/2000/svg">
<g clip-path="url(#clip0_2106_734)">
<path d="M33.2501 50.75C33.2501 51.4404 32.6905 52 32.0001 52C31.3096 52 30.7501 51.4404 30.7501 50.75C30.7501 50.0596 31.3096 49.5 32.0001 49.5C32.6905 49.5 33.2501 50.0596 33.2501 50.75Z" fill="white"/>
<path d="M59.8751 39.5C59.8751 35.3643 56.5108 32 52.3751 32C48.2393 32 44.8751 35.3643 44.8751 39.5C44.8751 43.6357 48.2393 47 52.3751 47C56.5108 47 59.8751 43.6357 59.8751 39.5ZM52.3751 44.5C49.6182 44.5 47.3751 42.2568 47.3751 39.5C47.3751 36.7432 49.6182 34.5 52.3751 34.5C55.1319 34.5 57.3751 36.7432 57.3751 39.5C57.3751 42.2568 55.1319 44.5 52.3751 44.5Z" fill="white"/>
<path d="M52.3751 47C49.2252 47 46.084 48.3076 43.9444 50.4277C41.128 46.7266 36.7852 44.5 32.0001 44.5C27.4175 44.5 22.9771 46.5908 20.0562 50.4277C17.9161 48.3081 14.7755 47 11.6251 47C5.32379 47 6.10352e-05 52.1519 6.10352e-05 58.25V60.75C6.10352e-05 61.4404 0.559631 62 1.25006 62H62.7501C63.4405 62 64.0001 61.4404 64.0001 60.75V58.25C64.0001 52.1519 58.6763 47 52.3751 47ZM2.50006 58.25C2.50006 53.5068 6.67877 49.5 11.6251 49.5C14.3316 49.5 17.0157 50.6992 18.6773 52.6055C17.5787 54.7275 17.0001 57.0928 17.0001 59.5H2.50006V58.25ZM32.0001 47C38.9556 47 44.5001 52.6436 44.5001 59.5H19.5001C19.5001 52.5522 25.1578 47 32.0001 47ZM61.5001 59.5H47.0001C47.0001 57.0928 46.4214 54.7275 45.3228 52.6055C46.9844 50.6992 49.6685 49.5 52.3751 49.5C57.3214 49.5 61.5001 53.5068 61.5001 58.25V59.5Z" fill="white"/>
<path d="M19.1251 39.5C19.1251 35.3643 15.7608 32 11.6251 32C7.48932 32 4.12506 35.3643 4.12506 39.5C4.12506 43.6357 7.48932 47 11.6251 47C15.7608 47 19.1251 43.6357 19.1251 39.5ZM11.6251 44.5C8.86823 44.5 6.62506 42.2568 6.62506 39.5C6.62506 36.7432 8.86823 34.5 11.6251 34.5C14.3819 34.5 16.6251 36.7432 16.6251 39.5C16.6251 42.2568 14.3819 44.5 11.6251 44.5Z" fill="white"/>
<path d="M42.0001 34.5C42.0001 28.9858 37.5142 24.5 32.0001 24.5C26.4859 24.5 22.0001 28.9858 22.0001 34.5C22.0001 40.0142 26.4859 44.5 32.0001 44.5C37.5142 44.5 42.0001 40.0142 42.0001 34.5ZM32.0001 42C27.8643 42 24.5001 38.6357 24.5001 34.5C24.5001 30.3643 27.8643 27 32.0001 27C36.1358 27 39.5001 30.3643 39.5001 34.5C39.5001 38.6357 36.1358 42 32.0001 42Z" fill="white"/>
<path d="M41.8926 9.27002C41.7456 8.81738 41.3545 8.48779 40.8833 8.41943L35.4917 7.63672L33.0777 2.70117C32.8682 2.27197 32.4326 2 31.9551 2C31.4776 2 31.042 2.27197 30.8321 2.70068L28.4185 7.63672L23.0269 8.41895C22.5557 8.4873 22.1646 8.81738 22.0176 9.27002C21.8706 9.72266 21.9932 10.2192 22.334 10.5513L26.2383 14.3564L25.3169 19.73C25.2364 20.1987 25.4292 20.6729 25.8145 20.9521C26.1973 21.2305 26.7071 21.27 27.1309 21.0474L31.9551 18.5107L36.7813 21.0474C37.2022 21.269 37.7124 21.2319 38.0977 20.9521C38.4825 20.6724 38.6753 20.1987 38.5948 19.7295L37.6724 14.3564L41.5762 10.5513C41.917 10.2192 42.0396 9.72266 41.8926 9.27002ZM35.4561 13.0249C35.1617 13.312 35.0269 13.7261 35.0967 14.1313L35.7017 17.6562L32.5367 15.9922C32.1724 15.8008 31.7373 15.8008 31.3731 15.9922L28.209 17.6562L28.8135 14.1313C28.8828 13.7256 28.7481 13.312 28.4536 13.0249L25.8931 10.5293L29.4307 10.0156C29.8399 9.95654 30.1929 9.69873 30.3741 9.32764L31.9551 6.09521L33.5357 9.32764C33.7173 9.69922 34.0703 9.95654 34.479 10.0156L38.0171 10.5293L35.4561 13.0249Z" fill="white"/>
<path d="M60.5762 18.6387C60.4292 18.186 60.0381 17.8564 59.5669 17.7881L55.9141 17.2573L54.2808 13.9468C54.0703 13.52 53.6363 13.25 53.1602 13.25C53.1602 13.25 53.1602 13.25 53.1597 13.25C52.6841 13.25 52.2495 13.52 52.0391 13.9468L50.4048 17.2573L46.7515 17.7881C46.2808 17.8564 45.8897 18.186 45.7427 18.6387C45.5952 19.0913 45.7178 19.5879 46.0586 19.9199L48.7017 22.4976L48.0777 26.1353C47.9976 26.604 48.19 27.0776 48.5752 27.3574C48.96 27.6372 49.4702 27.6743 49.8911 27.4531L53.1597 25.7358L56.4273 27.4531C56.8482 27.6743 57.3589 27.6372 57.7437 27.3574C58.1285 27.0781 58.3208 26.604 58.2408 26.1353L57.6167 22.4976L60.2603 19.9199C60.6011 19.5879 60.7232 19.0913 60.5762 18.6387ZM55.4014 21.1665C55.1065 21.4536 54.9722 21.8672 55.042 22.2725L55.3487 24.0615L53.7417 23.2173C53.3775 23.0259 52.9424 23.0259 52.5786 23.2173L50.9702 24.062L51.2774 22.2725C51.3467 21.8672 51.2124 21.4536 50.918 21.1665L49.6172 19.898L51.4146 19.6372C51.8218 19.5781 52.1739 19.3223 52.356 18.9536L53.1597 17.3252L53.9629 18.9531C54.1451 19.3223 54.4971 19.5781 54.9043 19.6372L56.7017 19.898L55.4014 21.1665Z" fill="white"/>
<path d="M18.0762 18.6387C17.9292 18.186 17.5381 17.8564 17.0669 17.7881L13.4141 17.2573L11.7808 13.9468C11.5703 13.52 11.1363 13.25 10.6602 13.25C10.1841 13.25 9.74954 13.52 9.53909 13.9468L7.90482 17.2573L4.2515 17.7881C3.78079 17.8564 3.38968 18.186 3.24271 18.6387C3.09525 19.0913 3.21781 19.5879 3.55863 19.9199L6.20169 22.4976L5.57816 26.1353C5.49759 26.604 5.69046 27.0776 6.07523 27.3574C6.45999 27.6372 6.97025 27.6743 7.39163 27.4531L10.6597 25.7358L13.9273 27.4531C14.3511 27.6758 14.8609 27.6357 15.2437 27.3574C15.6285 27.0781 15.8213 26.604 15.7408 26.1353L15.1167 22.4976L17.7603 19.9199C18.1011 19.5879 18.2232 19.0913 18.0762 18.6387ZM12.9009 21.1665C12.6065 21.4536 12.4722 21.8672 12.5415 22.2725L12.8487 24.0615L11.2412 23.2173C10.8775 23.0259 10.4424 23.0259 10.0786 23.2173L8.46976 24.062L8.77689 22.2725C8.84671 21.8672 8.71195 21.4536 8.41751 21.1665L7.11673 19.8979L8.91458 19.6372C9.32132 19.5781 9.67337 19.3223 9.8555 18.9536L10.6592 17.3252L11.4624 18.9531C11.6446 19.3223 11.9966 19.5781 12.4038 19.6372L14.2012 19.8979L12.9009 21.1665Z" fill="white"/>
<path d="M37.4776 51.1368C36.9004 50.7574 36.1255 50.918 35.7466 51.4952C35.3672 52.0718 35.5279 52.8467 36.105 53.2261C37.2608 53.9854 38.1846 55.044 38.7764 56.2872C39.0723 56.9097 39.8174 57.1758 40.4419 56.8785C41.0655 56.5821 41.3301 55.836 41.0337 55.2129C40.2456 53.5567 39.0157 52.147 37.4776 51.1368Z" fill="white"/>
</g>
<defs>
<clipPath id="clip0_2106_734">
<rect width="64" height="64" fill="white"/>
</clipPath>
</defs>
</svg>
