<svg width="64" height="64" viewBox="0 0 64 64" fill="none" xmlns="http://www.w3.org/2000/svg">
<path d="M57 3H54C53.7348 3 53.4804 3.10536 53.2929 3.2929C53.1054 3.48043 53 3.73478 53 4V8H11V4C11 3.73478 10.8946 3.48043 10.7071 3.2929C10.5196 3.10536 10.2652 3 10 3H7C5.67438 3.00151 4.40349 3.52877 3.46613 4.46613C2.52877 5.40348 2.00151 6.67438 2 8V42C2.00151 43.3256 2.52877 44.5965 3.46613 45.5339C4.40349 46.4712 5.67438 46.9985 7 47H9V45H7C6.20435 45 5.44129 44.6839 4.87868 44.1213C4.31607 43.5587 4 42.7957 4 42C4 41.2043 4.31607 40.4413 4.87868 39.8787C5.44129 39.3161 6.20435 39 7 39H10C10.2652 39 10.5196 38.8946 10.7071 38.7071C10.8946 38.5196 11 38.2652 11 38V10H53V38C53 38.2652 53.1054 38.5196 53.2929 38.7071C53.4804 38.8946 53.7348 39 54 39H57C57.7957 39 58.5587 39.3161 59.1213 39.8787C59.6839 40.4413 60 41.2043 60 42C60 42.7957 59.6839 43.5587 59.1213 44.1213C58.5587 44.6839 57.7957 45 57 45H53V47H57C58.3256 46.9985 59.5965 46.4712 60.5339 45.5339C61.4712 44.5965 61.9985 43.3256 62 42V8C61.9985 6.67438 61.4712 5.40348 60.5339 4.46613C59.5965 3.52877 58.3256 3.00151 57 3ZM9 37H7C5.91758 36.9988 4.86431 37.3507 4 38.0024V8C4.0009 7.20463 4.31726 6.44209 4.87967 5.87967C5.44209 5.31726 6.20463 5.0009 7 5H9V37ZM57 37H55V5H57C57.7954 5.0009 58.5579 5.31726 59.1203 5.87967C59.6827 6.44209 59.9991 7.20463 60 8V38.0024C59.1357 37.3507 58.0824 36.9988 57 37Z" fill="white"/>
<path d="M22 30C21.9979 32.1539 22.6356 34.2598 23.832 36.0508L26 39.3027V47C26.0001 47.1552 26.0365 47.3082 26.1063 47.4468L26.1056 47.4472L28.1056 51.4472C28.1886 51.6133 28.3163 51.753 28.4743 51.8507C28.6322 51.9483 28.8143 52 29 52H35C35.1857 52 35.3678 51.9483 35.5257 51.8507C35.6837 51.753 35.8114 51.6133 35.8944 51.4472L37.8944 47.4472L37.8937 47.4468C37.9635 47.3082 37.9999 47.1552 38 47V39.3027L40.168 36.0508C41.3644 34.2598 42.0021 32.1539 42 30C42 27.3478 40.9464 24.8043 39.0711 22.9289C37.1957 21.0536 34.6522 20 32 20C29.3478 20 26.8043 21.0536 24.9289 22.9289C23.0536 24.8043 22 27.3478 22 30ZM29.4939 31.3704L31.4 32.8C31.5731 32.9298 31.7836 33 32 33C32.2164 33 32.4269 32.9298 32.6 32.8L34.5061 31.3704L33.1802 38H30.8198L29.4939 31.3704ZM36 40V46H28V40H36ZM34.382 50H29.618L28.618 48H35.382L34.382 50ZM32 22C34.121 22.0024 36.1544 22.846 37.6542 24.3458C39.154 25.8456 39.9976 27.879 40 30C40.0017 31.759 39.481 33.4788 38.5039 34.9415L36.4648 38H35.2198L36.9806 29.1961C37.0203 28.9975 36.9988 28.7916 36.9189 28.6055C36.839 28.4194 36.7045 28.262 36.5332 28.154C36.3619 28.046 36.1618 27.9926 35.9595 28.0008C35.7571 28.009 35.562 28.0785 35.4 28.2L32 30.75L28.6 28.2C28.438 28.0785 28.2429 28.009 28.0406 28.0008C27.8382 27.9926 27.6381 28.046 27.4668 28.154C27.2955 28.262 27.161 28.4194 27.0811 28.6055C27.0012 28.7916 26.9797 28.9975 27.0194 29.1961L28.7802 38H27.5352L25.4961 34.9415C24.519 33.4788 23.9983 31.759 24 30C24.0024 27.879 24.846 25.8456 26.3458 24.3458C27.8456 22.846 29.879 22.0024 32 22Z" fill="white"/>
<path d="M2 57.8787C2.00094 58.7062 2.33009 59.4996 2.91525 60.0847C3.50041 60.6699 4.29379 60.9991 5.12133 61H20C21.0605 60.9988 22.0772 60.577 22.8271 59.8271C23.577 59.0772 23.9988 58.0605 24 57V43.8284C24 43.0712 23.7755 42.331 23.3548 41.7015C22.9341 41.0719 22.3362 40.5812 21.6367 40.2914C20.9371 40.0017 20.1673 39.9258 19.4247 40.0736C18.682 40.2213 17.9999 40.5859 17.4645 41.1213L2.91418 55.6716C2.62345 55.9607 2.39295 56.3047 2.23603 56.6836C2.07911 57.0624 1.99888 57.4686 2 57.8787ZM18.8788 42.5355C19.1345 42.2798 19.4603 42.1057 19.8149 42.0351C20.1696 41.9646 20.5373 42.0008 20.8713 42.1392C21.2054 42.2776 21.491 42.5119 21.6919 42.8126C21.8928 43.1133 22 43.4668 22 43.8284V45H20V47H22V49H20V51H22V53H20V55H22V57C21.9994 57.5302 21.7885 58.0386 21.4135 58.4135C21.0386 58.7885 20.5302 58.9994 20 59H18V57H16V59H14V57H12V59H10V57H8V59H5.12133C4.89955 59 4.68274 58.9342 4.49834 58.811C4.31393 58.6878 4.1702 58.5127 4.08533 58.3078C4.00047 58.1029 3.97827 57.8774 4.02155 57.6599C4.06483 57.4424 4.17165 57.2426 4.32849 57.0858L18.8788 42.5355Z" fill="white"/>
<path d="M12 55H17C17.2652 55 17.5196 54.8947 17.7071 54.7071C17.8946 54.5196 18 54.2652 18 54V49C18 48.8022 17.9413 48.6089 17.8315 48.4444C17.7216 48.28 17.5654 48.1518 17.3827 48.0761C17.1999 48.0004 16.9989 47.9806 16.8049 48.0192C16.6109 48.0578 16.4327 48.1531 16.2928 48.2929L11.2928 53.2929C11.153 53.4328 11.0578 53.611 11.0192 53.8049C10.9807 53.9989 11.0005 54.2 11.0762 54.3827C11.1519 54.5654 11.28 54.7216 11.4445 54.8315C11.6089 54.9413 11.8022 55 12 55ZM16 51.4142V53H14.4142L16 51.4142Z" fill="white"/>
<path d="M43 33V55C43 55.1812 43.0493 55.359 43.1425 55.5145L46.1425 60.5145C46.2313 60.6626 46.357 60.7851 46.5073 60.8702C46.6576 60.9553 46.8273 61 47 61C47.1727 61 47.3424 60.9553 47.4927 60.8702C47.643 60.7851 47.7687 60.6626 47.8575 60.5145L50.8575 55.5145C50.9507 55.359 51 55.1812 51 55V33C51 32.7348 50.8946 32.4804 50.7071 32.2929C50.5196 32.1054 50.2652 32 50 32H44C43.7348 32 43.4804 32.1054 43.2929 32.2929C43.1054 32.4804 43 32.7348 43 33ZM48 54V41H49V54H48ZM45 54V41H46V54H45ZM45 39V38H49V39H45ZM47 58.0563L45.7662 56H48.2338L47 58.0563ZM49 34V36H45V34H49Z" fill="white"/>
<path d="M22.1006 17.6863L20.6863 19.1006L22.8076 21.2219L24.2219 19.8077L22.1006 17.6863Z" fill="white"/>
<path d="M33 14H31V17H33V14Z" fill="white"/>
<path d="M41.8994 17.6862L39.7781 19.8076L41.1924 21.2218L43.3137 19.1004L41.8994 17.6862Z" fill="white"/>
<path d="M47 28H44V30H47V28Z" fill="white"/>
<path d="M20 28H17V30H20V28Z" fill="white"/>
</svg>
