   <svg width="64" height="64" viewBox="0 0 64 64" fill="none" xmlns="http://www.w3.org/2000/svg">
<g clip-path="url(#clip0_2106_706)">
<path d="M62.2074 8.33008H10.2226C9.38533 8.33008 8.70903 9.00638 8.70903 9.84361V62.4871C8.70903 63.3237 9.38533 64 10.2226 64H50.4679C51.3045 64 51.9808 63.3237 51.9808 62.4871V49.048H62.2074C63.044 49.048 63.7203 48.3717 63.7203 47.5352V9.84361C63.7203 9.00638 63.044 8.33008 62.2074 8.33008ZM60.6939 46.0216H50.4679C49.6314 46.0216 48.9551 46.6979 48.9551 47.5352V60.9736H11.7354V11.3565H60.6939V46.0216Z" fill="white"/>
<path d="M5.06882 11.0896C5.75462 11.0896 6.31481 10.5288 6.31481 9.84365C6.31481 9.15785 5.75462 8.59766 5.06882 8.59766H1.62484C0.939713 8.59766 0.378845 9.15785 0.378845 9.84365C0.378845 10.5288 0.939713 11.0896 1.62484 11.0896H2.08793V61.2412H1.62484C0.939713 61.2412 0.378845 61.8014 0.378845 62.4872C0.378845 63.1723 0.939713 63.7332 1.62484 63.7332H5.06882C5.75462 63.7332 6.31481 63.1723 6.31481 62.4872C6.31481 61.8014 5.75462 61.2412 5.06882 61.2412H4.57042V11.0896H5.06882Z" fill="white"/>
<path d="M10.2226 5.93665C10.9077 5.93665 11.4686 5.37578 11.4686 4.68997V4.19157H60.7652V4.68997C60.7652 5.37578 61.3261 5.93665 62.0112 5.93665C62.697 5.93665 63.2572 5.37578 63.2572 4.68997V1.246C63.2572 0.560868 62.697 0 62.0112 0C61.3261 0 60.7652 0.560868 60.7652 1.246V1.70909H11.4686V1.246C11.4686 0.560868 10.9077 0 10.2226 0C9.53675 0 8.97588 0.560868 8.97588 1.246V4.68997C8.97588 5.37578 9.52792 5.93665 10.2226 5.93665Z" fill="white"/>
<path d="M24.8952 32.9158C24.8952 34.6739 23.5619 35.8261 21.449 35.8261C19.3361 35.8261 17.9802 34.6501 17.8333 32.7613H19.9914C20.014 33.5691 20.5225 34.0799 21.4038 34.0799C22.1382 34.0799 22.6241 33.7829 22.6241 33.2484C22.6241 32.8801 22.2738 32.6069 21.7992 32.5119L20.3191 32.2149C19.0197 31.9536 18.161 31.1577 18.161 29.7797C18.161 28.1879 19.4943 27.0713 21.3134 27.0713C23.2455 27.0713 24.6353 28.2354 24.7596 30.0767H22.6015C22.545 29.3045 22.0478 28.8056 21.336 28.8056C20.7032 28.8056 20.3191 29.162 20.3191 29.6253C20.3191 30.0054 20.6806 30.2311 21.11 30.3143L22.6806 30.635C24.1268 30.932 24.8952 31.6803 24.8952 32.9158Z" fill="white"/>
<path d="M29.4751 35.8855C27.1362 35.8855 25.2945 34.0205 25.2945 31.4309C25.2945 28.8413 27.1362 27 29.4751 27C31.8253 27 33.667 28.8413 33.667 31.4309C33.667 33.0702 32.9326 34.4244 31.7914 35.1847L33.1473 37.8693H31.0118L29.9723 35.8618C29.8028 35.8737 29.6446 35.8855 29.4751 35.8855ZM29.4751 33.878C30.7519 33.878 31.4637 32.7732 31.4637 31.4309C31.4637 30.0886 30.7519 29.0076 29.4751 29.0076C28.1983 29.0076 27.4865 30.0886 27.4865 31.4309C27.4865 32.7732 28.1983 33.878 29.4751 33.878Z" fill="white"/>
<path d="M34.467 38H32.5461L37.5177 27.1782H39.4385L34.467 38Z" fill="white"/>
<path d="M41.8296 35.7073H39.6941V27.1782H45.2193V29.1263H41.8296V30.7063H44.6657V32.6544H41.8296V35.7073Z" fill="white"/>
<path d="M50.3475 35.7073H48.212V29.2095H45.7263V27.1782H52.8333V29.2095H50.3475V35.7073Z" fill="white"/>
</g>
<defs>
<clipPath id="clip0_2106_706">
<rect width="64" height="64" fill="white"/>
</clipPath>
</defs>
</svg>
