<svg width="64" height="64" viewBox="0 0 64 64" fill="none" xmlns="http://www.w3.org/2000/svg">
<path d="M60.1639 21.159C60.1412 21.0295 60.0932 20.9058 60.0226 20.7949C59.9521 20.684 59.8604 20.5882 59.7527 20.5127C59.6451 20.4373 59.5236 20.3839 59.3953 20.3554C59.267 20.327 59.1343 20.3241 59.0049 20.347L54.0829 21.214C53.9533 21.2367 53.8295 21.2847 53.7186 21.3553C53.6076 21.426 53.5116 21.5178 53.4362 21.6255C53.3608 21.7333 53.3074 21.8549 53.279 21.9833C53.2506 22.1117 53.2479 22.2445 53.2709 22.374L53.4849 23.585L50.6849 24.074L48.9999 23.816V9C48.9999 7.93913 48.5785 6.92172 47.8283 6.17157C47.0782 5.42143 46.0607 5 44.9999 5H37.9999V3C37.9999 2.20435 37.6838 1.44129 37.1212 0.87868C36.5586 0.31607 35.7955 0 34.9999 0L28.9999 0C28.2042 0 27.4412 0.31607 26.8786 0.87868C26.316 1.44129 25.9999 2.20435 25.9999 3V5H18.9999C17.939 5 16.9216 5.42143 16.1715 6.17157C15.4213 6.92172 14.9999 7.93913 14.9999 9V23.819L13.3079 24.078L10.5159 23.586L10.7289 22.374C10.7519 22.2445 10.7491 22.1117 10.7208 21.9833C10.6924 21.8549 10.639 21.7333 10.5635 21.6255C10.4881 21.5178 10.3922 21.426 10.2812 21.3553C10.1702 21.2847 10.0464 21.2367 9.91688 21.214L4.99988 20.347C4.87038 20.324 4.73761 20.3267 4.60918 20.3551C4.48075 20.3835 4.35917 20.4369 4.25142 20.5123C4.14366 20.5878 4.05185 20.6837 3.98123 20.7947C3.91061 20.9056 3.86258 21.0294 3.83988 21.159L0.0148827 42.822C-0.00813536 42.9515 -0.00537997 43.0843 0.0229911 43.2127C0.0513621 43.3411 0.104791 43.4627 0.180219 43.5705C0.255646 43.6782 0.35159 43.77 0.462555 43.8407C0.57352 43.9113 0.697326 43.9593 0.826883 43.982L5.74988 44.849C5.87931 44.8719 6.01198 44.869 6.14029 44.8406C6.26861 44.8121 6.39007 44.7587 6.49771 44.6833C6.60535 44.6078 6.69707 44.5119 6.76763 44.4011C6.83818 44.2902 6.88618 44.1665 6.90888 44.037L6.99988 43.5L7.82588 43.646C8.5872 45.3229 9.6948 46.8197 11.0759 48.038C11.023 48.9409 11.28 49.8349 11.8045 50.5718C12.329 51.3086 13.0894 51.8443 13.9599 52.09C13.4921 52.867 13.3039 53.7806 13.4265 54.6792C13.5492 55.5778 13.9753 56.4076 14.6342 57.0308C15.2932 57.654 16.1453 58.0333 17.0494 58.1057C17.9535 58.1781 18.8551 57.9394 19.6049 57.429C19.7043 58.093 19.9711 58.7208 20.3802 59.2533C20.7892 59.7857 21.3271 60.2053 21.9431 60.4724C22.5591 60.7396 23.2329 60.8456 23.9012 60.7805C24.5694 60.7153 25.2101 60.4811 25.7629 60.1C25.8564 60.7125 26.0926 61.2944 26.4522 61.7989C26.8118 62.3034 27.2849 62.7164 27.8334 63.0045C28.3818 63.2927 28.9903 63.4481 29.6098 63.4581C30.2293 63.468 30.8424 63.3324 31.3999 63.062V63.068L31.7999 63.334C32.2379 63.624 32.7289 63.8249 33.2446 63.9252C33.7603 64.0255 34.2907 64.0232 34.8055 63.9184C35.3204 63.8137 35.8095 63.6085 36.245 63.3147C36.6806 63.0209 37.054 62.6441 37.3439 62.206C37.7817 61.5395 38.0056 60.7552 37.9859 59.958C38.3103 60.0463 38.6447 60.0927 38.9809 60.096C39.5093 60.0976 40.0328 59.9943 40.521 59.7921C41.0092 59.5899 41.4524 59.2928 41.8249 58.918C42.1975 58.5433 42.4919 58.0983 42.6912 57.6089C42.8905 57.1195 42.9907 56.5954 42.9859 56.067C43.3042 56.1507 43.6317 56.1944 43.9609 56.197C44.4886 56.197 45.0111 56.0926 45.4983 55.8898C45.9855 55.6869 46.4278 55.3897 46.7996 55.0152C47.1714 54.6407 47.4655 54.1963 47.6648 53.7076C47.8641 53.219 47.9647 52.6957 47.9609 52.168C48.5705 52.3269 49.2092 52.3382 49.8241 52.2011C50.4389 52.064 51.0123 51.7824 51.4967 51.3797C51.9811 50.9769 52.3626 50.4645 52.6095 49.885C52.8565 49.3054 52.9619 48.6754 52.9169 48.047C54.2993 46.8267 55.407 45.327 56.1669 43.647L56.9999 43.505L57.0939 44.037C57.1166 44.1666 57.1646 44.2904 57.2352 44.4013C57.3058 44.5123 57.3977 44.6082 57.5054 44.6837C57.6132 44.7591 57.7347 44.8125 57.8632 44.8409C57.9916 44.8693 58.1244 44.872 58.2539 44.849L63.1759 43.982C63.3054 43.9593 63.4292 43.9113 63.5402 43.8407C63.6512 43.77 63.7471 43.6782 63.8225 43.5705C63.898 43.4627 63.9514 43.3411 63.9798 43.2127C64.0081 43.0843 64.0109 42.9515 63.9879 42.822L60.1639 21.159ZM27.9999 3C27.9999 2.73478 28.1052 2.48043 28.2928 2.29289C28.4803 2.10536 28.7347 2 28.9999 2H34.9999C35.2651 2 35.5195 2.10536 35.707 2.29289C35.8945 2.48043 35.9999 2.73478 35.9999 3V5H27.9999V3ZM16.9999 9C16.9999 8.46957 17.2106 7.96086 17.5857 7.58579C17.9607 7.21071 18.4694 7 18.9999 7H44.9999C45.5303 7 46.039 7.21071 46.4141 7.58579C46.7892 7.96086 46.9999 8.46957 46.9999 9V12C46.9999 12.7956 46.6838 13.5587 46.1212 14.1213C45.5586 14.6839 44.7955 15 43.9999 15V14C43.9999 13.7348 43.8945 13.4804 43.707 13.2929C43.5195 13.1054 43.2651 13 42.9999 13H38.9999C38.7347 13 38.4803 13.1054 38.2928 13.2929C38.1052 13.4804 37.9999 13.7348 37.9999 14V15H25.9999V14C25.9999 13.7348 25.8945 13.4804 25.707 13.2929C25.5195 13.1054 25.2651 13 24.9999 13H20.9999C20.7347 13 20.4803 13.1054 20.2928 13.2929C20.1052 13.4804 19.9999 13.7348 19.9999 14V15C19.2042 15 18.4412 14.6839 17.8786 14.1213C17.316 13.5587 16.9999 12.7956 16.9999 12V9ZM41.9999 15V17H39.9999V15H41.9999ZM23.9999 15V17H21.9999V15H23.9999ZM16.9999 15.974C17.8603 16.6358 18.9144 16.9963 19.9999 17V18C19.9999 18.2652 20.1052 18.5196 20.2928 18.7071C20.4803 18.8946 20.7347 19 20.9999 19H24.9999C25.2651 19 25.5195 18.8946 25.707 18.7071C25.8945 18.5196 25.9999 18.2652 25.9999 18V17H37.9999V18C37.9999 18.2652 38.1052 18.5196 38.2928 18.7071C38.4803 18.8946 38.7347 19 38.9999 19H42.9999C43.2651 19 43.5195 18.8946 43.707 18.7071C43.8945 18.5196 43.9999 18.2652 43.9999 18V17C45.0854 16.9963 46.1395 16.6358 46.9999 15.974V23.51L39.3999 22.348C37.7473 22.0991 36.058 22.3133 34.5199 22.967L31.9999 24.041L29.4869 22.97C27.9464 22.3135 26.2532 22.0998 24.5979 22.353L16.9999 23.514V15.974ZM5.11288 42.707L2.15888 42.185L5.63088 22.485L8.58588 23.006L5.11288 42.707ZM13.5299 49.53C13.1891 49.1238 13.0235 48.5988 13.0697 48.0706C13.1158 47.5423 13.3698 47.054 13.7759 46.713L17.6069 43.5C18.0132 43.1589 18.5384 42.9932 19.0668 43.0394C19.5953 43.0855 20.0838 43.3397 20.4249 43.746C20.7659 44.1523 20.9316 44.6775 20.8855 45.2059C20.8394 45.7344 20.5852 46.2229 20.1789 46.564L16.3479 49.779C16.1465 49.9477 15.9139 50.0751 15.6633 50.1539C15.4127 50.2328 15.149 50.2614 14.8873 50.2383C14.6256 50.2152 14.371 50.1407 14.1381 50.0192C13.9052 49.8977 13.6985 49.7314 13.5299 49.53ZM18.6719 55.659C18.4706 55.8279 18.2381 55.9555 17.9875 56.0345C17.737 56.1135 17.4733 56.1424 17.2116 56.1195C16.9499 56.0966 16.6952 56.0224 16.4622 55.9011C16.2291 55.7798 16.0223 55.6138 15.8534 55.4125C15.6845 55.2112 15.5569 54.9787 15.4779 54.7281C15.3989 54.4776 15.37 54.2139 15.3929 53.9522C15.4158 53.6905 15.49 53.4358 15.6113 53.2028C15.7326 52.9697 15.8986 52.7629 16.0999 52.594L20.6999 48.737C21.1084 48.4173 21.6251 48.2688 22.141 48.3228C22.6569 48.3769 23.1316 48.6292 23.465 49.0267C23.7983 49.4241 23.9642 49.9356 23.9276 50.453C23.891 50.9704 23.6548 51.4534 23.2689 51.8L18.6719 55.659ZM24.8269 58.327C24.6256 58.4958 24.3931 58.6233 24.1426 58.7023C23.892 58.7812 23.6284 58.8101 23.3667 58.7871C23.1051 58.7642 22.8505 58.6899 22.6175 58.5686C22.3845 58.4473 22.1777 58.2813 22.0089 58.08C21.8401 57.8787 21.7125 57.6462 21.6336 57.3957C21.5546 57.1451 21.5258 56.8815 21.5488 56.6198C21.5717 56.3582 21.6459 56.1036 21.7673 55.8706C21.8886 55.6376 22.0546 55.4308 22.2559 55.262L25.3209 52.691C25.728 52.3568 26.2505 52.1967 26.7749 52.2455C27.2993 52.2942 27.7834 52.5478 28.1219 52.9513C28.4605 53.3548 28.6262 53.8755 28.5832 54.4004C28.5401 54.9254 28.2917 55.4121 27.8919 55.755L24.8269 58.327ZM30.9809 61C30.5739 61.3362 30.0505 61.4978 29.5248 61.4497C28.9992 61.4015 28.5138 61.1475 28.1747 60.743C27.8355 60.3385 27.67 59.8164 27.7143 59.2904C27.7585 58.7643 28.0089 58.2771 28.4109 57.935L31.4749 55.364C31.6761 55.1951 31.9085 55.0675 32.159 54.9884C32.4095 54.9094 32.6732 54.8804 32.9348 54.9033C33.1965 54.9261 33.4511 55.0003 33.6842 55.1216C33.9172 55.2428 34.124 55.4088 34.2929 55.61C34.4617 55.8112 34.5893 56.0438 34.6682 56.2943C34.7472 56.5448 34.7761 56.8085 34.7531 57.0702C34.7302 57.3318 34.6559 57.5865 34.5346 57.8194C34.4132 58.0524 34.2472 58.2592 34.0459 58.428L30.9809 61ZM35.6739 61.106C35.4089 61.51 35.0052 61.8032 34.5391 61.9303C34.0729 62.0574 33.5763 62.0096 33.1429 61.796L35.3319 59.96C35.5389 59.7869 35.7279 59.5932 35.8959 59.382C35.9905 59.6666 36.0197 59.9689 35.9813 60.2664C35.9429 60.5638 35.8378 60.8488 35.6739 61.1V61.106ZM50.6129 49.4C50.4679 49.6191 50.2812 49.8074 50.0635 49.9543C49.8457 50.1013 49.6011 50.2038 49.3437 50.2562C49.0863 50.3086 48.8211 50.3097 48.5632 50.2596C48.3054 50.2095 48.0599 50.109 47.8409 49.964L39.4999 44.447C39.3905 44.3678 39.2663 44.3115 39.1346 44.2816C39.0029 44.2517 38.8666 44.2487 38.7337 44.2729C38.6009 44.2972 38.4743 44.348 38.3617 44.4225C38.249 44.497 38.1526 44.5935 38.0783 44.7062C38.0039 44.8189 37.9532 44.9455 37.9291 45.0784C37.905 45.2113 37.9081 45.3476 37.9382 45.4793C37.9682 45.6109 38.0246 45.7351 38.104 45.8444C38.1833 45.9536 38.284 46.0457 38.3999 46.115L45.0739 50.532C45.516 50.8252 45.8235 51.282 45.9288 51.802C46.0341 52.3219 45.9286 52.8624 45.6354 53.3045C45.3422 53.7466 44.8854 54.0542 44.3654 54.1595C43.8455 54.2648 43.305 54.1592 42.8629 53.866L36.1899 49.45C36.0787 49.3755 35.9535 49.3245 35.8219 49.3C35.5948 49.2572 35.3599 49.2944 35.1571 49.4052C34.9543 49.516 34.7962 49.6936 34.7096 49.9079C34.623 50.1221 34.6132 50.3597 34.682 50.5804C34.7508 50.801 34.8939 50.991 35.0869 51.118L40.0869 54.431C40.5263 54.7252 40.8313 55.1815 40.9352 55.7C41.0391 56.2185 40.9333 56.7571 40.6412 57.1979C40.349 57.6387 39.8941 57.9458 39.3761 58.0521C38.8581 58.1583 38.319 58.0551 37.8769 57.765L36.7369 57.011C36.7644 56.2773 36.5877 55.5503 36.2264 54.9111C35.8652 54.2719 35.3335 53.7456 34.6906 53.3908C34.0478 53.036 33.3191 52.8667 32.5857 52.9017C31.8523 52.9366 31.143 53.1746 30.5369 53.589C30.4593 53.0691 30.2785 52.5699 30.0051 52.121C29.7317 51.672 29.3712 51.2823 28.9449 50.9748C28.5186 50.6672 28.035 50.4481 27.5227 50.3304C27.0104 50.2126 26.4797 50.1985 25.9619 50.289C25.9794 49.3425 25.6538 48.4216 25.0452 47.6964C24.4366 46.9713 23.5861 46.4909 22.6509 46.344C22.9435 45.5183 22.9562 44.6193 22.6869 43.7857C22.4176 42.9521 21.8814 42.2304 21.161 41.732C20.4406 41.2336 19.5761 40.9863 18.7012 41.0282C17.8262 41.0702 16.9893 41.399 16.3199 41.964L12.4889 45.179C12.2211 45.4096 11.9856 45.6754 11.7889 45.969C10.7881 44.9372 9.99921 43.7192 9.46688 42.384C9.40383 42.2252 9.30115 42.0852 9.16863 41.9774C9.03611 41.8695 8.87818 41.7975 8.70988 41.768L7.34888 41.528L10.1659 25.553L13.1199 26.074C13.2274 26.0925 13.3373 26.0925 13.4449 26.074L24.8999 24.33C26.1865 24.1326 27.5027 24.2989 28.6999 24.81L29.4439 25.127L25.4509 26.827C24.5538 27.2107 23.7889 27.849 23.2509 28.663L19.4879 34.336C19.0525 35.0023 18.898 35.8136 19.0579 36.5933C19.2179 37.373 19.6794 38.0579 20.3419 38.499C21.4483 39.228 22.7986 39.4887 24.0969 39.2238C25.3952 38.9589 26.5355 38.1902 27.2679 37.086L28.9849 34.5L32.6359 33.753C33.0294 34.9662 33.6978 36.0722 34.5891 36.9845C35.4803 37.8969 36.5702 38.5911 37.7739 39.013C38.2005 39.1651 38.6381 39.2845 39.0829 39.37L50.0479 46.63C50.4899 46.9226 50.7977 47.3787 50.9037 47.8981C51.0096 48.4175 50.905 48.9577 50.6129 49.4ZM55.2879 41.77C55.1189 41.7994 54.9603 41.8718 54.8274 41.9802C54.6945 42.0886 54.5917 42.2294 54.5289 42.389C53.9963 43.7304 53.2045 44.9537 52.1989 45.989C51.9173 45.5838 51.5621 45.2351 51.1519 44.961L42.6519 39.338C43.7564 39.1173 44.8086 38.6876 45.7519 38.072L47.3229 37.042C47.5446 36.8961 47.6993 36.6682 47.7529 36.4082C47.8066 36.1483 47.7548 35.8777 47.6089 35.656C47.463 35.4343 47.235 35.2796 46.9751 35.2259C46.7152 35.1723 46.4446 35.2241 46.2229 35.37L44.6569 36.4C43.7512 36.9949 42.7193 37.3706 41.6432 37.4975C40.567 37.6244 39.4761 37.4989 38.4569 37.131C37.5189 36.8042 36.6715 36.2602 35.9838 35.5435C35.2961 34.8268 34.7877 33.9577 34.4999 33.007C34.4379 32.807 34.3859 32.594 34.3419 32.383C34.2877 32.1242 34.1333 31.8974 33.9124 31.7521C33.6914 31.6069 33.4219 31.5551 33.1629 31.608L28.1819 32.628C27.9227 32.681 27.6951 32.8345 27.5489 33.055L25.6099 35.984C25.1702 36.646 24.4863 37.107 23.7076 37.2661C22.929 37.4252 22.119 37.2695 21.4549 36.833C21.2333 36.6854 21.0788 36.4564 21.0249 36.1956C20.9709 35.9349 21.022 35.6634 21.1669 35.44L24.9279 29.768C25.2504 29.2809 25.7081 28.8986 26.2449 28.668L35.3059 24.808C36.5037 24.2995 37.8191 24.133 39.1059 24.327L50.5559 26.077C50.6629 26.0935 50.7719 26.0935 50.8789 26.077L53.8389 25.559L56.6499 41.534L55.2879 41.77ZM58.8879 42.705L55.4149 23.005L58.3699 22.484L61.8419 42.184L58.8879 42.705Z" fill="white"/>
</svg>
