<svg width="42" height="39" viewBox="0 0 42 39" fill="none" xmlns="http://www.w3.org/2000/svg">
<g id="bxs:quote-left">
<path id="Vector" d="M35.5407 28.7755C33.0855 31.2471 29.3702 32.5 24.5 32.5H22.75V27.9191L24.157 27.6575C26.5545 27.2122 28.2222 26.3364 29.1147 25.051C29.5804 24.3585 29.8445 23.5657 29.8812 22.75H24.5C24.0359 22.75 23.5907 22.5788 23.2625 22.274C22.9344 21.9693 22.75 21.556 22.75 21.125V9.75C22.75 7.95762 24.3197 6.5 26.25 6.5H36.75C37.2141 6.5 37.6592 6.6712 37.9874 6.97595C38.3156 7.2807 38.5 7.69402 38.5 8.125V16.25L38.4947 20.9934C38.5105 21.1737 38.843 25.4475 35.5407 28.7755ZM6.99998 6.5H17.5C17.9641 6.5 18.4092 6.6712 18.7374 6.97595C19.0656 7.2807 19.25 7.69402 19.25 8.125V16.25L19.2447 20.9934C19.2605 21.1737 19.593 25.4475 16.2907 28.7755C13.8355 31.2471 10.1202 32.5 5.24998 32.5H3.49998V27.9191L4.90698 27.6575C7.30448 27.2122 8.97223 26.3364 9.86473 25.051C10.3304 24.3585 10.5945 23.5657 10.6312 22.75H5.24998C4.78585 22.75 4.34073 22.5788 4.01254 22.274C3.68435 21.9693 3.49998 21.556 3.49998 21.125V9.75C3.49998 7.95762 5.06973 6.5 6.99998 6.5Z" fill="white"/>
<path id="Vector_2" d="M31.7527 23.2681L31.7528 23.2681L31.7569 23.2619C32.2726 22.4951 32.5671 21.6138 32.608 20.7044L32.6315 20.1819H32.1085H26.7273C26.3843 20.1819 26.0621 20.055 25.8301 19.8395C25.5993 19.6252 25.4773 19.3428 25.4773 19.0569V7.68188C25.4773 6.1999 26.7876 4.93188 28.4773 4.93188H38.9773C39.3203 4.93188 39.6424 5.05875 39.8745 5.27423C40.1053 5.48856 40.2273 5.77098 40.2273 6.05688V14.1817V14.1819L40.222 18.9247L40.222 18.9468L40.2239 18.9688C40.2366 19.1137 40.5529 23.1907 37.4133 26.355C35.0841 28.6997 31.5183 29.9319 26.7273 29.9319H25.4773V26.2666L26.4756 26.081C28.932 25.6248 30.7523 24.7089 31.7527 23.2681ZM20.972 18.9247L20.972 18.9468L20.9739 18.9688C20.9866 19.1137 21.3029 23.1907 18.1633 26.355C15.8341 28.6997 12.2683 29.9319 7.47728 29.9319H6.22728V26.2666L7.22557 26.081C7.22561 26.081 7.22565 26.081 7.22569 26.081C9.68211 25.6247 11.5023 24.7089 12.5027 23.2681L12.5028 23.2681L12.5069 23.2619C13.0226 22.4951 13.3171 21.6138 13.358 20.7044L13.3815 20.1819H12.8585H7.47728C7.13429 20.1819 6.81213 20.055 6.58006 19.8395C6.34925 19.6252 6.22728 19.3428 6.22728 19.0569V7.68188C6.22728 6.1999 7.53763 4.93188 9.22728 4.93188H19.7273C20.0703 4.93188 20.3924 5.05875 20.6245 5.27423C20.8553 5.48856 20.9773 5.77098 20.9773 6.05688V14.1813V14.1819L20.972 18.9247Z" stroke="#18332F"/>
</g>
</svg>
