<svg width="56" height="56" viewBox="0 0 56 56" fill="none" xmlns="http://www.w3.org/2000/svg">
<g id="bxs:quote-left">
<path id="Vector" d="M47.3873 41.3185C44.1137 44.8675 39.16 46.6665 32.6663 46.6665H30.333V40.0888L32.209 39.7132C35.4057 39.0738 37.6293 37.8162 38.8193 35.9705C39.4402 34.9762 39.7924 33.8377 39.8413 32.6665H32.6663C32.0475 32.6665 31.454 32.4207 31.0164 31.9831C30.5788 31.5455 30.333 30.952 30.333 30.3332V13.9998C30.333 11.4262 32.426 9.33317 34.9997 9.33317H48.9997C49.6185 9.33317 50.212 9.579 50.6496 10.0166C51.0872 10.4542 51.333 11.0477 51.333 11.6665V23.3332L51.326 30.1442C51.347 30.4032 51.7903 36.5398 47.3873 41.3185ZM9.33298 9.33317H23.333C23.9518 9.33317 24.5453 9.579 24.9829 10.0166C25.4205 10.4542 25.6663 11.0477 25.6663 11.6665V23.3332L25.6593 30.1442C25.6803 30.4032 26.1237 36.5398 21.7207 41.3185C18.447 44.8675 13.4933 46.6665 6.99965 46.6665H4.66632V40.0888L6.54232 39.7132C9.73899 39.0738 11.9627 37.8162 13.1526 35.9705C13.7736 34.9762 14.1257 33.8377 14.1747 32.6665H6.99965C6.38081 32.6665 5.78732 32.4207 5.34974 31.9831C4.91215 31.5455 4.66632 30.952 4.66632 30.3332V13.9998C4.66632 11.4262 6.75932 9.33317 9.33298 9.33317Z" fill="white"/>
<path id="Vector_2" d="M42.2093 33.272L42.2093 33.272L42.2131 33.2659C42.8799 32.1981 43.2581 30.9756 43.3106 29.7179L43.3324 29.197H42.811H35.636C35.1498 29.197 34.6835 29.0039 34.3397 28.6601C33.9959 28.3162 33.8027 27.8499 33.8027 27.3637V11.0304C33.8027 8.73283 35.6719 6.86369 37.9694 6.86369H51.9694C52.4556 6.86369 52.9219 7.05684 53.2657 7.40066C53.6096 7.74448 53.8027 8.21079 53.8027 8.69702V20.3635V20.3637L53.7957 27.1742L53.7957 27.1947L53.7973 27.2151C53.816 27.4454 54.2425 33.394 49.9895 38.01C46.8399 41.4245 42.0404 43.197 35.636 43.197H33.8027V37.5292L35.2768 37.234C35.2768 37.234 35.2768 37.234 35.2769 37.234C38.5418 36.581 40.9168 35.2766 42.2093 33.272ZM28.129 27.1742L28.129 27.1947L28.1307 27.2151C28.1494 27.4454 28.5758 33.3942 24.3227 38.0102C21.1731 41.4246 16.3736 43.197 9.96938 43.197H8.13604V37.5292L9.6101 37.234C9.61014 37.234 9.61018 37.234 9.61022 37.234C12.8751 36.581 15.2501 35.2766 16.5426 33.272L16.5426 33.272L16.5465 33.2659C17.2132 32.1981 17.5914 30.9756 17.6439 29.7179L17.6657 29.197H17.1444H9.96938C9.48315 29.197 9.01683 29.0039 8.67302 28.6601C8.3292 28.3162 8.13604 27.8499 8.13604 27.3637V11.0304C8.13604 8.73283 10.0052 6.86369 12.3027 6.86369H26.3027C26.7889 6.86369 27.2553 7.05684 27.5991 7.40066C27.9429 7.74448 28.136 8.21079 28.136 8.69702V20.3632V20.3637L28.129 27.1742Z" stroke="#18332F"/>
</g>
</svg>
