<svg width="24" height="24" viewBox="0 0 24 24" fill="none" xmlns="http://www.w3.org/2000/svg">
<path id="Vector" d="M22.8404 23.7998C23.4614 24.4173 24.4198 23.4642 23.7989 22.8602L18.7367 17.813C20.5129 15.8595 21.4945 13.3186 21.4905 10.6851C21.4905 4.79218 16.6713 0 10.7453 0C4.81917 0 0 4.79218 0 10.6851C0 16.578 4.81917 21.3702 10.7453 21.3702C13.4181 21.3702 15.8884 20.3903 17.7783 18.766L22.8404 23.7998ZM1.34856 10.6851C1.34856 5.53047 5.57376 1.34235 10.7439 1.34235C15.9275 1.34235 20.1393 5.53047 20.1393 10.6851C20.1393 15.8397 15.9275 20.0278 10.7439 20.0278C5.57376 20.0278 1.34856 15.8397 1.34856 10.6851Z" fill="white"/>
</svg>
