<svg width="16" height="17" viewBox="0 0 16 17" fill="none" xmlns="http://www.w3.org/2000/svg">
<g id="ic:round-home-repair-service">
<path id="Vector" d="M11.3334 11.1666C10.9667 11.1666 10.6667 10.8666 10.6667 10.5H5.33337C5.33337 10.8666 5.03337 11.1666 4.66671 11.1666C4.30004 11.1666 4.00004 10.8666 4.00004 10.5H1.33337V12.5C1.33337 13.2333 1.93337 13.8333 2.66671 13.8333H13.3334C14.0667 13.8333 14.6667 13.2333 14.6667 12.5V10.5H12C12 10.8666 11.7 11.1666 11.3334 11.1666ZM13.3334 5.83329H11.3334V4.49996C11.3334 3.76663 10.7334 3.16663 10 3.16663H6.00004C5.26671 3.16663 4.66671 3.76663 4.66671 4.49996V5.83329H2.66671C1.93337 5.83329 1.33337 6.43329 1.33337 7.16663V9.83329H4.00004V9.16663C4.00004 8.79996 4.30004 8.49996 4.66671 8.49996C5.03337 8.49996 5.33337 8.79996 5.33337 9.16663V9.83329H10.6667V9.16663C10.6667 8.79996 10.9667 8.49996 11.3334 8.49996C11.7 8.49996 12 8.79996 12 9.16663V9.83329H14.6667V7.16663C14.6667 6.43329 14.0667 5.83329 13.3334 5.83329ZM10 5.83329H6.00004V4.49996H10V5.83329Z" fill="#BAB7B7"/>
</g>
</svg>
