<svg width="20" height="20" viewBox="0 0 20 20" fill="none" xmlns="http://www.w3.org/2000/svg">
<g id="solar:share-bold">
<path id="Vector" fill-rule="evenodd" clip-rule="evenodd" d="M11.5018 4.44426C11.5018 2.91092 12.7518 1.66676 14.2918 1.66676C14.6575 1.66588 15.0197 1.73703 15.3578 1.87613C15.6959 2.01524 16.0034 2.21959 16.2625 2.4775C16.5217 2.73542 16.7275 3.04185 16.8682 3.37931C17.0089 3.71676 17.0818 4.07863 17.0827 4.44426C17.0827 5.97842 15.8327 7.22259 14.2918 7.22259C13.9223 7.22304 13.5564 7.15005 13.2154 7.00785C12.8743 6.86565 12.5649 6.65708 12.3052 6.39426L8.44268 9.02426C8.55025 9.56009 8.4975 10.1157 8.29102 10.6218L12.526 13.4051C13.0248 12.9983 13.649 12.7766 14.2927 12.7776C14.6583 12.7768 15.0205 12.8481 15.3586 12.9873C15.6967 13.1265 16.004 13.3309 16.2631 13.5889C16.5222 13.8469 16.7279 14.1534 16.8685 14.4909C17.0091 14.8284 17.0819 15.1903 17.0827 15.5559C17.0827 17.0893 15.8327 18.3334 14.2918 18.3334C13.5536 18.335 12.8449 18.0432 12.3217 17.5224C11.7985 17.0015 11.5036 16.2942 11.5018 15.5559C11.5012 15.1665 11.5833 14.7813 11.7427 14.4259L7.54102 11.6668C7.03219 12.1092 6.38028 12.3522 5.70602 12.3509C5.34036 12.3518 4.97812 12.2806 4.63999 12.1414C4.30185 12.0023 3.99446 11.7978 3.73536 11.5398C3.47626 11.2818 3.27054 10.9753 3.12996 10.6377C2.98937 10.3002 2.91667 9.93824 2.91602 9.57259C2.91678 9.20701 2.98956 8.84516 3.13019 8.5077C3.27083 8.17025 3.47657 7.86381 3.73565 7.60589C3.99474 7.34796 4.3021 7.1436 4.64018 7.00449C4.97826 6.86537 5.34043 6.79421 5.70602 6.79509C6.59268 6.79509 7.38102 7.20592 7.89185 7.84592L11.636 5.29676C11.5469 5.02137 11.5017 4.73369 11.5018 4.44426Z" fill="#18332F"/>
</g>
</svg>
