<svg width="32" height="32" viewBox="0 0 32 32" fill="none" xmlns="http://www.w3.org/2000/svg">
<g id="pantone" clip-path="url(#clip0_2222_3110)">
<g id="Group">
<g id="Group_2">
<path id="Vector" d="M29.95 19.3613L13.6605 28.7664V29.3398C13.6605 30.3321 13.341 31.2507 12.8008 32.0001H29.3401C30.807 32.0001 32.0003 30.8067 32.0003 29.3398V21.9502C32.0003 20.6933 31.1238 19.6379 29.95 19.3613Z" fill="#B49C86"/>
</g>
</g>
<g id="Group_3">
<g id="Group_4">
<path id="Vector_2" d="M29.4622 14.3804L26.7168 9.62267C26.243 8.80199 25.3597 8.29224 24.4114 8.29224C24.1515 8.29224 23.8937 8.33211 23.6459 8.40692L13.6602 25.7025V26.5721L28.6011 17.9456C29.1575 17.5874 29.5554 17.0428 29.728 16.399C29.9118 15.7127 29.8175 14.9958 29.4622 14.3804Z" fill="#B49C86"/>
</g>
</g>
<g id="Group_5">
<g id="Group_6">
<path id="Vector_3" d="M21.9703 5.94788C21.7864 5.2615 21.3462 4.68781 20.7308 4.33263L15.978 1.58838C15.5738 1.35506 15.1144 1.23169 14.6494 1.23169C14.2485 1.23169 13.8596 1.32369 13.5078 1.491C13.6069 1.86438 13.6604 2.25613 13.6604 2.66031V21.8993L21.7045 7.96656C22.0598 7.35119 22.1542 6.63431 21.9703 5.94788Z" fill="#B49C86"/>
</g>
</g>
<g id="Group_7">
<g id="Group_8">
<path id="Vector_4" d="M9.09975 0H2.66025C1.19337 0 0 1.19337 0 2.66025V29.3398C0 30.8066 1.19337 32 2.66025 32H6.77356H9.09975C10.5666 32 11.76 30.8066 11.76 29.3398V2.66025C11.7601 1.19337 10.5666 0 9.09975 0ZM5.88006 27.9042C4.89619 27.9042 4.09581 27.1038 4.09581 26.12C4.09581 25.1363 4.89625 24.3358 5.88006 24.3358C6.86387 24.3358 7.66425 25.1363 7.66425 26.12C7.66425 27.1038 6.86381 27.9042 5.88006 27.9042Z" fill="#B49C86"/>
</g>
</g>
</g>
<defs>
<clipPath id="clip0_2222_3110">
<rect width="32" height="32" fill="white"/>
</clipPath>
</defs>
</svg>
