<svg width="320" height="792" viewBox="0 0 320 792" fill="none" xmlns="http://www.w3.org/2000/svg">
<path d="M-168.294 45.0443C-163.64 39.2665 -161.721 37.5979 -153.795 34.4612C-105.245 15.249 -50.9153 3.4323 1.20064 1.46228C48.6045 -0.329615 98.8859 5.88909 144.696 18.2118C177.651 27.0764 221.832 44.5027 216.027 87.0429C212.974 109.415 196.037 129.828 177.528 141.375C167.636 147.546 155.841 152.291 143.946 152.291C142.042 152.291 137.83 151.736 138.696 150.041C140.265 146.973 144.452 146.118 147.696 144.958C174.469 135.385 193.899 144.404 196.361 176.873C201.583 245.743 166.923 312.211 106.197 343.868C84.2572 355.306 61.9197 359.427 43.1993 376.784C19.8258 398.455 38.6714 411.479 60.4488 423.282C82.7557 435.372 107.887 444.521 125.697 463.531C144.745 483.863 142.158 505.427 145.863 530.529C154.362 588.118 222.596 624.392 267.026 652.025C293.793 668.673 320.87 682.245 342.19 706.19C357.697 723.608 363.959 739.611 382.355 754.855C436.614 799.818 390.559 750.441 454.186 790.521" stroke="#BFCEC2" stroke-width="2" stroke-linecap="round" stroke-dasharray="20 20"/>
</svg>
