<svg width="1440" height="302" viewBox="0 0 1440 302" fill="none" xmlns="http://www.w3.org/2000/svg">
<path d="M-63.9728 16.9954C-34.5845 4.21813 23.3969 14.9217 50.4624 17.2214C96.1646 21.1046 379.776 36.9545 332.088 138.66C322.528 159.051 304.25 172.311 284.416 181.136C248.804 196.982 265.092 174.5 303.395 165.885C369.79 150.952 436.985 147.427 500.408 175.488C516.017 182.394 528.461 195.649 544.465 201.583C598.382 221.574 628.094 212.897 683.866 190.512C750.069 163.941 808.101 119.302 874.554 93.3609C894.121 85.7223 915.115 80.0631 936.12 79.9179C968.268 79.6956 973.333 99.2996 999.382 109.402C1071.08 137.209 1148.46 91.0278 1176.74 25.9198C1200.36 -28.4651 1181.04 11.6104 1180.81 12.5898C1170.55 55.2212 1173.87 103.758 1196.06 142.84C1240.07 220.358 1321.14 256.72 1402.79 279.982C1455.3 294.943 1500.11 295.204 1552.58 299.638" stroke="#BFCEC2" stroke-width="3" stroke-linecap="round" stroke-dasharray="20 20"/>
</svg>
