<svg width="16" height="16" viewBox="0 0 16 16" fill="none" xmlns="http://www.w3.org/2000/svg">
<path d="M14.2887 3.24084L10.2887 13.5742C10.2491 13.6765 10.1849 13.7675 10.1017 13.8391C10.0185 13.9107 9.91899 13.9606 9.81189 13.9845C9.70479 14.0083 9.59346 14.0054 9.48776 13.9759C9.38207 13.9465 9.28528 13.8914 9.206 13.8155L6.95133 11.6588L5.56866 13.0408C5.52201 13.0873 5.46262 13.119 5.39799 13.1318C5.33337 13.1445 5.26641 13.1379 5.20556 13.1126C5.14472 13.0874 5.09272 13.0447 5.05613 12.9899C5.01954 12.9351 5.00001 12.8707 5 12.8048V9.79217L1.53933 6.48217C1.45347 6.40002 1.39112 6.29642 1.35874 6.18208C1.32637 6.06775 1.32515 5.94683 1.3552 5.83186C1.38525 5.71689 1.44548 5.61205 1.52966 5.52818C1.61385 5.44431 1.71892 5.38446 1.834 5.35484L13.5007 2.35484C13.6193 2.32445 13.744 2.32732 13.861 2.36312C13.9781 2.39893 14.0831 2.46629 14.1644 2.55781C14.2458 2.64934 14.3003 2.76149 14.3221 2.88198C14.3439 3.00246 14.3321 3.12662 14.288 3.24084H14.2887ZM12.6667 4.00084L5.35466 8.76817L6.51133 9.87484L12.6667 4.00084Z" fill="#BFCEC2"/>
</svg>
