<svg width="28" height="28" viewBox="0 0 28 28" fill="none" xmlns="http://www.w3.org/2000/svg">
<g id="Icon / Youtube">
<path id="Vector" d="M25.1912 8.40343C25.0584 7.9104 24.7987 7.46077 24.438 7.09929C24.0773 6.73781 23.6283 6.4771 23.1356 6.34309C21.3086 5.84143 13.9994 5.83326 13.9994 5.83326C13.9994 5.83326 6.69141 5.82509 4.86324 6.30459C4.37082 6.44476 3.9227 6.70917 3.5619 7.07242C3.2011 7.43567 2.93974 7.88557 2.80291 8.37893C2.32107 10.2059 2.31641 13.9953 2.31641 13.9953C2.31641 13.9953 2.31174 17.8033 2.79007 19.6116C3.05841 20.6114 3.84591 21.4013 4.84691 21.6708C6.69257 22.1724 13.9819 22.1806 13.9819 22.1806C13.9819 22.1806 21.2911 22.1888 23.1181 21.7104C23.611 21.5767 24.0604 21.3165 24.422 20.9558C24.7836 20.5951 25.0447 20.1462 25.1796 19.6536C25.6626 17.8278 25.6661 14.0396 25.6661 14.0396C25.6661 14.0396 25.6894 10.2304 25.1912 8.40343ZM11.6614 17.5058L11.6672 10.5058L17.7421 14.0116L11.6614 17.5058Z" fill="#18332F"/>
</g>
</svg>
