<svg width="28" height="28" viewBox="0 0 28 28" fill="none" xmlns="http://www.w3.org/2000/svg">
<g id="Icon / LinkedIn">
<path id="Vector" fill-rule="evenodd" clip-rule="evenodd" d="M5.25 3.7832C4.2835 3.7832 3.5 4.5667 3.5 5.5332V23.0332C3.5 23.9997 4.2835 24.7832 5.25 24.7832H22.75C23.7165 24.7832 24.5 23.9997 24.5 23.0332V5.5332C24.5 4.5667 23.7165 3.7832 22.75 3.7832H5.25ZM9.94089 8.45304C9.94745 9.56867 9.11238 10.2561 8.12143 10.2512C7.18791 10.2462 6.37417 9.50304 6.37909 8.45469C6.38401 7.46867 7.16331 6.67624 8.17558 6.69922C9.20261 6.72219 9.94745 7.47524 9.94089 8.45304ZM14.3263 11.6719H11.3863H11.3847V21.6584H14.492V21.4254C14.492 20.9822 14.4916 20.5389 14.4913 20.0954C14.4903 18.9127 14.4893 17.7286 14.4954 16.5462C14.497 16.2591 14.5101 15.9605 14.5839 15.6865C14.8611 14.6627 15.7816 14.0016 16.8086 14.1641C17.4682 14.2673 17.9045 14.6497 18.0882 15.2715C18.2015 15.6602 18.2524 16.0786 18.2573 16.4839C18.2706 17.7061 18.2687 18.9283 18.2668 20.1506C18.2661 20.582 18.2654 21.0137 18.2654 21.4451V21.6568H21.3827V21.4173C21.3827 20.8899 21.3824 20.3627 21.3821 19.8355C21.3815 18.5177 21.3808 17.2 21.3843 15.8818C21.3859 15.2862 21.322 14.6989 21.1759 14.123C20.9578 13.2666 20.5066 12.5578 19.7732 12.046C19.2531 11.6818 18.6822 11.4472 18.044 11.4209C17.9713 11.4179 17.8981 11.4139 17.8244 11.4099C17.4981 11.3923 17.1664 11.3744 16.8545 11.4373C15.962 11.6161 15.1779 12.0247 14.5855 12.7448C14.5167 12.8274 14.4494 12.9113 14.3489 13.0365L14.3263 13.0649V11.6719ZM6.62858 21.6617H9.72116V11.6784H6.62858V21.6617Z" fill="#18332F"/>
</g>
</svg>
