<svg width="28" height="28" viewBox="0 0 28 28" fill="none" xmlns="http://www.w3.org/2000/svg">
<g id="Insta">
<path id="Vector" d="M15.1987 2.33325C16.5112 2.33675 17.1774 2.34375 17.7525 2.36009L17.9789 2.36825C18.2402 2.37759 18.498 2.38925 18.8095 2.40325C20.0509 2.46159 20.8979 2.65759 21.641 2.94575C22.411 3.24209 23.0597 3.64342 23.7084 4.29092C24.3016 4.87413 24.7607 5.57961 25.0535 6.35825C25.3417 7.10142 25.5377 7.94842 25.596 9.19092C25.61 9.50125 25.6217 9.75909 25.631 10.0216L25.638 10.2479C25.6555 10.8219 25.6625 11.4881 25.6649 12.8006L25.666 13.6709V15.1993C25.6689 16.0502 25.66 16.9012 25.6392 17.7519L25.6322 17.9783C25.6229 18.2408 25.6112 18.4986 25.5972 18.8089C25.5389 20.0514 25.3405 20.8973 25.0535 21.6416C24.7615 22.4207 24.3023 23.1263 23.7084 23.7089C23.125 24.302 22.4196 24.761 21.641 25.0541C20.8979 25.3423 20.0509 25.5383 18.8095 25.5966C18.5327 25.6096 18.2558 25.6213 17.9789 25.6316L17.7525 25.6386C17.1774 25.6549 16.5112 25.6631 15.1987 25.6654L14.3284 25.6666H12.8012C11.9498 25.6695 11.0985 25.6606 10.2474 25.6397L10.021 25.6328C9.74408 25.6223 9.46719 25.6102 9.19037 25.5966C7.94904 25.5383 7.10204 25.3423 6.3577 25.0541C5.57915 24.7617 4.87396 24.3026 4.29154 23.7089C3.69776 23.1259 3.2383 22.4204 2.9452 21.6416C2.65704 20.8984 2.46104 20.0514 2.4027 18.8089C2.38971 18.5321 2.37804 18.2552 2.3677 17.9783L2.36187 17.7519C2.34037 16.9012 2.33065 16.0502 2.3327 15.1993V12.8006C2.32945 11.9496 2.338 11.0986 2.35837 10.2479L2.36654 10.0216C2.37587 9.75909 2.38754 9.50125 2.40154 9.19092C2.45987 7.94842 2.65587 7.10258 2.94404 6.35825C3.237 5.57881 3.69738 4.87311 4.2927 4.29092C4.87498 3.69764 5.57971 3.23857 6.3577 2.94575C7.10204 2.65759 7.94787 2.46159 9.19037 2.40325C9.5007 2.38925 9.7597 2.37759 10.021 2.36825L10.2474 2.36125C11.0981 2.34052 11.9491 2.33158 12.8 2.33442L15.1987 2.33325ZM13.9994 8.16658C12.4523 8.16658 10.9685 8.78117 9.87458 9.87513C8.78062 10.9691 8.16604 12.4528 8.16604 13.9999C8.16604 15.547 8.78062 17.0307 9.87458 18.1247C10.9685 19.2187 12.4523 19.8333 13.9994 19.8333C15.5465 19.8333 17.0302 19.2187 18.1242 18.1247C19.2181 17.0307 19.8327 15.547 19.8327 13.9999C19.8327 12.4528 19.2181 10.9691 18.1242 9.87513C17.0302 8.78117 15.5465 8.16658 13.9994 8.16658ZM13.9994 10.4999C14.459 10.4998 14.9141 10.5903 15.3388 10.7661C15.7635 10.9419 16.1494 11.1997 16.4744 11.5246C16.7995 11.8496 17.0573 12.2354 17.2333 12.66C17.4093 13.0846 17.4999 13.5397 17.5 13.9993C17.5 14.459 17.4096 14.9141 17.2338 15.3388C17.0579 15.7634 16.8002 16.1493 16.4752 16.4744C16.1503 16.7994 15.7645 17.0573 15.3399 17.2333C14.9153 17.4092 14.4602 17.4998 14.0005 17.4999C13.0723 17.4999 12.182 17.1312 11.5257 16.4748C10.8693 15.8184 10.5005 14.9282 10.5005 13.9999C10.5005 13.0717 10.8693 12.1814 11.5257 11.525C12.182 10.8687 13.0723 10.4999 14.0005 10.4999M20.1255 6.41658C19.7388 6.41658 19.3678 6.57023 19.0943 6.84372C18.8209 7.11721 18.6672 7.48814 18.6672 7.87492C18.6672 8.26169 18.8209 8.63263 19.0943 8.90612C19.3678 9.17961 19.7388 9.33325 20.1255 9.33325C20.5123 9.33325 20.8832 9.17961 21.1567 8.90612C21.4302 8.63263 21.5839 8.26169 21.5839 7.87492C21.5839 7.48814 21.4302 7.11721 21.1567 6.84372C20.8832 6.57023 20.5123 6.41658 20.1255 6.41658Z" fill="#18332F"/>
</g>
</svg>
