<svg width="28" height="28" viewBox="0 0 28 28" fill="none" xmlns="http://www.w3.org/2000/svg">
<g id="X (ex twitter)" clip-path="url(#clip0_2249_4317)">
<g id="Group">
<path id="Vector" d="M23.0452 5.4355C23.1461 5.32013 23.2232 5.18603 23.2723 5.04083C23.3214 4.89564 23.3413 4.74221 23.3311 4.58929C23.3209 4.43638 23.2806 4.28698 23.2126 4.14962C23.1446 4.01226 23.0503 3.88964 22.9349 3.78875C22.8196 3.68786 22.6854 3.61068 22.5402 3.56163C22.3951 3.51257 22.2416 3.49258 22.0887 3.50282C21.9358 3.51306 21.7864 3.55332 21.649 3.62129C21.5117 3.68927 21.3891 3.78363 21.2882 3.899L15.3265 10.7123L10.2667 3.96667C10.158 3.82177 10.0171 3.70417 9.85508 3.62317C9.69308 3.54217 9.51445 3.5 9.33333 3.5H4.66667C4.45 3.5 4.23762 3.56033 4.05331 3.67424C3.86901 3.78815 3.72006 3.95113 3.62317 4.14492C3.52627 4.33871 3.48526 4.55565 3.50471 4.77144C3.52417 4.98723 3.60334 5.19334 3.73333 5.36667L11.2432 15.379L4.95483 22.5657C4.85395 22.681 4.77677 22.8151 4.72771 22.9603C4.67865 23.1055 4.65867 23.259 4.66891 23.4119C4.67914 23.5648 4.7194 23.7142 4.78738 23.8515C4.85535 23.9889 4.94972 24.1115 5.06508 24.2124C5.18045 24.3133 5.31456 24.3905 5.45975 24.4395C5.60494 24.4886 5.75838 24.5086 5.91129 24.4983C6.06421 24.4881 6.21361 24.4479 6.35097 24.3799C6.48832 24.3119 6.61095 24.2175 6.71183 24.1022L12.6735 17.2877L17.7333 24.0333C17.842 24.1782 17.9829 24.2958 18.1449 24.3768C18.3069 24.4578 18.4855 24.5 18.6667 24.5H23.3333C23.55 24.5 23.7624 24.4397 23.9467 24.3258C24.131 24.2119 24.2799 24.0489 24.3768 23.8551C24.4737 23.6613 24.5147 23.4443 24.4953 23.2286C24.4758 23.0128 24.3967 22.8067 24.2667 22.6333L16.7568 12.621L23.0452 5.4355Z" fill="#18332F"/>
</g>
</g>
<defs>
<clipPath id="clip0_2249_4317">
<rect width="28" height="28" fill="white"/>
</clipPath>
</defs>
</svg>
