<svg width="28" height="28" viewBox="0 0 28 28" fill="none" xmlns="http://www.w3.org/2000/svg">
<path d="M22.6819 17.5543L18.4858 19.9983C18.3278 20.0904 18.1676 20.1614 18.0027 20.2122C18.0531 20.1106 18.0945 20.0008 18.126 19.8833C18.3494 19.0492 17.8548 18.1786 16.9998 17.9015C16.981 17.8954 16.962 17.8906 16.9425 17.8871C15.7419 17.6705 14.5544 17.2412 13.6003 16.8963C13.2675 16.776 12.9532 16.6624 12.6854 16.5755C11.5862 16.2189 10.5992 16.6567 9.77875 17.1321L6.71445 18.9075L6.52118 18.566C6.38271 18.3212 6.15658 18.1449 5.8844 18.0695C5.61227 17.9941 5.32768 18.0287 5.08295 18.1673L3.9057 18.8336C3.66091 18.9722 3.4846 19.1982 3.40919 19.4704C3.33377 19.7425 3.3685 20.0272 3.50702 20.2719L6.96836 26.3879C7.16228 26.7306 7.52037 26.9232 7.88853 26.9232C8.06452 26.9232 8.24285 26.8792 8.40659 26.7865L9.5839 26.1201C9.82862 25.9816 10.0049 25.7555 10.0804 25.4834C10.1558 25.2113 10.121 24.9266 9.98252 24.682L9.58827 23.9854L10.2206 23.6203L15.569 25.0534C15.8712 25.1343 16.1719 25.1747 16.4678 25.1747C17.0662 25.1747 17.6443 25.0099 18.1728 24.6845L25.7879 19.9955C26.5107 19.5505 26.7413 18.4309 26.2716 17.6467C26.0442 17.2669 25.1132 16.1383 22.6819 17.5543ZM9.23718 25.2496C9.22963 25.2768 9.20869 25.3271 9.15296 25.3586L7.97565 26.0249C7.89066 26.0731 7.77801 26.0419 7.72988 25.9568L4.26849 19.8408C4.23694 19.785 4.24481 19.7312 4.25236 19.704C4.25991 19.6769 4.28085 19.6267 4.33663 19.5951L5.51394 18.9287C5.5449 18.9112 5.5753 18.9059 5.6009 18.9059C5.6213 18.9059 5.63863 18.9093 5.65072 18.9127C5.67784 18.9202 5.7281 18.9412 5.7596 18.9968L9.22105 25.1129C9.2526 25.1686 9.24473 25.2224 9.23718 25.2496ZM25.3291 19.2504L17.7141 23.9393C17.1261 24.3013 16.4806 24.3918 15.7955 24.2081L10.2721 22.7281C10.1601 22.6982 10.0406 22.7138 9.94013 22.7718L9.15739 23.2237L7.14555 19.6689L10.2175 17.8891C10.9039 17.4914 11.6451 17.1578 12.4155 17.4078C12.6696 17.4901 12.963 17.5962 13.3029 17.7191C14.2796 18.0723 15.4934 18.511 16.7552 18.7423C17.1581 18.8855 17.3833 19.2742 17.2808 19.6568C17.1735 20.0572 16.8725 20.2321 16.3866 20.1765C15.735 20.0454 15.1423 19.8773 14.5225 19.7015C14.2435 19.6224 13.9552 19.5406 13.6517 19.4593C13.4185 19.3969 13.1785 19.5352 13.1159 19.7686C13.0533 20.002 13.1919 20.2419 13.4253 20.3045C13.7226 20.3841 14.0078 20.465 14.2836 20.5433C14.9264 20.7256 15.5406 20.8998 16.2282 21.0373L16.2325 21.0381C16.4053 21.0726 16.5826 21.1048 16.7662 21.1342C17.5623 21.2617 18.2687 21.1373 18.9262 20.7544L23.1223 18.3103C24.2954 17.6271 25.1921 17.5471 25.5209 18.0962C25.7455 18.4711 25.6487 19.0536 25.3291 19.2504ZM5.7543 19.931C5.78787 20.1608 5.6289 20.3742 5.39916 20.4078C5.16947 20.4414 4.95602 20.2824 4.92245 20.0527C4.88887 19.823 5.04784 19.6095 5.27753 19.5759C5.50727 19.5423 5.72072 19.7014 5.7543 19.931ZM5.69893 15.0928C5.77445 15.0928 5.85003 15.0732 5.91768 15.0341L10.7416 12.2491C10.877 12.1709 10.9604 12.0265 10.9604 11.8702V6.29995C10.9604 6.14365 10.877 5.99922 10.7416 5.92107L5.91768 3.136C5.78233 3.05786 5.61553 3.05786 5.48018 3.136L0.65625 5.92107C0.520844 5.99922 0.4375 6.14365 0.4375 6.29995V11.8701C0.4375 12.0264 0.520844 12.1709 0.65625 12.249L5.48018 15.0341C5.54783 15.0732 5.62341 15.0928 5.69893 15.0928ZM3.46248 7.28864L7.41141 5.00872L7.93537 5.31125L3.98644 7.59118L3.46248 7.28864ZM3.02498 8.04645L3.54889 8.34893V9.53198L3.02498 9.2295V8.04645ZM8.81037 5.81646L9.64786 6.3L5.69893 8.57993L4.86144 8.09638L8.81037 5.81646ZM6.13643 13.8975V9.33768L10.0854 7.05775V11.6176L6.13643 13.8975ZM5.69893 4.02003L6.53641 4.50357L2.58748 6.7835L1.75 6.29995L5.69893 4.02003ZM1.3125 7.05775L2.14998 7.5413V9.48216C2.14998 9.63846 2.23333 9.78289 2.36873 9.86103L3.76764 10.6687C3.83529 10.7078 3.91087 10.7273 3.98639 10.7273C4.06191 10.7273 4.13749 10.7078 4.20514 10.6687C4.34055 10.5906 4.42389 10.4461 4.42389 10.2898V8.85418L5.26137 9.33773V13.8976L1.3125 11.6176V7.05775ZM27.56 13.4709C27.346 11.4716 26.0012 9.85256 24.1997 9.21611C24.8604 8.705 25.2871 7.90519 25.2871 7.00717C25.2871 5.46761 24.0346 4.2151 22.495 4.2151C20.9554 4.2151 19.7029 5.46761 19.7029 7.00717C19.7029 7.90519 20.1295 8.705 20.7902 9.21611C18.9888 9.8525 17.6438 11.4716 17.4299 13.471C17.4167 13.5944 17.4565 13.7176 17.5395 13.81C17.6225 13.9023 17.7408 13.955 17.8649 13.955H27.1249C27.249 13.955 27.3673 13.9023 27.4503 13.8099C27.5334 13.7175 27.5732 13.5943 27.56 13.4709ZM20.578 7.00717C20.578 5.95011 21.438 5.0901 22.495 5.0901C23.5521 5.0901 24.4121 5.95011 24.4121 7.00717C24.4121 8.06389 23.5527 8.92364 22.4961 8.92418H22.495H22.4939C21.4374 8.92358 20.578 8.06389 20.578 7.00717ZM18.3801 13.08C18.8084 11.1794 20.4984 9.79973 22.4939 9.79924L22.495 9.79929H22.4962C24.4916 9.79984 26.1816 11.1795 26.61 13.0801L18.3801 13.08ZM11.6193 10.8732C11.6193 10.7282 11.6912 10.5926 11.8112 10.5112L13.1797 9.58262C13.3796 9.44711 13.6517 9.49906 13.7874 9.699C13.9231 9.89893 13.8709 10.171 13.6711 10.3067L13.4808 10.4357H17.1668C17.4084 10.4357 17.6043 10.6316 17.6043 10.8732C17.6043 11.1149 17.4084 11.3107 17.1668 11.3107H13.4808L13.6711 11.4398C13.8709 11.5755 13.9231 11.8476 13.7874 12.0475C13.7028 12.1722 13.5651 12.2394 13.425 12.2394C13.3404 12.2394 13.255 12.2149 13.1797 12.1639L11.8112 11.2353C11.6912 11.1538 11.6193 11.0183 11.6193 10.8732ZM11.6193 7.2969C11.6193 7.05529 11.8152 6.8594 12.0568 6.8594H15.7428L15.5526 6.73034C15.3527 6.59466 15.3006 6.32259 15.4363 6.12265C15.5719 5.92266 15.8441 5.87065 16.0439 6.00628L17.4125 6.93487C17.5324 7.0163 17.6043 7.15187 17.6043 7.2969C17.6043 7.44193 17.5325 7.5775 17.4125 7.65893L16.0439 8.58753C15.9687 8.63855 15.8833 8.66305 15.7987 8.66305C15.6586 8.66305 15.5209 8.59584 15.4363 8.47115C15.3006 8.27121 15.3527 7.99914 15.5526 7.86346L15.7429 7.73435H12.0568C11.8152 7.7344 11.6193 7.53851 11.6193 7.2969Z" fill="white"/>
</svg>
