<svg width="28" height="28" viewBox="0 0 28 28" fill="none" xmlns="http://www.w3.org/2000/svg">
<path d="M5.6875 9.625H3.9375C3.82147 9.625 3.71019 9.57891 3.62814 9.49686C3.54609 9.41481 3.5 9.30353 3.5 9.1875V7.4375C3.5 7.32147 3.54609 7.21019 3.62814 7.12814C3.71019 7.04609 3.82147 7 3.9375 7H5.6875V7.875H4.375V8.75H5.6875V9.625Z" fill="white"/>
<path d="M16.1875 9.625H10.0625V8.75H15.75V7.875H10.0625V7H16.1875C16.3035 7 16.4148 7.04609 16.4969 7.12814C16.5789 7.21019 16.625 7.32147 16.625 7.4375V9.1875C16.625 9.30353 16.5789 9.41481 16.4969 9.49686C16.4148 9.57891 16.3035 9.625 16.1875 9.625Z" fill="white"/>
<path d="M24.0625 10.0625H16.1875C16.0715 10.0625 15.9602 10.0164 15.8781 9.93436C15.7961 9.85231 15.75 9.74103 15.75 9.625V7C15.75 6.88397 15.7961 6.77269 15.8781 6.69064C15.9602 6.60859 16.0715 6.5625 16.1875 6.5625H24.0625C24.1785 6.5625 24.2898 6.60859 24.3719 6.69064C24.4539 6.77269 24.5 6.88397 24.5 7V9.625C24.5 9.74103 24.4539 9.85231 24.3719 9.93436C24.2898 10.0164 24.1785 10.0625 24.0625 10.0625ZM16.625 9.1875H23.625V7.4375H16.625V9.1875Z" fill="white"/>
<path d="M10.0625 13.125H5.6875C5.57147 13.125 5.46019 13.0789 5.37814 12.9969C5.29609 12.9148 5.25 12.8035 5.25 12.6875V10.9375C5.25 10.8215 5.29609 10.7102 5.37814 10.6281C5.46019 10.5461 5.57147 10.5 5.6875 10.5H10.0625C10.1785 10.5 10.2898 10.5461 10.3719 10.6281C10.4539 10.7102 10.5 10.8215 10.5 10.9375V12.6875C10.5 12.8035 10.4539 12.9148 10.3719 12.9969C10.2898 13.0789 10.1785 13.125 10.0625 13.125ZM6.125 12.25H9.625V11.375H6.125V12.25Z" fill="white"/>
<path d="M10.0625 6.125H5.6875C5.57147 6.125 5.46019 6.07891 5.37814 5.99686C5.29609 5.91481 5.25 5.80353 5.25 5.6875V3.9375C5.25 3.82147 5.29609 3.71019 5.37814 3.62814C5.46019 3.54609 5.57147 3.5 5.6875 3.5H10.0625C10.1785 3.5 10.2898 3.54609 10.3719 3.62814C10.4539 3.71019 10.5 3.82147 10.5 3.9375V5.6875C10.5 5.80353 10.4539 5.91481 10.3719 5.99686C10.2898 6.07891 10.1785 6.125 10.0625 6.125ZM6.125 5.25H9.625V4.375H6.125V5.25Z" fill="white"/>
<path d="M6.1985 11.1802L5.3235 9.86771C5.2757 9.79574 5.25014 9.71129 5.25 9.62489V6.99989C5.25014 6.9135 5.2757 6.82905 5.3235 6.75708L6.1985 5.44458L6.9265 5.93021L6.125 7.13114V9.49364L6.9265 10.6959L6.1985 11.1802Z" fill="white"/>
<path d="M9.5515 11.1803L8.8235 10.6947L9.625 9.49373V7.13123L8.8235 5.92898L9.5515 5.44336L10.4265 6.75586C10.4746 6.8282 10.5001 6.91314 10.5 6.99998V9.62498C10.4999 9.71138 10.4743 9.79583 10.4265 9.8678L9.5515 11.1803Z" fill="white"/>
<path d="M21.875 7H22.75V9.625H21.875V7Z" fill="white"/>
<path d="M27.5625 20.5625H0.4375C0.321468 20.5625 0.210188 20.5164 0.128141 20.4344C0.0460936 20.3523 0 20.241 0 20.125V14C0 13.884 0.0460936 13.7727 0.128141 13.6906C0.210188 13.6086 0.321468 13.5625 0.4375 13.5625H5.25V14.4375H0.875V19.6875H27.125V14.4375H10.5V13.5625H27.5625C27.6785 13.5625 27.7898 13.6086 27.8719 13.6906C27.9539 13.7727 28 13.884 28 14V20.125C28 20.241 27.9539 20.3523 27.8719 20.4344C27.7898 20.5164 27.6785 20.5625 27.5625 20.5625Z" fill="white"/>
<path d="M13.5651 20.1713C13.5141 19.7626 13.3845 19.3676 13.1836 19.008C12.9985 18.6582 12.7298 18.3596 12.4014 18.1387C12.0859 17.9531 11.743 17.8186 11.3855 17.7401C10.5196 17.5247 9.63207 17.4086 8.73994 17.394L8.76006 16.519C9.71904 16.5356 10.673 16.6607 11.6038 16.8922C12.0525 16.9931 12.4821 17.1655 12.8761 17.4028C13.3268 17.7026 13.6962 18.1093 13.9514 18.5867C14.2079 19.048 14.3723 19.5546 14.4357 20.0785L13.5651 20.1713Z" fill="white"/>
<path d="M5.01594 17.5696H4.96169C4.92494 17.5696 1.18431 17.4913 0.240625 17.0158L0.634375 16.2344C1.20313 16.5205 3.96244 16.6889 4.96563 16.6946C5.48494 16.6968 5.992 16.6548 6.53144 16.6102L6.965 16.5752L7.03237 17.4476L6.60406 17.4821C6.08781 17.5254 5.55275 17.5696 5.01594 17.5696Z" fill="white"/>
<path d="M22.4757 20.4659C21.9724 20.0094 21.5579 19.4637 21.2533 18.8563C20.9373 18.2448 20.488 17.712 19.9385 17.2973C19.3891 16.8826 18.7536 16.5965 18.0788 16.4601C17.5216 16.3997 16.9594 16.4022 16.4028 16.4676C16.114 16.4894 15.8253 16.5113 15.5374 16.5196C14.5751 16.5617 13.6149 16.3976 12.7212 16.0384C11.8221 15.6873 11.0634 15.0503 10.5621 14.2254L11.3129 13.7756C11.7207 14.4399 12.3356 14.9516 13.0629 15.2321C13.8409 15.5452 14.6773 15.6866 15.5151 15.6468C15.7889 15.6394 16.0633 15.6179 16.3371 15.5969C16.9595 15.5265 17.5877 15.5265 18.2101 15.5969C19.0163 15.7532 19.777 16.0888 20.4359 16.579C21.0947 17.0691 21.6349 17.7012 22.0163 18.4284C22.2712 18.9359 22.6128 19.3949 23.0256 19.7847L22.4757 20.4659Z" fill="white"/>
<path d="M27.3057 17.4169C26.683 17.2933 26.0523 17.2146 25.4183 17.1816C24.9624 17.163 24.5089 17.1073 24.0621 17.0149C23.3185 16.7942 22.6166 16.452 21.9848 16.0021C21.3252 15.5477 20.8333 14.8892 20.5848 14.1278L21.4222 13.8723C21.6161 14.4557 21.9984 14.9582 22.5089 15.3008C23.0648 15.6928 23.6815 15.9906 24.3342 16.1823C24.4597 16.2221 25.0587 16.2729 25.4958 16.3101C26.8958 16.4291 27.5389 16.5026 27.8228 16.7082L27.3057 17.4169Z" fill="white"/>
<path d="M27.5625 22.3125H0.4375C0.321468 22.3125 0.210188 22.2664 0.128141 22.1844C0.0460936 22.1023 0 21.991 0 21.875V20.125H0.875V21.4375H27.125V20.125H28V21.875C28 21.991 27.9539 22.1023 27.8719 22.1844C27.7898 22.2664 27.6785 22.3125 27.5625 22.3125Z" fill="white"/>
<path d="M8.75 18.8125H7C6.88397 18.8125 6.77269 18.7664 6.69064 18.6844C6.60859 18.6023 6.5625 18.491 6.5625 18.375V14.875H5.6875C5.57148 14.875 5.46022 14.8289 5.37819 14.7468L4.94069 14.3093C4.85863 14.2273 4.81252 14.116 4.8125 14V12.6875C4.8125 12.5715 4.85859 12.4602 4.94064 12.3781C5.02269 12.2961 5.13397 12.25 5.25 12.25H10.5C10.616 12.25 10.7273 12.2961 10.8094 12.3781C10.8914 12.4602 10.9375 12.5715 10.9375 12.6875V14C10.9375 14.116 10.8914 14.2273 10.8093 14.3093L10.3718 14.7468C10.2898 14.8289 10.1785 14.875 10.0625 14.875H9.1875V18.375C9.1875 18.491 9.14141 18.6023 9.05936 18.6844C8.97731 18.7664 8.86603 18.8125 8.75 18.8125ZM7.4375 17.9375H8.3125V14.4375C8.3125 14.3215 8.35859 14.2102 8.44064 14.1281C8.52269 14.0461 8.63397 14 8.75 14H9.88138L10.0625 13.8189V13.125H5.6875V13.8189L5.86862 14H7C7.11603 14 7.22731 14.0461 7.30936 14.1281C7.39141 14.2102 7.4375 14.3215 7.4375 14.4375V17.9375Z" fill="white"/>
<path d="M5.6875 17.9375H10.0625V18.8125H5.6875V17.9375Z" fill="white"/>
<path d="M7.875 24.5C7.75898 24.5 7.64772 24.4539 7.56569 24.3718L6.69069 23.4968C6.60863 23.4148 6.56252 23.3035 6.5625 23.1875V21.875H7.4375V23.0064L7.875 23.4439L8.3125 23.0064V21.875H9.1875V23.1875C9.18748 23.3035 9.14137 23.4148 9.05931 23.4968L8.18431 24.3718C8.10228 24.4539 7.99102 24.5 7.875 24.5Z" fill="white"/>
<path d="M2.75319 13.4344L1.44069 12.1219C1.38804 12.0691 1.34973 12.0038 1.32941 11.9321C1.30908 11.8604 1.30741 11.7847 1.32454 11.7122C1.34167 11.6397 1.37705 11.5727 1.42731 11.5177C1.47758 11.4627 1.54106 11.4214 1.61175 11.3978L2.625 11.0596V10.0626C2.62499 9.98336 2.64648 9.90564 2.68718 9.83769C2.72788 9.76974 2.78626 9.71411 2.8561 9.67675C2.92594 9.63938 3.00461 9.62167 3.08373 9.62552C3.16284 9.62936 3.23942 9.65461 3.30531 9.69857L4.61781 10.5736L4.13219 11.3016L3.5 10.8798V11.3751C3.49993 11.4669 3.47099 11.5563 3.41729 11.6307C3.36359 11.7052 3.28783 11.7608 3.20075 11.7898L2.55981 12.0042L3.37181 12.8158L2.75319 13.4344Z" fill="white"/>
<path d="M11.375 4.375H17.9375V5.25H11.375V4.375Z" fill="white"/>
<path d="M18.8125 4.375H19.6875V5.25H18.8125V4.375Z" fill="white"/>
<path d="M17.9375 11.375H24.5V12.25H17.9375V11.375Z" fill="white"/>
<path d="M25.375 11.375H26.25V12.25H25.375V11.375Z" fill="white"/>
</svg>
