<svg width="28" height="28" viewBox="0 0 28 28" fill="none" xmlns="http://www.w3.org/2000/svg">
<g clip-path="url(#clip0_2145_29)">
<g clip-path="url(#clip1_2145_29)">
<path d="M27.4641 22.1205C27.2838 21.8409 27.0399 21.6079 26.7523 21.4406C26.4647 21.2733 26.1416 21.1765 25.8094 21.158L25.4065 21.137C24.5188 21.0881 23.65 20.8616 22.8514 20.4708C22.0529 20.08 21.3409 19.533 20.7576 18.862C20.553 18.6255 20.365 18.3751 20.195 18.1126L18.0381 14.7806L16.3415 12.1626L15.372 10.665L14.9275 9.97726C14.6974 9.62062 14.3825 9.3265 14.011 9.12115C13.6396 8.91579 13.223 8.8056 12.7986 8.80039L11.0744 8.7772C10.3965 8.76868 9.73131 8.59241 9.13813 8.26414C8.54496 7.93587 8.04231 7.46582 7.67506 6.89595C7.18663 6.14138 6.9033 5.27253 6.853 4.37507C6.80927 3.55953 6.52339 2.77553 6.03189 2.12326C5.54039 1.47099 4.86558 0.980063 4.09369 0.7132C3.68113 0.569449 3.24118 0.521829 2.80742 0.573973C2.37365 0.626116 1.95752 0.776646 1.59078 1.01408C1.22404 1.25151 0.916378 1.56957 0.69126 1.94399C0.466143 2.31842 0.32952 2.73932 0.291814 3.17457C0.219368 3.98847 0.391308 4.80549 0.785652 5.52115C1.18 6.23681 1.77882 6.8186 2.50556 7.19214C3.30381 7.60537 3.98056 8.21954 4.46906 8.97407C4.83802 9.54236 5.06059 10.1931 5.11693 10.8683C5.17327 11.5435 5.06162 12.2222 4.79194 12.8438L4.10725 14.4271C3.93834 14.8164 3.8684 15.2414 3.90367 15.6644C3.93894 16.0873 4.07832 16.4949 4.30938 16.8508L4.75213 17.5351V17.5373L5.81875 19.1844L7.41869 21.6563L9.67531 25.1414C9.79316 25.3241 9.95402 25.4751 10.1438 25.5811C10.3336 25.6871 10.5465 25.745 10.7638 25.7496H10.7888C10.9986 25.7498 11.2054 25.6993 11.3916 25.6024C11.5778 25.5055 11.7378 25.3651 11.858 25.1931L12.0505 24.9183C12.1626 24.7596 12.3243 24.6428 12.5101 24.5861C12.6959 24.5295 12.8953 24.5363 13.0769 24.6055L13.1508 24.6331C13.3719 24.7163 13.6076 24.7539 13.8437 24.7436C14.0798 24.7333 14.3113 24.6753 14.5243 24.5731C14.7373 24.4709 14.9275 24.3266 15.0832 24.1489C15.239 23.9713 15.3572 23.7639 15.4306 23.5393L15.6056 22.9955C15.6274 22.9278 15.6648 22.8662 15.7149 22.8157C15.765 22.7652 15.8264 22.7273 15.8939 22.705C15.9632 22.6824 16.0368 22.6765 16.1087 22.6878C16.1807 22.6992 16.2489 22.7274 16.3078 22.7702C16.7144 23.063 17.2179 23.1883 17.7143 23.1201C18.2107 23.052 18.6618 22.7956 18.9744 22.404C19.0667 22.2868 19.1828 22.1904 19.3151 22.1214C19.4474 22.0523 19.5928 22.012 19.7418 22.0033C19.8952 21.9927 20.0491 22.015 20.1932 22.0687C20.3373 22.1224 20.4683 22.2063 20.5774 22.3148L22.7006 24.382C23.178 24.8524 23.7767 25.181 24.4299 25.331C25.0832 25.481 25.7652 25.4466 26.4001 25.2316C26.6979 25.1316 26.9687 24.9645 27.1916 24.7431C27.4144 24.5217 27.5834 24.2521 27.6854 23.955C27.7917 23.6527 27.827 23.33 27.7886 23.0119C27.7502 22.6938 27.6392 22.3888 27.4641 22.1205ZM15.3777 16.2313L15.4543 16.9165C15.4583 16.9494 15.4537 16.9828 15.4411 17.0134C15.4285 17.0441 15.4081 17.0709 15.3821 17.0914C15.3562 17.1124 15.3254 17.1266 15.2926 17.1325C15.2598 17.1385 15.226 17.1361 15.1944 17.1256L13.9821 16.7218C13.8217 16.6685 13.651 16.6538 13.4839 16.6789C13.3167 16.704 13.1579 16.7681 13.0202 16.8662C12.8826 16.9642 12.77 17.0934 12.6917 17.2431C12.6133 17.3929 12.5714 17.559 12.5694 17.728C12.5692 17.76 12.5611 17.7914 12.5458 17.8195C12.5305 17.8476 12.5086 17.8714 12.4819 17.889C12.456 17.9076 12.4258 17.9194 12.3942 17.9234C12.3626 17.9274 12.3304 17.9234 12.3008 17.9118L11.9818 17.7941C11.798 17.7263 11.599 17.7102 11.4067 17.7474C11.2143 17.7846 11.0358 17.8738 10.8905 18.0053C10.7452 18.1368 10.6387 18.3056 10.5825 18.4933C10.5263 18.681 10.5226 18.8806 10.5718 19.0703L10.7402 19.7234C10.7502 19.7585 10.7499 19.7956 10.7394 19.8305C10.729 19.8654 10.7087 19.8966 10.6811 19.9203C10.6546 19.9451 10.6216 19.962 10.5859 19.9689C10.5503 19.9759 10.5134 19.9727 10.4794 19.9597L9.71294 19.6775C9.51474 19.6041 9.29924 19.591 9.09361 19.6399C8.88798 19.6888 8.70143 19.7975 8.5575 19.9523L7.84744 20.7122L6.79219 19.0751L15.9412 13.1531L16.9986 14.7876L16.0974 15.0938C15.8651 15.1721 15.6668 15.3278 15.5358 15.5349C15.4047 15.742 15.3489 15.9879 15.3777 16.2313ZM5.72556 17.4288L14.875 11.5063L15.4661 12.4189L6.31663 18.3414L5.72556 17.4288ZM4.9105 14.7749L5.59519 13.1911C5.92255 12.4376 6.05835 11.6147 5.99048 10.7959C5.92262 9.97716 5.6532 9.18789 5.20625 8.49851C4.63459 7.61622 3.84298 6.89805 2.90938 6.4147C2.33669 6.12062 1.86469 5.66247 1.55367 5.09881C1.24266 4.53514 1.10675 3.89155 1.16331 3.25026C1.18882 2.94739 1.28336 2.65439 1.43968 2.39373C1.59599 2.13307 1.80993 1.91167 2.06509 1.74652C2.32025 1.58137 2.60984 1.47686 2.91166 1.441C3.21348 1.40513 3.5195 1.43888 3.80625 1.53964C4.41473 1.75016 4.94662 2.13733 5.33394 2.65168C5.72125 3.16603 5.94641 3.78418 5.98063 4.42714C6.03895 5.47649 6.36978 6.49251 6.9405 7.37501C7.38641 8.06538 7.99618 8.63472 8.71549 9.03227C9.43479 9.42982 10.2413 9.64324 11.0631 9.65351L12.7877 9.6767C13.0679 9.68007 13.343 9.75285 13.5882 9.88852C13.8334 10.0242 14.0412 10.2185 14.1929 10.4541L14.3994 10.7722L5.25 16.6942L5.0435 16.3757C4.89093 16.1406 4.79893 15.8713 4.77573 15.592C4.75252 15.3127 4.79882 15.032 4.9105 14.7749ZM26.8625 23.6688C26.8039 23.8399 26.7067 23.9952 26.5784 24.1227C26.4501 24.2501 26.2942 24.3463 26.1227 24.4038C25.6405 24.567 25.1225 24.5928 24.6265 24.4785C24.1305 24.3642 23.676 24.1141 23.3139 23.7563L21.1899 21.6869C20.9916 21.4953 20.7557 21.347 20.497 21.2514C20.2384 21.1557 19.9627 21.1148 19.6875 21.1313C19.4166 21.1487 19.1523 21.2227 18.9118 21.3486C18.6712 21.4744 18.4598 21.6493 18.291 21.8619C18.1176 22.0774 17.868 22.218 17.5939 22.2547C17.3197 22.2914 17.042 22.2215 16.8179 22.0593C16.6481 21.9369 16.4518 21.8564 16.245 21.8241C16.0381 21.7919 15.8266 21.8089 15.6276 21.8738C15.4286 21.9387 15.2477 22.0496 15.0996 22.1975C14.9515 22.3454 14.8404 22.5262 14.7753 22.7251L14.6003 23.2694C14.5642 23.3815 14.5057 23.485 14.4283 23.5737C14.3509 23.6624 14.2562 23.7343 14.1501 23.7852C14.0428 23.8368 13.9261 23.866 13.8072 23.871C13.6883 23.8759 13.5696 23.8566 13.4584 23.8141L13.3849 23.7865C13.0217 23.6495 12.6233 23.6371 12.2523 23.7514C11.8813 23.8656 11.5589 24.0999 11.3356 24.4174L11.1436 24.6921C11.1041 24.7491 11.0513 24.7956 10.9898 24.8276C10.9282 24.8595 10.8598 24.876 10.7905 24.8755H10.7822C10.708 24.8743 10.6353 24.8545 10.5706 24.8181C10.506 24.7816 10.4515 24.7296 10.4121 24.6668L8.34094 21.4678L9.19975 20.549C9.22649 20.5205 9.26103 20.5004 9.29908 20.4914C9.33713 20.4824 9.37699 20.4848 9.41369 20.4983L10.1806 20.7805C10.3645 20.848 10.5633 20.8639 10.7555 20.8265C10.9477 20.7892 11.1261 20.7 11.2713 20.5685C11.4164 20.4371 11.5229 20.2685 11.5791 20.0809C11.6354 19.8933 11.6392 19.6939 11.5903 19.5043L11.4188 18.848C11.4096 18.8128 11.4103 18.7757 11.4208 18.7408C11.4313 18.7059 11.4511 18.6746 11.4782 18.6502C11.5053 18.6259 11.5386 18.6094 11.5744 18.6027C11.6102 18.596 11.6472 18.5993 11.6813 18.6122L12.0002 18.7299C12.1613 18.7891 12.3342 18.8088 12.5045 18.7873C12.6748 18.7659 12.8375 18.7039 12.9789 18.6067C13.1203 18.5094 13.2363 18.3796 13.3172 18.2283C13.3981 18.0769 13.4416 17.9084 13.4439 17.7368C13.4443 17.7054 13.4522 17.6746 13.4668 17.6469C13.4814 17.6191 13.5023 17.5952 13.5279 17.5771C13.5535 17.559 13.583 17.5473 13.6141 17.5428C13.6451 17.5383 13.6768 17.5412 13.7064 17.5513L14.9192 17.9551C15.0901 18.0119 15.2725 18.0248 15.4497 17.9926C15.6269 17.9604 15.7932 17.8841 15.9332 17.7709C16.0732 17.6576 16.1825 17.5109 16.2509 17.3443C16.3193 17.1777 16.3448 16.9966 16.3249 16.8176L16.2488 16.1325C16.2438 16.0878 16.2541 16.0429 16.2779 16.0048C16.3017 15.9668 16.3377 15.9379 16.38 15.9229L17.4882 15.5436L19.46 18.5895C19.6524 18.886 19.8651 19.1689 20.0966 19.436C20.7569 20.1961 21.5631 20.816 22.4674 21.2588C23.3717 21.7015 24.3556 21.9583 25.361 22.0138L25.7639 22.0348C25.9545 22.0452 26.14 22.0998 26.3059 22.1941C26.4718 22.2884 26.6136 22.4199 26.72 22.5783C26.8265 22.7367 26.8948 22.9176 26.9195 23.1068C26.9442 23.296 26.9247 23.4884 26.8625 23.6688Z" fill="white"/>
<path d="M3.69382 2.41672C3.37287 2.34798 3.03802 2.39264 2.74631 2.5431C2.45459 2.69356 2.22407 2.94051 2.09401 3.24187C1.96395 3.54323 1.9424 3.88036 2.03303 4.19583C2.12366 4.5113 2.32087 4.78558 2.59105 4.97196C2.86123 5.15834 3.18767 5.24527 3.51476 5.21796C3.84185 5.19064 4.14935 5.05077 4.38488 4.82216C4.6204 4.59355 4.76938 4.29036 4.80643 3.96423C4.84348 3.6381 4.76631 3.30921 4.58807 3.03359C4.48728 2.87668 4.35633 2.74135 4.20282 2.63546C4.04931 2.52956 3.8763 2.45521 3.69382 2.41672ZM3.69382 4.26034C3.6342 4.29991 3.56716 4.32698 3.49678 4.33992C3.4264 4.35285 3.35412 4.35138 3.28432 4.33559C3.19666 4.3172 3.11491 4.27744 3.04631 4.21984C2.97772 4.16225 2.92441 4.0886 2.89113 4.00545C2.85785 3.92229 2.84562 3.83221 2.85553 3.74319C2.86544 3.65417 2.89719 3.56898 2.94795 3.49519C2.99871 3.42139 3.06691 3.36127 3.14649 3.32018C3.22608 3.27908 3.31458 3.25828 3.40413 3.25962C3.49369 3.26096 3.58153 3.2844 3.65985 3.32785C3.73817 3.37131 3.80454 3.43344 3.85307 3.50872C3.9314 3.62966 3.95853 3.77673 3.92851 3.91766C3.89849 4.05858 3.81377 4.18183 3.69295 4.26034H3.69382Z" fill="white"/>
<path d="M13.5625 8.31261C13.6785 8.31261 13.7898 8.26652 13.8719 8.18447C13.9539 8.10243 14 7.99115 14 7.87511V2.02749C14 2.00173 14.0071 1.97648 14.0207 1.95456C14.0342 1.93264 14.0535 1.91492 14.0766 1.90338C14.0996 1.89185 14.1254 1.88695 14.151 1.88924C14.1767 1.89154 14.2012 1.90093 14.2218 1.91636L14.6497 2.23749C14.8454 2.38294 15.0867 2.45343 15.3299 2.43617C15.5731 2.41892 15.8021 2.31505 15.9753 2.14343C15.9899 2.12821 16.0079 2.11673 16.0279 2.10995C16.0478 2.10318 16.0691 2.1013 16.0899 2.10449C16.1109 2.10682 16.131 2.114 16.1487 2.12547C16.1664 2.13694 16.1812 2.15237 16.1919 2.17055L16.7453 3.09236C16.8245 3.22446 16.9327 3.33677 17.0618 3.42075C17.1909 3.50473 17.3375 3.55818 17.4903 3.57704C17.6432 3.59589 17.7983 3.57965 17.944 3.52955C18.0896 3.47946 18.2219 3.39682 18.3308 3.28793L18.6524 2.96636C18.6667 2.95285 18.6837 2.94234 18.7021 2.93543C18.7206 2.92852 18.7403 2.92535 18.76 2.92611C18.7799 2.92753 18.7992 2.93322 18.8166 2.94282C18.8341 2.95241 18.8492 2.96567 18.8611 2.98168L19.25 3.50011C19.3507 3.63462 19.4832 3.74197 19.6358 3.81248C19.7883 3.88299 19.9559 3.91446 20.1236 3.90404C20.2913 3.89363 20.4538 3.84166 20.5964 3.75281C20.739 3.66397 20.8572 3.54105 20.9405 3.39511L21.8207 1.85511C21.8319 1.83498 21.848 1.81803 21.8675 1.80586C21.887 1.79369 21.9093 1.7867 21.9323 1.78555C21.9546 1.78433 21.9769 1.78841 21.9974 1.79746C22.0179 1.80651 22.0359 1.82027 22.05 1.83761L22.4381 2.35474C22.5253 2.47088 22.6365 2.56695 22.764 2.63646C22.8916 2.70597 23.0325 2.74731 23.1774 2.75768C23.3222 2.76921 23.4678 2.74882 23.6039 2.69794C23.74 2.64707 23.8632 2.56695 23.9649 2.46324L24.262 2.16618C24.2808 2.1458 24.3056 2.1319 24.3328 2.12648C24.36 2.12106 24.3882 2.12439 24.4134 2.13599C24.4397 2.14528 24.4624 2.16271 24.4781 2.18576C24.4938 2.20882 24.5018 2.23628 24.5009 2.26418V19.6876C24.5009 19.8036 24.547 19.9149 24.629 19.997C24.7111 20.079 24.8223 20.1251 24.9384 20.1251C25.0544 20.1251 25.1657 20.079 25.2477 19.997C25.3298 19.9149 25.3759 19.8036 25.3759 19.6876V2.26593C25.376 2.06539 25.3167 1.86932 25.2053 1.70255C25.0939 1.53577 24.9356 1.40579 24.7503 1.32905C24.5651 1.25232 24.3612 1.23229 24.1645 1.2715C23.9679 1.3107 23.7872 1.40739 23.6456 1.5493L23.3485 1.84636C23.3343 1.86017 23.3174 1.87088 23.2989 1.87781C23.2804 1.88474 23.2606 1.88774 23.2409 1.88661C23.221 1.8852 23.2017 1.87951 23.1843 1.86991C23.1668 1.86032 23.1516 1.84706 23.1398 1.83105L22.75 1.31261C22.6493 1.17811 22.5168 1.07076 22.3642 1.00025C22.2117 0.929737 22.0441 0.898271 21.8764 0.908686C21.7087 0.919102 21.5462 0.971073 21.4036 1.05992C21.261 1.14876 21.1428 1.27168 21.0595 1.41761L20.1793 2.95761C20.1681 2.97774 20.152 2.9947 20.1325 3.00687C20.113 3.01904 20.0907 3.02603 20.0677 3.02718C20.0453 3.02877 20.0229 3.02485 20.0024 3.01578C19.9819 3.0067 19.9639 2.99274 19.95 2.97511L19.5619 2.45799C19.4747 2.34185 19.3635 2.24578 19.236 2.17627C19.1084 2.10676 18.9675 2.06542 18.8226 2.05505C18.6778 2.04444 18.5325 2.06526 18.3966 2.11608C18.2607 2.16691 18.1373 2.24653 18.0351 2.34949L17.7135 2.67105C17.6989 2.68627 17.6809 2.69775 17.6609 2.70453C17.641 2.7113 17.6197 2.71318 17.5989 2.70999C17.5779 2.70766 17.5578 2.70048 17.5401 2.68901C17.5224 2.67754 17.5076 2.66211 17.4969 2.64393L16.9422 1.72036C16.863 1.58819 16.7547 1.47582 16.6256 1.39178C16.4965 1.30775 16.3499 1.25427 16.197 1.23542C16.044 1.21656 15.8888 1.23282 15.7432 1.28297C15.5975 1.33312 15.4652 1.41582 15.3562 1.5248C15.3327 1.5486 15.3013 1.56305 15.2679 1.56546C15.2345 1.56788 15.2014 1.55809 15.1747 1.53793L14.7464 1.21636C14.5957 1.10372 14.4167 1.03521 14.2293 1.01848C14.042 1.00174 13.8536 1.03746 13.6854 1.12162C13.5172 1.20578 13.3757 1.33508 13.2767 1.49505C13.1777 1.65503 13.1252 1.83938 13.125 2.02749V7.87511C13.125 7.99115 13.1711 8.10243 13.2531 8.18447C13.3352 8.26652 13.4465 8.31261 13.5625 8.31261Z" fill="white"/>
<path d="M22.75 7C22.75 6.88397 22.7039 6.77269 22.6219 6.69064C22.5398 6.60859 22.4285 6.5625 22.3125 6.5625C22.1965 6.5625 22.0852 6.60859 22.0031 6.69064C21.9211 6.77269 21.875 6.88397 21.875 7V13.5625C21.875 13.6785 21.9211 13.7898 22.0031 13.8719C22.0852 13.9539 22.1965 14 22.3125 14C22.4285 14 22.5398 13.9539 22.6219 13.8719C22.7039 13.7898 22.75 13.6785 22.75 13.5625V7Z" fill="white"/>
<path d="M22.3125 14.875C22.1965 14.875 22.0852 14.9211 22.0031 15.0031C21.9211 15.0852 21.875 15.1965 21.875 15.3125V17.0625C21.875 17.1785 21.9211 17.2898 22.0031 17.3719C22.0852 17.4539 22.1965 17.5 22.3125 17.5C22.4285 17.5 22.5398 17.4539 22.6219 17.3719C22.7039 17.2898 22.75 17.1785 22.75 17.0625V15.3125C22.75 15.1965 22.7039 15.0852 22.6219 15.0031C22.5398 14.9211 22.4285 14.875 22.3125 14.875Z" fill="white"/>
<path d="M20.125 5.25C20.125 5.13397 20.0789 5.02269 19.9969 4.94064C19.9148 4.85859 19.8035 4.8125 19.6875 4.8125C19.5715 4.8125 19.4602 4.85859 19.3781 4.94064C19.2961 5.02269 19.25 5.13397 19.25 5.25V10.5C19.25 10.616 19.2961 10.7273 19.3781 10.8094C19.4602 10.8914 19.5715 10.9375 19.6875 10.9375C19.8035 10.9375 19.9148 10.8914 19.9969 10.8094C20.0789 10.7273 20.125 10.616 20.125 10.5V5.25Z" fill="white"/>
<path d="M19.6875 11.8125C19.5715 11.8125 19.4602 11.8586 19.3781 11.9406C19.2961 12.0227 19.25 12.134 19.25 12.25V13.125C19.25 13.241 19.2961 13.3523 19.3781 13.4344C19.4602 13.5164 19.5715 13.5625 19.6875 13.5625C19.8035 13.5625 19.9148 13.5164 19.9969 13.4344C20.0789 13.3523 20.125 13.241 20.125 13.125V12.25C20.125 12.134 20.0789 12.0227 19.9969 11.9406C19.9148 11.8586 19.8035 11.8125 19.6875 11.8125Z" fill="white"/>
<path d="M24.9375 26.25C24.8215 26.25 24.7102 26.2961 24.6281 26.3781C24.5461 26.4602 24.5 26.5715 24.5 26.6875C24.5 26.7512 24.4837 26.8138 24.4527 26.8695C24.4217 26.9251 24.377 26.9719 24.3228 27.0054C24.2686 27.0389 24.2068 27.058 24.1432 27.0608C24.0795 27.0637 24.0162 27.0502 23.9592 27.0217L23.1367 26.6105C22.8807 26.4832 22.5987 26.4169 22.3127 26.4169C22.0268 26.4169 21.7447 26.4832 21.4887 26.6105C21.2443 26.733 20.9675 26.7754 20.6977 26.7316C20.4278 26.6879 20.1786 26.5602 19.9854 26.3668C19.6694 26.05 19.2615 25.8409 18.8198 25.7692C18.3781 25.6975 17.925 25.7668 17.5249 25.9674L16.8687 26.2942C16.6705 26.3929 16.4498 26.4376 16.2288 26.4238C16.0079 26.4101 15.7944 26.3383 15.61 26.2159C15.3862 26.0673 15.118 26.0006 14.8507 26.0271C14.5833 26.0536 14.3334 26.1716 14.1431 26.3611L14.0508 26.4534C14.0104 26.4928 13.9594 26.5195 13.904 26.5301C13.8487 26.5407 13.7914 26.5348 13.7394 26.5131C13.6873 26.4914 13.6428 26.4549 13.6114 26.4081C13.5799 26.3614 13.5629 26.3064 13.5625 26.25C13.5625 26.134 13.5164 26.0227 13.4344 25.9406C13.3523 25.8586 13.241 25.8125 13.125 25.8125C13.009 25.8125 12.8977 25.8586 12.8156 25.9406C12.7336 26.0227 12.6875 26.134 12.6875 26.25C12.6873 26.4799 12.7554 26.7047 12.8831 26.896C13.0107 27.0872 13.1923 27.2363 13.4047 27.3243C13.6171 27.4123 13.8509 27.4353 14.0764 27.3904C14.3019 27.3455 14.5091 27.2347 14.6716 27.0721L14.7639 26.9797C14.8108 26.9326 14.8726 26.9033 14.9388 26.8967C15.005 26.8902 15.0713 26.9068 15.1266 26.9439C15.4396 27.1516 15.8019 27.2731 16.1769 27.2961C16.5519 27.3192 16.9263 27.2429 17.2624 27.0751L17.9161 26.7483C18.1519 26.6299 18.4191 26.5889 18.6795 26.6311C18.94 26.6734 19.1805 26.7968 19.3668 26.9837C19.6898 27.3069 20.1064 27.5203 20.5574 27.5935C21.0085 27.6667 21.4712 27.596 21.8798 27.3914C22.0142 27.3245 22.1623 27.2897 22.3125 27.2897C22.4627 27.2897 22.6108 27.3245 22.7452 27.3914L23.5677 27.8027C23.758 27.8977 23.9693 27.9426 24.1818 27.9331C24.3943 27.9236 24.6008 27.86 24.7818 27.7483C24.9629 27.6366 25.1123 27.4805 25.2161 27.2949C25.32 27.1093 25.3746 26.9002 25.375 26.6875C25.375 26.5715 25.3289 26.4602 25.2469 26.3781C25.1648 26.2961 25.0535 26.25 24.9375 26.25Z" fill="white"/>
</g>
</g>
<defs>
<clipPath id="clip0_2145_29">
<rect width="28" height="28" fill="white"/>
</clipPath>
<clipPath id="clip1_2145_29">
<rect width="28" height="28" fill="white"/>
</clipPath>
</defs>
</svg>
