<svg width="15" height="14" viewBox="0 0 15 14" fill="none" xmlns="http://www.w3.org/2000/svg">
<path d="M7.66666 2.33325C8.2855 2.33325 8.87899 2.57908 9.31657 3.01667C9.75416 3.45425 9.99999 4.04775 9.99999 4.66659C9.99999 5.28542 9.75416 5.87892 9.31657 6.3165C8.87899 6.75409 8.2855 6.99992 7.66666 6.99992C7.04782 6.99992 6.45433 6.75409 6.01674 6.3165C5.57916 5.87892 5.33333 5.28542 5.33333 4.66659C5.33333 4.04775 5.57916 3.45425 6.01674 3.01667C6.45433 2.57908 7.04782 2.33325 7.66666 2.33325ZM7.66666 8.16658C10.245 8.16658 12.3333 9.21075 12.3333 10.4999V11.6666H2.99999V10.4999C2.99999 9.21075 5.08833 8.16658 7.66666 8.16658Z" fill="#18332F"/>
</svg>
