<svg width="32" height="32" viewBox="0 0 32 32" fill="none" xmlns="http://www.w3.org/2000/svg">
<g id="warehouse" clip-path="url(#clip0_2222_3288)">
<path id="Vector" d="M31.568 10.5093L16.568 0.176C16.2267 -0.0586667 15.776 -0.0586667 15.4333 0.176L0.433333 10.5093C0.161333 10.696 0 11.004 0 11.3333V30.6667C0 31.4027 0.597333 32 1.33333 32H4V16C4 15.264 4.59733 14.6667 5.33333 14.6667H26.6667C27.4027 14.6667 28 15.264 28 16V32H30.6667C31.4027 32 32 31.4027 32 30.6667V11.3333C32 11.004 31.8387 10.696 31.568 10.5093Z" fill="#D9C3A9"/>
<path id="Vector_2" d="M12.334 25.3333V26.3333C12.334 26.8853 11.886 27.3333 11.334 27.3333C10.782 27.3333 10.334 26.8853 10.334 26.3333V25.3333H8.00065C7.63265 25.3333 7.33398 25.6319 7.33398 25.9999V31.3333C7.33398 31.7013 7.63265 31.9999 8.00065 31.9999H14.6673C15.0353 31.9999 15.334 31.7013 15.334 31.3333V25.9999C15.334 25.6319 15.0353 25.3333 14.6673 25.3333H12.334Z" fill="#D9C3A9"/>
<path id="Vector_3" d="M21.666 25.3333V26.3333C21.666 26.8853 21.218 27.3333 20.666 27.3333C20.114 27.3333 19.666 26.8853 19.666 26.3333V25.3333H17.3327C16.9647 25.3333 16.666 25.6319 16.666 25.9999V31.3333C16.666 31.7013 16.9647 31.9999 17.3327 31.9999H23.9993C24.3673 31.9999 24.666 31.7013 24.666 31.3333V25.9999C24.666 25.6319 24.3673 25.3333 23.9993 25.3333H21.666Z" fill="#D9C3A9"/>
<path id="Vector_4" d="M17 17.3333V18.3333C17 18.8853 16.552 19.3333 16 19.3333C15.448 19.3333 15 18.8853 15 18.3333V17.3333H12.6667C12.2987 17.3333 12 17.6319 12 17.9999V23.3333C12 23.7013 12.2987 23.9999 12.6667 23.9999H19.3333C19.7013 23.9999 20 23.7013 20 23.3333V17.9999C20 17.6319 19.7013 17.3333 19.3333 17.3333H17Z" fill="#D9C3A9"/>
</g>
<defs>
<clipPath id="clip0_2222_3288">
<rect width="32" height="32" fill="white"/>
</clipPath>
</defs>
</svg>
