<svg width="65" height="64" viewBox="0 0 65 64" fill="none" xmlns="http://www.w3.org/2000/svg">
<g clip-path="url(#clip0_2312_4820)">
<path d="M33.6211 0V29.193L60.9839 19.0204C56.733 7.58582 45.8202 0.000187711 33.6211 0Z" fill="#18332F"/>
<path d="M21.1055 62.7985C26.8325 64.5338 32.9658 64.3802 38.5988 62.3607C31.9448 56.8571 30.531 47.2127 35.3256 40.031C40.1202 32.8493 49.5695 30.4572 57.2037 34.4926C57.0922 32.015 56.6465 29.5638 55.8788 27.2056L30.0542 36.7943L21.1055 62.7985Z" fill="#18332F"/>
<path d="M43.7283 44.9124C44.3484 44.9124 44.8511 44.4097 44.8511 43.7896C44.8511 43.1694 44.3484 42.6667 43.7283 42.6667C43.1082 42.6667 42.6055 43.1694 42.6055 43.7896C42.6055 44.4097 43.1082 44.9124 43.7283 44.9124Z" fill="#18332F"/>
<path d="M19.0263 62.0687L27.672 36.7382L1.57792 30.6077C-0.973677 43.9334 6.37114 57.1767 19.0263 62.0687Z" fill="#18332F"/>
<path d="M2.10547 28.4182L28.0086 34.5151V7.85962C15.8071 8.30961 5.31415 16.6376 2.10547 28.4182Z" fill="#18332F"/>
<path d="M49.3426 34.8071C41.2812 34.8071 34.7461 41.3422 34.7461 49.4036C34.7461 57.465 41.2812 64.0001 49.3426 64.0001C57.404 64.0001 63.9391 57.465 63.9391 49.4036C63.9391 45.5324 62.4012 41.8197 59.6639 39.0823C56.9265 36.345 53.2138 34.8071 49.3426 34.8071ZM40.3601 43.7896C40.3601 41.9293 41.8682 40.4212 43.7285 40.4212C45.5889 40.4212 47.097 41.9293 47.097 43.7896C47.097 45.6499 45.5889 47.158 43.7285 47.158C41.8682 47.158 40.3601 45.6499 40.3601 43.7896ZM43.4029 56.9377C43.1181 57.2225 42.703 57.3337 42.314 57.2295C41.9249 57.1252 41.621 56.8213 41.5168 56.4323C41.4125 56.0432 41.5237 55.6281 41.8086 55.3433L55.2822 41.8696C55.567 41.5848 55.9822 41.4735 56.3712 41.5778C56.7603 41.682 57.0642 41.9859 57.1684 42.375C57.2727 42.764 57.1614 43.1792 56.8766 43.464L43.4029 56.9377ZM54.9566 58.3861C53.0963 58.3861 51.5882 56.878 51.5882 55.0177C51.5882 53.1573 53.0963 51.6492 54.9566 51.6492C56.8169 51.6492 58.325 53.1573 58.325 55.0177C58.325 56.878 56.8169 58.3861 54.9566 58.3861Z" fill="#18332F"/>
<path d="M54.9548 56.1404C55.5749 56.1404 56.0776 55.6377 56.0776 55.0176C56.0776 54.3975 55.5749 53.8948 54.9548 53.8948C54.3347 53.8948 53.832 54.3975 53.832 55.0176C53.832 55.6377 54.3347 56.1404 54.9548 56.1404Z" fill="#18332F"/>
</g>
<defs>
<clipPath id="clip0_2312_4820">
<rect width="64" height="64" fill="white" transform="translate(0.5)"/>
</clipPath>
</defs>
</svg>
