<svg width="65" height="64" viewBox="0 0 65 64" fill="none" xmlns="http://www.w3.org/2000/svg">
<path d="M46 30C37.7287 30 31 36.7287 31 45C31 53.2713 37.7287 60 46 60C54.2713 60 61 53.2713 61 45C61 36.7287 54.2713 30 46 30ZM52.6667 46.6667H46C45.079 46.6667 44.3333 45.921 44.3333 45V38.3333C44.3333 37.4123 45.079 36.6667 46 36.6667C46.921 36.6667 47.6667 37.4123 47.6667 38.3333V43.3333H52.6667C53.5877 43.3333 54.3333 44.079 54.3333 45C54.3333 45.921 53.5877 46.6667 52.6667 46.6667Z" fill="#18332F"/>
<path d="M58 8.66667C58 7.73307 57.2593 7 56.316 7H47.896V12C47.896 12.9332 47.1554 13.6667 46.2121 13.6667C45.2688 13.6667 44.5281 12.9332 44.5281 12V7H37.7921V12C37.7921 12.9332 37.0514 13.6667 36.1081 13.6667C35.1648 13.6667 34.4241 12.9332 34.4241 12V7H27.6882V12C27.6882 12.9332 26.9475 13.6667 26.0042 13.6667C25.0609 13.6667 24.3202 12.9332 24.3202 12V7H17.5842V12C17.5842 12.9332 16.8435 13.6667 15.9002 13.6667C14.9569 13.6667 14.2162 12.9332 14.2162 12V7H5.68399C4.74069 7 4 7.73307 4 8.66667V17H58V8.66667Z" fill="#18332F"/>
<path d="M29.3721 37H29.7765C30.3913 35.7941 31.0851 34.6364 31.9341 33.6H29.3721C28.4416 33.6 27.6882 32.8394 27.6882 31.9C27.6882 30.9606 28.4416 30.2 29.3721 30.2H32.7401C33.4299 30.2 34.0189 30.6201 34.2794 31.2191C37.5057 28.4677 41.6675 26.8 46.2121 26.8H42.8441C41.9135 26.8 41.1601 26.0394 41.1601 25.1C41.1601 24.1606 41.9135 23.4 42.8441 23.4H46.2121C47.1426 23.4 47.896 24.1606 47.896 25.1C47.896 26.0394 47.1426 26.8 46.2121 26.8C50.6865 26.8 54.7952 28.4106 58 31.0863V20H4V52.3C4 53.2394 4.75341 54 5.68399 54H29.7331C28.4354 51.4465 27.6882 48.5618 27.6882 45.5C27.6882 43.6287 28.0206 41.8454 28.5297 40.1397C28.0355 39.8435 27.6882 39.3229 27.6882 38.7C27.6882 37.7606 28.4416 37 29.3721 37ZM29.3721 23.4H32.7401C33.6707 23.4 34.4241 24.1606 34.4241 25.1C34.4241 26.0394 33.6707 26.8 32.7401 26.8H29.3721C28.4416 26.8 27.6882 26.0394 27.6882 25.1C27.6882 24.1606 28.4416 23.4 29.3721 23.4ZM19.2682 47.2H15.9002C14.9696 47.2 14.2162 46.4394 14.2162 45.5C14.2162 44.5606 14.9696 43.8 15.9002 43.8H19.2682C20.1988 43.8 20.9522 44.5606 20.9522 45.5C20.9522 46.4394 20.1988 47.2 19.2682 47.2ZM19.2682 40.4H15.9002C14.9696 40.4 14.2162 39.6394 14.2162 38.7C14.2162 37.7606 14.9696 37 15.9002 37H19.2682C20.1988 37 20.9522 37.7606 20.9522 38.7C20.9522 39.6394 20.1988 40.4 19.2682 40.4ZM19.2682 33.6H15.9002C14.9696 33.6 14.2162 32.8394 14.2162 31.9C14.2162 30.9606 14.9696 30.2 15.9002 30.2H19.2682C20.1988 30.2 20.9522 30.9606 20.9522 31.9C20.9522 32.8394 20.1988 33.6 19.2682 33.6ZM19.2682 26.8H15.9002C14.9696 26.8 14.2162 26.0394 14.2162 25.1C14.2162 24.1606 14.9696 23.4 15.9002 23.4H19.2682C20.1988 23.4 20.9522 24.1606 20.9522 25.1C20.9522 26.0394 20.1988 26.8 19.2682 26.8Z" fill="#18332F"/>
<path d="M17 4.93548C17 3.85131 16.3402 3 15.5 3C14.6598 3 14 3.85131 14 4.93548V7H17V4.93548Z" fill="#18332F"/>
<path d="M27 4.93548C27 3.85131 26.3402 3 25.5 3C24.6598 3 24 3.85131 24 4.93548V7H27V4.93548Z" fill="#18332F"/>
<path d="M38 4.93548C38 3.85131 37.1203 3 36 3C34.8797 3 34 3.85131 34 4.93548V7H38V4.93548Z" fill="#18332F"/>
<path d="M48 4.93548C48 3.85131 47.1203 3 46 3C44.8797 3 44 3.85131 44 4.93548V7H48V4.93548Z" fill="#18332F"/>
</svg>
