<svg width="64" height="64" viewBox="0 0 64 64" fill="none" xmlns="http://www.w3.org/2000/svg">
<path d="M60.4904 28.8437C60.2326 26.4608 58.2299 24.6666 55.8368 24.6666L54.1467 24.7163C53.7795 23.6042 53.3291 22.5184 52.751 21.6173L54.0347 20.3336C55.7275 18.6512 55.8603 15.9482 54.3446 14.0472C53.0478 12.4274 51.5712 10.9509 49.9488 9.65385C48.0531 8.13811 45.3526 8.26852 43.6651 9.96105L42.5142 11.1928C41.4803 10.6693 40.3944 10.2189 39.3318 9.98958V8.16158C39.3318 5.76825 37.5374 3.76585 35.1598 3.50798C33.092 3.27891 30.8992 3.27891 28.8422 3.50798C26.4592 3.76585 24.6651 5.76852 24.6651 8.16158L24.7147 9.85172C23.6027 10.2189 22.5168 10.6693 21.6158 11.2474L20.332 9.96371C18.6496 8.27091 15.9467 8.13811 14.0456 9.65385C12.4259 10.9506 10.9494 12.4272 9.6523 14.0496C8.13656 15.948 8.26936 18.6512 9.9595 20.3333L11.1912 21.4842C10.6678 22.5181 10.2174 23.604 9.98803 24.6666H8.16003C5.7667 24.6666 3.7643 26.4611 3.50643 28.8386C3.39176 29.8725 3.33203 30.9272 3.33203 32C3.33203 33.0728 3.39203 34.1277 3.50643 35.1562C3.7643 37.5392 5.76696 39.3333 8.16003 39.3333L9.85016 39.2837C10.2174 40.3957 10.6678 41.4816 11.2459 42.3827L9.96216 43.6664C8.26936 45.3488 8.13656 48.0517 9.6523 49.9528C10.9491 51.5725 12.4256 53.049 14.048 54.3461C15.9438 55.8592 18.6443 55.7314 20.3318 54.0389L21.4827 52.8072C22.5166 53.3306 23.6024 53.781 24.6651 54.0104V55.8384C24.6651 58.2317 26.4595 60.2341 28.8371 60.492C29.871 60.6066 30.9256 60.6664 31.9984 60.6664C33.0712 60.6664 34.1262 60.6064 35.1547 60.492C37.5376 60.2341 39.3318 58.2314 39.3318 55.8384L39.2822 54.1482C40.3942 53.781 41.48 53.3306 42.3811 52.7525L43.6648 54.0362C45.3472 55.7264 48.0502 55.8592 49.9512 54.3461C51.5736 53.0493 53.0502 51.5674 54.3446 49.9504C55.8627 48.0546 55.7299 45.3515 54.0374 43.6691L52.8056 42.5154C53.3291 41.4842 53.7795 40.3984 54.0112 39.333H55.8368C58.2302 39.333 60.2326 37.5387 60.4904 35.161C60.6051 34.1272 60.6648 33.0725 60.6648 31.9997C60.6648 30.9269 60.6048 29.8722 60.4904 28.8437ZM40.3472 39.948C39.4283 42.7072 36.8918 44.568 33.9982 44.6512V46.6669C33.9982 47.7712 33.1024 48.6669 31.9982 48.6669C30.8939 48.6669 29.9982 47.7712 29.9982 46.6669V44.597C26.9886 44.2573 24.411 42.2267 23.4331 39.2997C23.084 38.2528 23.6518 37.12 24.6987 36.7685C25.756 36.4248 26.8758 36.9872 27.2299 38.0341C27.7534 39.6096 29.2222 40.6669 30.8808 40.6669H33.8C35.0502 40.6669 36.1568 39.8701 36.5499 38.6826C37.0576 37.1669 36.2347 35.5213 34.7166 35.016L28.0134 32.7816C24.404 31.576 22.4456 27.6592 23.6488 24.0525C24.5678 21.2933 27.1043 19.4325 29.9979 19.3493V17.3336C29.9979 16.2293 30.8936 15.3336 31.9979 15.3336C33.1022 15.3336 33.9979 16.2293 33.9979 17.3336V19.4035C37.0075 19.7432 39.5851 21.7738 40.563 24.7008C40.912 25.7477 40.3443 26.8805 39.2974 27.232C38.2323 27.568 37.115 27.0107 36.7662 25.9664C36.2427 24.3909 34.7739 23.3336 33.1152 23.3336H30.196C28.9459 23.3336 27.8392 24.1304 27.4462 25.3178C26.9384 26.8336 27.7614 28.4792 29.2795 28.9845L35.9827 31.2189C39.592 32.4245 41.5504 36.3413 40.3472 39.948Z" fill="#18332F"/>
</svg>
