<svg width="64" height="64" viewBox="0 0 64 64" fill="none" xmlns="http://www.w3.org/2000/svg">
<path d="M0 43.8413V60.5478C0 61.5957 0.849121 62.4438 1.896 62.4438H9.66357V41.9453H1.896C0.849121 41.9453 0 42.7944 0 43.8413Z" fill="#18332F"/>
<path d="M41.5874 33.8413C41.5874 34.9434 40.6943 35.8364 39.5923 35.8364C38.4907 35.8364 37.5977 34.9434 37.5977 33.8413C37.5977 32.7397 38.4907 31.8467 39.5923 31.8467C40.6943 31.8467 41.5874 32.7397 41.5874 33.8413Z" fill="#18332F"/>
<path d="M5.82621 28.7384H14.7842V37.0621C14.7652 37.0685 14.7466 37.0743 14.7276 37.0807C15.7173 36.7638 16.8257 36.5943 18.0288 36.5943C19.4517 36.7901 25.6675 35.5768 28.3911 40.0802C28.8423 40.8258 29.6016 41.2706 30.4209 41.2706H36.7373C40.6514 41.2706 43.4751 45.1554 42.1822 48.8766C46.2515 48.4264 48.4092 46.8404 52.3574 45.2086V28.7384H61.3145C63.0811 28.7384 63.8848 26.5279 62.5337 25.3917L52.3574 16.8365V3.52209C52.3574 2.47424 51.5078 1.6261 50.4614 1.6261H43.0781C42.0303 1.6261 41.1822 2.47424 41.1822 3.52209V7.44348L34.7901 2.06946C34.086 1.47717 33.0557 1.47717 32.3506 2.06946L4.60648 25.3917C3.25785 26.525 4.05912 28.7384 5.82621 28.7384ZM45.3789 33.8404C45.3809 37.0289 42.7998 39.6261 39.5933 39.6261C36.4043 39.6276 33.8076 37.047 33.8076 33.8404C33.8076 30.6495 36.4029 28.0548 39.5933 28.0548C42.7945 28.0548 45.3809 30.6481 45.3789 33.8404ZM38.2705 20.4371C39.0113 19.6964 40.2119 19.6964 40.9522 20.4371C41.6929 21.1779 41.6929 22.3785 40.9522 23.1193L28.8701 35.2003C28.1294 35.941 26.9312 35.942 26.1895 35.2003C25.4488 34.461 25.4488 33.2604 26.1895 32.5196L38.2705 20.4371ZM27.5518 16.0113C30.7495 16.0113 33.3413 18.6031 33.3413 21.8009C33.3413 24.9986 30.7495 27.5904 27.5518 27.5904C24.354 27.5904 21.7622 24.9986 21.7622 21.8009C21.7622 18.6031 24.354 16.0113 27.5518 16.0113Z" fill="#18332F"/>
<path d="M62.6494 44.7207L48.8735 50.9414C46.1323 52.1596 43.2329 52.7739 40.2456 52.7739H25.9399C24.8936 52.7739 24.0439 51.9257 24.0439 50.8784C24.0439 49.8315 24.8936 48.9824 25.9399 48.9824H36.7368C37.8198 48.9824 38.6973 48.1 38.6973 47.0219C38.6973 45.9414 37.8174 45.062 36.7368 45.062H30.4204C28.2627 45.062 26.291 43.9335 25.1475 42.0424C23.8599 39.9165 20.29 40.4633 18.0283 40.3857C16.6528 40.3857 13.4531 40.7216 13.4531 43.8413V62.4462H39.1245C42.8755 62.4462 46.5708 61.4477 49.8125 59.5595L61.354 52.8359C64.2842 51.1289 64.8716 47.2011 62.6494 44.7207Z" fill="#18332F"/>
<path d="M27.2893 23.7739C28.5935 23.9384 29.6906 22.8418 29.5261 21.5371C29.4143 20.6484 28.6965 19.9311 27.8078 19.8188C26.5036 19.6547 25.4069 20.7514 25.571 22.0556C25.6828 22.9443 26.4006 23.6621 27.2893 23.7739Z" fill="#18332F"/>
</svg>
