<svg width="20" height="20" viewBox="0 0 20 20" fill="none" xmlns="http://www.w3.org/2000/svg">
<path d="M17.9942 6.00234C17.8993 5.65018 17.7138 5.32901 17.4562 5.07082C17.1986 4.81262 16.8778 4.62639 16.5259 4.53068C15.2209 4.17234 10 4.16651 10 4.16651C10 4.16651 4.78003 4.16068 3.4742 4.50318C3.12247 4.6033 2.80238 4.79216 2.54467 5.05162C2.28696 5.31109 2.10027 5.63244 2.00253 5.98484C1.65836 7.28984 1.65503 9.99651 1.65503 9.99651C1.65503 9.99651 1.6517 12.7165 1.99336 14.0082C2.18503 14.7223 2.74753 15.2865 3.46253 15.479C4.78086 15.8373 9.98753 15.8432 9.98753 15.8432C9.98753 15.8432 15.2084 15.849 16.5134 15.5073C16.8654 15.4118 17.1865 15.226 17.4447 14.9683C17.703 14.7107 17.8895 14.39 17.9859 14.0382C18.3309 12.734 18.3334 10.0282 18.3334 10.0282C18.3334 10.0282 18.35 7.30734 17.9942 6.00234ZM8.33003 12.504L8.3342 7.50401L12.6734 10.0082L8.33003 12.504Z" fill="#BFCEC2"/>
</svg>
